<svg xmlns="http://www.w3.org/2000/svg" width="230.14" height="192" viewBox="0 0 230.14 192"><g id="Layer_2" data-name="Layer 2"><g id="Layer_1-2" data-name="Layer 1"><rect x="82.76" y="63.79" width="57" height="108.58" style="fill:#5f372e"/><circle cx="146.9" cy="39.5" r="20.5" style="fill:#5f372e"/><circle cx="74.9" cy="39.5" r="20.5" style="fill:#5f372e"/><path d="M102.15,4.8l11.27,15.46A9.58,9.58,0,0,1,102.15,4.8Z" style="fill:#5f372e"/><path d="M120.8,0l-.52,27a13.52,13.52,0,0,1,.52-27Z" style="fill:#5f372e"/><path d="M133.1,16.72,108.41,27.64A13.52,13.52,0,0,1,133.1,16.72Z" style="fill:#5f372e"/><circle cx="74.9" cy="39.5" r="13.5" style="fill:#865145"/><circle cx="146.9" cy="39.5" r="13.5" style="fill:#865145"/><path d="M207.46,82a82.12,82.12,0,0,1-21.64,25.5,105.7,105.7,0,0,1-32.11,17.2,125.82,125.82,0,0,1-78.63,0A105.77,105.77,0,0,1,43,107.5,82.12,82.12,0,0,1,21.34,82" style="fill:none;stroke:#5f372e;stroke-miterlimit:10;stroke-width:11.338582677165354px"/><circle cx="110.9" cy="51.5" r="34.5" style="fill:#5f372e"/><path d="M12.75,71.53a7.76,7.76,0,0,0,0,11,7.71,7.71,0,0,0,2.57,1.71,7.78,7.78,0,0,0,8.43-1.71A7.63,7.63,0,0,0,25.45,80a7.82,7.82,0,0,0,0-5.86,7.63,7.63,0,0,0-1.7-2.57,7.78,7.78,0,0,0-5.5-2.28" style="fill:none;stroke:#f4b586;stroke-linecap:round;stroke-miterlimit:10;stroke-width:6.236218580110807px"/><path d="M3.12,84.53a7.71,7.71,0,0,0,1.62,2.62A7.85,7.85,0,0,0,7.16,88.9a8,8,0,0,0,2.9.7,7.56,7.56,0,0,0,3-.48,7.73,7.73,0,0,0,4.37-4" style="fill:none;stroke:#f4b586;stroke-linecap:round;stroke-miterlimit:10;stroke-width:6.236218580110807px"/><path d="M6.2,96.43a7.76,7.76,0,0,0,2.91,1,7.66,7.66,0,0,0,3-.17A7.85,7.85,0,0,0,14.79,96a8,8,0,0,0,2.08-2.29,7.74,7.74,0,0,0,1-2.91,7.85,7.85,0,0,0-.16-3" style="fill:none;stroke:#f4b586;stroke-linecap:round;stroke-miterlimit:10;stroke-width:6.236218580110807px"/><path d="M217.4,71.53a7.63,7.63,0,0,1,1.7,2.57,7.82,7.82,0,0,1,0,5.86,7.63,7.63,0,0,1-1.7,2.57A7.79,7.79,0,0,1,204.69,80a7.76,7.76,0,0,1,1.71-8.43A7.71,7.71,0,0,1,209,69.82a7.8,7.8,0,0,1,2.93-.57" style="fill:none;stroke:#f4b586;stroke-linecap:round;stroke-miterlimit:10;stroke-width:6.236218580110807px"/><path d="M227,84.53a7.71,7.71,0,0,1-1.62,2.62A7.85,7.85,0,0,1,223,88.9a8,8,0,0,1-2.9.7,7.56,7.56,0,0,1-3.05-.48,7.76,7.76,0,0,1-2.63-1.62,8,8,0,0,1-1.74-2.42" style="fill:none;stroke:#f4b586;stroke-linecap:round;stroke-miterlimit:10;stroke-width:6.236218580110807px"/><path d="M223.94,96.43a7.76,7.76,0,0,1-2.91,1,7.67,7.67,0,0,1-3-.17,7.65,7.65,0,0,1-4.77-3.55,7.76,7.76,0,0,1-1-2.91,7.85,7.85,0,0,1,.16-3" style="fill:none;stroke:#f4b586;stroke-linecap:round;stroke-miterlimit:10;stroke-width:6.236218580110807px"/><circle cx="111.53" cy="77.32" r="20.5" style="fill:#f4b586"/><circle cx="101.02" cy="52.12" r="18.5" style="fill:#f4b586"/><circle cx="121.85" cy="52.11" r="18.5" style="fill:#f4b586"/><circle cx="111.43" cy="81.5" r="2.5" style="fill:#341d18"/><ellipse cx="103.22" cy="60.52" rx="8.5" ry="4" transform="translate(-5.24 10) rotate(-5.41)" style="fill:none"/><path d="M166.65,162.6c-11.71-1.27-26.44-2.09-42.39-2.38-3.5-.07-7.06-.1-10.66-.11h-2.34c-3.54,0-7.05,0-10.5.08-16.91.24-32.57,1.08-44.89,2.42-19.2,2.09-28.95,4.67-28.95,13s9.75,10.9,28.95,13c13.39,1.46,30.73,2.33,49.34,2.48q2.92,0,5.88,0a2,2,0,0,0,.31-1.07V176.9h-.14q-6,0-11.66-.09c-11.08-.19-21-.63-29.4-1.22,8.43-.59,18.32-1,29.4-1.23q5.63-.09,11.66-.09h2.34c4.07,0,8,.05,11.8.14,10.08.2,19.12.62,26.91,1.17-7.79.55-16.83,1-26.91,1.16-3.79.09-7.73.13-11.8.14V190a1.94,1.94,0,0,0,.31,1.06c2,0,4,0,5.93,0,17.65-.21,34-1.06,46.81-2.46,19.2-2.08,28.94-4.67,28.94-13S185.85,164.69,166.65,162.6Z" style="fill:#5f372e"/><path d="M106.34,60.56a5.58,5.58,0,0,1-9.82,0" style="fill:none;stroke:#441912;stroke-linecap:round;stroke-miterlimit:10;stroke-width:2.8346456692913384px"/><path d="M126.34,60.56a5.58,5.58,0,0,1-9.82,0" style="fill:none;stroke:#441912;stroke-linecap:round;stroke-miterlimit:10;stroke-width:2.8346456692913384px"/><path d="M111.26,106h.14a18,18,0,0,1,18,18v50a0,0,0,0,1,0,0H93.26a0,0,0,0,1,0,0V124A18,18,0,0,1,111.26,106Z" style="fill:#865145"/><path d="M125.4,164.82v17.36a9.81,9.81,0,0,1-9.82,9.82,2,2,0,0,1-2-2V157a2,2,0,0,1,2-2,9.81,9.81,0,0,1,9.82,9.82Z" style="fill:#f4b586"/><path d="M111.4,157v33a2,2,0,0,1-2,2,9.69,9.69,0,0,1-4.2-.95,9.8,9.8,0,0,1-5.61-8.87V164.82a9.79,9.79,0,0,1,1.16-4.64,9.68,9.68,0,0,1,1.71-2.31,9.81,9.81,0,0,1,6.94-2.87A2,2,0,0,1,111.4,157Z" style="fill:#f4b586"/></g></g></svg>