<svg width="169" height="55" viewBox="0 0 169 55" fill="none" xmlns="http://www.w3.org/2000/svg">
<path d="M75.942 40.228C74.916 40.228 73.9597 40.0633 73.073 39.734C72.199 39.392 71.439 38.9107 70.793 38.29C70.147 37.6693 69.6403 36.941 69.273 36.105C68.9183 35.269 68.741 34.3507 68.741 33.35C68.741 32.3493 68.9183 31.431 69.273 30.595C69.6403 29.759 70.147 29.0307 70.793 28.41C71.4517 27.7893 72.218 27.3143 73.092 26.985C73.966 26.643 74.9223 26.472 75.961 26.472C77.1137 26.472 78.1523 26.6747 79.077 27.08C80.0143 27.4727 80.7997 28.0553 81.433 28.828L79.457 30.652C79.001 30.1327 78.4943 29.7463 77.937 29.493C77.3797 29.227 76.7717 29.094 76.113 29.094C75.4923 29.094 74.9223 29.1953 74.403 29.398C73.8837 29.6007 73.434 29.892 73.054 30.272C72.674 30.652 72.3763 31.1017 72.161 31.621C71.9583 32.1403 71.857 32.7167 71.857 33.35C71.857 33.9833 71.9583 34.5597 72.161 35.079C72.3763 35.5983 72.674 36.048 73.054 36.428C73.434 36.808 73.8837 37.0993 74.403 37.302C74.9223 37.5047 75.4923 37.606 76.113 37.606C76.7717 37.606 77.3797 37.4793 77.937 37.226C78.4943 36.96 79.001 36.561 79.457 36.029L81.433 37.853C80.7997 38.6257 80.0143 39.2147 79.077 39.62C78.1523 40.0253 77.1073 40.228 75.942 40.228ZM89.5156 29.626C90.3262 29.626 91.0482 29.7907 91.6816 30.12C92.3276 30.4367 92.8342 30.9307 93.2016 31.602C93.5689 32.2607 93.7526 33.1093 93.7526 34.148V40H90.7886V34.604C90.7886 33.7807 90.6049 33.1727 90.2376 32.78C89.8829 32.3873 89.3762 32.191 88.7176 32.191C88.2489 32.191 87.8246 32.2923 87.4446 32.495C87.0772 32.685 86.7859 32.9827 86.5706 33.388C86.3679 33.7933 86.2666 34.3127 86.2666 34.946V40H83.3026V25.902H86.2666V32.609L85.6016 31.754C85.9689 31.07 86.4946 30.5443 87.1786 30.177C87.8626 29.8097 88.6416 29.626 89.5156 29.626ZM96.4393 40V29.778H99.4033V40H96.4393ZM97.9213 28.353C97.3766 28.353 96.9333 28.1947 96.5913 27.878C96.2493 27.5613 96.0783 27.1687 96.0783 26.7C96.0783 26.2313 96.2493 25.8387 96.5913 25.522C96.9333 25.2053 97.3766 25.047 97.9213 25.047C98.466 25.047 98.9093 25.199 99.2513 25.503C99.5933 25.7943 99.7643 26.1743 99.7643 26.643C99.7643 27.137 99.5933 27.5487 99.2513 27.878C98.922 28.1947 98.4786 28.353 97.9213 28.353ZM115.245 29.626C116.056 29.626 116.771 29.7907 117.392 30.12C118.025 30.4367 118.519 30.9307 118.874 31.602C119.241 32.2607 119.425 33.1093 119.425 34.148V40H116.461V34.604C116.461 33.7807 116.29 33.1727 115.948 32.78C115.606 32.3873 115.125 32.191 114.504 32.191C114.073 32.191 113.687 32.2923 113.345 32.495C113.003 32.685 112.737 32.9763 112.547 33.369C112.357 33.7617 112.262 34.262 112.262 34.87V40H109.298V34.604C109.298 33.7807 109.127 33.1727 108.785 32.78C108.456 32.3873 107.981 32.191 107.36 32.191C106.929 32.191 106.543 32.2923 106.201 32.495C105.859 32.685 105.593 32.9763 105.403 33.369C105.213 33.7617 105.118 34.262 105.118 34.87V40H102.154V29.778H104.985V32.571L104.453 31.754C104.808 31.0573 105.308 30.5317 105.954 30.177C106.613 29.8097 107.36 29.626 108.196 29.626C109.133 29.626 109.95 29.8667 110.647 30.348C111.356 30.8167 111.825 31.5387 112.053 32.514L111.008 32.229C111.35 31.431 111.895 30.7977 112.642 30.329C113.402 29.8603 114.27 29.626 115.245 29.626ZM128.124 40.152C127.263 40.152 126.509 39.962 125.863 39.582C125.217 39.202 124.71 38.6257 124.343 37.853C123.988 37.0677 123.811 36.0797 123.811 34.889C123.811 33.6857 123.982 32.6977 124.324 31.925C124.666 31.1523 125.16 30.576 125.806 30.196C126.452 29.816 127.225 29.626 128.124 29.626C129.087 29.626 129.948 29.8477 130.708 30.291C131.481 30.7217 132.089 31.3297 132.532 32.115C132.988 32.9003 133.216 33.825 133.216 34.889C133.216 35.9657 132.988 36.8967 132.532 37.682C132.089 38.4673 131.481 39.0753 130.708 39.506C129.948 39.9367 129.087 40.152 128.124 40.152ZM122.082 43.686V29.778H124.913V31.868L124.856 34.908L125.046 37.929V43.686H122.082ZM127.611 37.72C128.105 37.72 128.542 37.606 128.922 37.378C129.315 37.15 129.625 36.827 129.853 36.409C130.094 35.9783 130.214 35.4717 130.214 34.889C130.214 34.2937 130.094 33.787 129.853 33.369C129.625 32.951 129.315 32.628 128.922 32.4C128.542 32.172 128.105 32.058 127.611 32.058C127.117 32.058 126.674 32.172 126.281 32.4C125.888 32.628 125.578 32.951 125.35 33.369C125.122 33.787 125.008 34.2937 125.008 34.889C125.008 35.4717 125.122 35.9783 125.35 36.409C125.578 36.827 125.888 37.15 126.281 37.378C126.674 37.606 127.117 37.72 127.611 37.72ZM136.921 40V29.208H132.665V26.7H144.255V29.208H139.999V40H136.921ZM149.527 40.152C148.438 40.152 147.469 39.924 146.62 39.468C145.784 39.012 145.119 38.3913 144.625 37.606C144.144 36.808 143.903 35.9023 143.903 34.889C143.903 33.863 144.144 32.9573 144.625 32.172C145.119 31.374 145.784 30.7533 146.62 30.31C147.469 29.854 148.438 29.626 149.527 29.626C150.604 29.626 151.566 29.854 152.415 30.31C153.264 30.7533 153.929 31.3677 154.41 32.153C154.891 32.9383 155.132 33.8503 155.132 34.889C155.132 35.9023 154.891 36.808 154.41 37.606C153.929 38.3913 153.264 39.012 152.415 39.468C151.566 39.924 150.604 40.152 149.527 40.152ZM149.527 37.72C150.021 37.72 150.464 37.606 150.857 37.378C151.25 37.15 151.56 36.827 151.788 36.409C152.016 35.9783 152.13 35.4717 152.13 34.889C152.13 34.2937 152.016 33.787 151.788 33.369C151.56 32.951 151.25 32.628 150.857 32.4C150.464 32.172 150.021 32.058 149.527 32.058C149.033 32.058 148.59 32.172 148.197 32.4C147.804 32.628 147.488 32.951 147.247 33.369C147.019 33.787 146.905 34.2937 146.905 34.889C146.905 35.4717 147.019 35.9783 147.247 36.409C147.488 36.827 147.804 37.15 148.197 37.378C148.59 37.606 149.033 37.72 149.527 37.72ZM159.564 37.91L159.64 34.3L164.409 29.778H167.943L163.364 34.433L161.825 35.687L159.564 37.91ZM157.113 40V25.902H160.077V40H157.113ZM164.732 40L161.274 35.706L163.136 33.407L168.323 40H164.732Z" fill="#403B3B"/>
<mask id="mask0_935_310" style="mask-type:alpha" maskUnits="userSpaceOnUse" x="0" y="0" width="55" height="55">
<path d="M55 27.5C55 42.6878 42.6878 55 27.5 55C12.3122 55 0 42.6878 0 27.5C0 12.3122 12.3122 0 27.5 0C42.6878 0 55 12.3122 55 27.5Z" fill="#D9D9D9"/>
</mask>
<g mask="url(#mask0_935_310)">
<path d="M37.4615 31.0773L16.1357 31L16.0001 68.4136L37.3258 68.4909L37.4615 31.0773Z" fill="#5F372E"/>
<path d="M27.1056 84.2902C23.3657 84.2651 20.3864 81.2318 20.3888 77.5397L20.4761 53.5748C20.5013 49.8349 23.5346 46.8556 27.2267 46.858C30.9666 46.8832 33.9459 49.9165 33.9435 53.6086L33.8562 77.5735C33.8185 81.2781 30.7978 84.2927 27.1056 84.2902Z" fill="#865145"/>
<path d="M43.1116 28.1165C47.1047 26.7025 49.1955 22.3192 47.7815 18.3261C46.3676 14.333 41.9842 12.2422 37.9911 13.6562C33.998 15.0702 31.9072 19.4535 33.3212 23.4466C34.7352 27.4397 39.1185 29.5305 43.1116 28.1165Z" fill="#5F372E"/>
<path d="M15.052 28.0106C19.0451 26.5966 21.1359 22.2133 19.722 18.2202C18.308 14.2271 13.9247 12.1363 9.93157 13.5502C5.93847 14.9642 3.84767 19.3475 5.26165 23.3406C6.67562 27.3337 11.0589 29.4245 15.052 28.0106Z" fill="#5F372E"/>
<path d="M23.6988 8.71491L27.9946 14.4573C26.4163 15.4925 24.3032 15.1294 23.1394 13.6363C21.9984 12.0954 22.266 9.93673 23.6988 8.71491Z" fill="#5F372E"/>
<path d="M30.1643 6.842L30.127 16.9368C27.4848 16.7611 25.3967 14.5633 25.3939 11.8653C25.3912 9.16724 27.5162 6.98586 30.1643 6.842Z" fill="#5F372E"/>
<path d="M33.5373 10.5531L33.5 20.6479C30.8578 20.4722 28.7698 18.2744 28.767 15.5764C28.7642 12.8784 30.8892 10.697 33.5373 10.5531Z" fill="#5F372E"/>
<path d="M31.3711 38.2275C38.0912 35.8478 41.6099 28.4711 39.2303 21.751C36.8506 15.0309 29.4739 11.5122 22.7538 13.8918C16.0337 16.2714 12.515 23.6482 14.8946 30.3683C17.2742 37.0884 24.651 40.6071 31.3711 38.2275Z" fill="#5F372E"/>
<path d="M29.972 41.8983C33.9651 40.4843 36.0559 36.101 34.6419 32.1079C33.2279 28.1148 28.8446 26.024 24.8515 27.4379C20.8584 28.8519 18.7676 33.2352 20.1816 37.2283C21.5955 41.2214 25.9789 43.3122 29.972 41.8983Z" fill="#F4B586"/>
<path d="M25.655 31.8371C29.2585 30.561 31.1453 26.6054 29.8693 23.0018C28.5933 19.3983 24.6376 17.5115 21.0341 18.7875C17.4305 20.0635 15.5437 24.0192 16.8197 27.6227C18.0958 31.2263 22.0514 33.1131 25.655 31.8371Z" fill="#F4B586"/>
<path d="M33.4274 31.7044C37.031 30.4284 38.9178 26.4727 37.6417 22.8692C36.3657 19.2657 32.41 17.3789 28.8065 18.6549C25.203 19.9309 23.3162 23.8866 24.5922 27.4901C25.8682 31.0936 29.8239 32.9805 33.4274 31.7044Z" fill="#F4B586"/>
<path d="M33.0058 29.3929C35.2458 28.5997 36.4187 26.1408 35.6255 23.9008C34.8323 21.6607 32.3734 20.4879 30.1333 21.2811C27.8933 22.0743 26.7204 24.5332 27.5136 26.7732C28.3068 29.0133 30.7658 30.1861 33.0058 29.3929Z" fill="white"/>
<path d="M25.1357 29.3616C27.3757 28.5684 28.5486 26.1094 27.7554 23.8694C26.9622 21.6294 24.5033 20.4565 22.2632 21.2497C20.0232 22.0429 18.8503 24.5018 19.6435 26.7419C20.4367 28.9819 22.8956 30.1548 25.1357 29.3616Z" fill="white"/>
<path d="M32.5062 25.0757C32.9931 24.9033 33.2481 24.3688 33.0757 23.8818C32.9032 23.3948 32.3687 23.1399 31.8817 23.3123C31.3948 23.4847 31.1398 24.0193 31.3122 24.5062C31.4847 24.9932 32.0192 25.2482 32.5062 25.0757Z" fill="#341D18"/>
<path d="M24.5062 26.0757C24.9931 25.9033 25.2481 25.3688 25.0757 24.8818C24.9032 24.3948 24.3687 24.1399 23.8817 24.3123C23.3948 24.4847 23.1398 25.0193 23.3122 25.5062C23.4847 25.9932 24.0192 26.2482 24.5062 26.0757Z" fill="#341D18"/>
<path d="M24.9072 38.8221C23.0527 37.7324 22.4048 35.3422 23.4945 33.4877L23.9648 32.6861L30.7119 36.6079L30.2416 37.4095C29.1643 39.2992 26.7616 39.9119 24.9072 38.8221Z" fill="white"/>
</g>
</svg>
