<svg width="287" height="259" viewBox="0 0 287 259" fill="none" xmlns="http://www.w3.org/2000/svg">
<mask id="mask0_913_769" style="mask-type:luminance" maskUnits="userSpaceOnUse" x="0" y="0" width="287" height="259">
<path d="M286.629 0H0V258.25H286.629V0Z" fill="white"/>
</mask>
<g mask="url(#mask0_913_769)">
<path d="M235.05 233.823C234.526 238.534 233.827 243.245 232.778 247.957C229.632 261.916 223.865 274.829 216 286.345C208.31 297.513 198.872 306.761 187.861 314.09C176.851 321.418 164.791 326.304 152.207 328.572C139.099 331.015 125.817 330.666 112.883 327.351C99.9501 324.036 87.8907 318.277 77.4043 309.902C67.0926 301.875 58.5287 291.754 52.0621 280.063C45.4207 268.372 41.0513 255.46 39.1288 242.024C38.2549 236.44 41.9252 231.031 47.1684 230.158C52.4116 229.111 57.3053 232.95 58.1791 238.534C59.7521 249.527 63.2476 259.822 68.6656 269.245C74.0836 278.667 80.8997 286.869 89.1141 293.325C97.678 300.13 107.291 304.841 117.777 307.459C128.263 310.076 138.925 310.425 149.411 308.506C159.548 306.586 169.335 302.573 178.249 296.815C187.162 290.882 194.852 283.379 200.969 274.48C207.436 265.232 211.98 254.762 214.602 243.42C217.223 232.078 217.748 220.736 216 209.394C214.427 198.401 210.931 188.106 205.513 178.683C202.717 173.797 204.29 167.515 208.834 164.549C213.378 161.583 219.321 162.979 221.942 167.864C228.584 179.555 232.953 192.468 234.875 205.904C235.749 215.152 236.099 224.575 235.05 233.823Z" fill="#865145"/>
<path d="M235.05 233.823C234.526 238.534 233.827 243.245 232.778 247.957C229.632 261.916 223.865 274.829 216 286.345C208.31 297.513 198.872 306.761 187.861 314.09C176.851 321.418 164.791 326.304 152.207 328.572C139.099 331.015 125.817 330.666 112.883 327.351C99.9501 324.036 87.8907 318.277 77.4043 309.902C67.0926 301.875 58.5287 291.754 52.0621 280.063C45.4207 268.372 41.0513 255.46 39.1288 242.024C38.2549 236.44 41.9252 231.031 47.1684 230.158C52.4116 229.111 57.3053 232.95 58.1791 238.534C59.7521 249.527 63.2476 259.822 68.6656 269.245C74.0836 278.667 80.8997 286.869 89.1141 293.325C97.678 300.13 107.291 304.841 117.777 307.459C128.263 310.076 138.925 310.425 149.411 308.506C159.548 306.586 169.335 302.573 178.249 296.815C187.162 290.882 194.852 283.379 200.969 274.48C207.436 265.232 211.98 254.762 214.602 243.42C217.223 232.078 217.748 220.736 216 209.394C214.427 198.401 210.931 188.106 205.513 178.683C202.717 173.797 204.29 167.515 208.834 164.549C213.378 161.583 219.321 162.979 221.942 167.864C228.584 179.555 232.953 192.468 234.875 205.904C235.749 215.152 236.099 224.575 235.05 233.823Z" fill="#865145"/>
</g>
<mask id="mask1_913_769" style="mask-type:luminance" maskUnits="userSpaceOnUse" x="0" y="0" width="287" height="259">
<path d="M286.629 0H0V258.25H286.629V0Z" fill="white"/>
</mask>
<g mask="url(#mask1_913_769)">
<path d="M-1.16736 328.806L119.675 365.408L192.352 126.229L71.5104 89.627L-1.16736 328.806Z" fill="#5F372E"/>
<path d="M62.2677 340.978C41.2203 334.564 29.2565 312.444 35.6815 291.43L51.1901 240.555C57.6151 219.541 79.7704 207.597 100.818 214.011C121.865 220.426 133.829 242.546 127.404 263.559L111.895 314.435C105.692 335.67 83.3152 347.393 62.2677 340.978Z" fill="#865145"/>
<path d="M215.582 144.998C240.666 144.998 261 124.696 261 99.6529C261 74.6094 240.666 54.3076 215.582 54.3076C190.498 54.3076 170.164 74.6094 170.164 99.6529C170.164 124.696 190.498 144.998 215.582 144.998Z" fill="#5F372E"/>
<path d="M56.5073 96.9985C81.5911 96.9985 101.926 76.6968 101.926 51.6533C101.926 26.6098 81.5911 6.30798 56.5073 6.30798C31.4235 6.30798 11.0891 26.6098 11.0891 51.6533C11.0891 76.6968 31.4235 96.9985 56.5073 96.9985Z" fill="#5F372E"/>
<path d="M140.476 2.32642L155.098 41.9206C144.464 45.2385 132.943 39.4874 128.955 29.0912C124.967 18.695 130.284 6.75035 140.476 2.32642Z" fill="#5F372E"/>
<path d="M203.175 45.2385L161.08 50.9896C160.194 39.9298 168.17 29.976 179.247 28.4276C190.768 26.8792 200.959 34.3999 203.175 45.2385Z" fill="#5F372E"/>
<path d="M183.235 3.21124L165.954 60.2799C151.11 54.75 143.134 38.8239 147.787 23.5613C152.218 8.29876 167.726 -0.327903 183.235 3.21124Z" fill="#5F372E"/>
<path d="M58.058 84.1692C74.5766 84.1692 87.9675 70.7998 87.9675 54.3077C87.9675 37.8156 74.5766 24.4462 58.058 24.4462C41.5394 24.4462 28.1484 37.8156 28.1484 54.3077C28.1484 70.7998 41.5394 84.1692 58.058 84.1692Z" fill="#865145"/>
<path d="M214.917 131.726C231.435 131.726 244.826 118.357 244.826 101.865C244.826 85.3728 231.435 72.0033 214.917 72.0033C198.398 72.0033 185.007 85.3728 185.007 101.865C185.007 118.357 198.398 131.726 214.917 131.726Z" fill="#865145"/>
<path d="M130.284 182.602C172.498 182.602 206.719 148.435 206.719 106.289C206.719 64.1424 172.498 29.976 130.284 29.976C88.0698 29.976 53.8484 64.1424 53.8484 106.289C53.8484 148.435 88.0698 182.602 130.284 182.602Z" fill="#5F372E"/>
<path d="M117.434 200.961C142.518 200.961 162.852 180.659 162.852 155.616C162.852 130.572 142.518 110.27 117.434 110.27C92.3503 110.27 72.0159 130.572 72.0159 155.616C72.0159 180.659 92.3503 200.961 117.434 200.961Z" fill="#F4B586"/>
<path d="M110.344 136.593C132.981 136.593 151.332 118.272 151.332 95.6713C151.332 73.0711 132.981 54.75 110.344 54.75C87.7078 54.75 69.3572 73.0711 69.3572 95.6713C69.3572 118.272 87.7078 136.593 110.344 136.593Z" fill="#F4B586"/>
<path d="M154.655 148.98C177.291 148.98 195.642 130.659 195.642 108.058C195.642 85.4581 177.291 67.137 154.655 67.137C132.018 67.137 113.668 85.4581 113.668 108.058C113.668 130.659 132.018 148.98 154.655 148.98Z" fill="#F4B586"/>
<path d="M156.87 135.044C170.942 135.044 182.349 123.655 182.349 109.607C182.349 95.5579 170.942 84.1691 156.87 84.1691C142.799 84.1691 131.392 95.5579 131.392 109.607C131.392 123.655 142.799 135.044 156.87 135.044Z" fill="white"/>
<path d="M112.338 121.551C126.41 121.551 137.817 110.163 137.817 96.1137C137.817 82.0649 126.41 70.6761 112.338 70.6761C98.2667 70.6761 86.8596 82.0649 86.8596 96.1137C86.8596 110.163 98.2667 121.551 112.338 121.551Z" fill="white"/>
<path d="M164.625 112.925C167.684 112.925 170.164 110.449 170.164 107.395C170.164 104.341 167.684 101.865 164.625 101.865C161.566 101.865 159.086 104.341 159.086 107.395C159.086 110.449 161.566 112.925 164.625 112.925Z" fill="#341D18"/>
<path d="M118.985 103.856C122.044 103.856 124.524 101.38 124.524 98.3257C124.524 95.2716 122.044 92.7958 118.985 92.7958C115.926 92.7958 113.446 95.2716 113.446 98.3257C113.446 101.38 115.926 103.856 118.985 103.856Z" fill="#341D18"/>
<path d="M94.8355 175.523C86.195 166.233 86.6381 151.634 95.9433 142.786L99.9312 139.026L131.613 172.869L127.625 176.629C118.099 185.256 103.476 184.813 94.8355 175.523Z" fill="white"/>
<path d="M129.691 122.685C129.855 114.868 118.484 108.29 104.293 107.994C90.1025 107.697 78.4656 113.793 78.3016 121.61C78.1376 129.427 89.5086 136.004 103.7 136.301C117.89 136.598 129.527 130.502 129.691 122.685Z" fill="#F4B586"/>
<path d="M175.426 135.77C176.592 129.277 165.528 121.863 150.714 119.211C135.9 116.559 122.946 119.673 121.779 126.166C120.613 132.659 131.677 140.073 146.491 142.725C161.305 145.377 174.259 142.264 175.426 135.77Z" fill="#F4B586"/>
</g>
</svg>
