<svg xmlns="http://www.w3.org/2000/svg" width="97.9" height="117" viewBox="0 0 97.9 117"><g id="Layer_2" data-name="Layer 2"><g id="Layer_1-2" data-name="Layer 1"><g id="mask0_29_199" data-name="mask0 29 199"><path d="M97.9,34.6v77.8c0,2.54-2.33,4.6-5.19,4.6H5.19C2.33,117,0,114.94,0,112.4V34.6a4.36,4.36,0,0,1,1.71-3.41A5.57,5.57,0,0,1,5.19,30H92.71C95.57,30,97.9,32.06,97.9,34.6Z" style="fill:#fade7e"/></g><polygon points="71.75 51.79 71.73 56.48 71.51 117 26.08 117 26.3 56.4 26.32 51.63 33.01 51.65 34.13 51.66 35.34 51.66 45.27 51.7 47.15 51.7 49.17 51.71 50.11 51.71 53.09 51.72 64.31 51.76 65.19 51.77 71.75 51.79" style="fill:#3a2520"/><path d="M63.71,99.63,63.65,117H35L35,99.56a14.35,14.35,0,0,1,28.69.07Z" style="fill:#834f44"/><path d="M83.24,45.32a16.34,16.34,0,1,0-20.85-10A16.34,16.34,0,0,0,83.24,45.32Z" style="fill:#3a2520"/><path d="M23.47,45.1a16.34,16.34,0,1,0-20.86-10A16.34,16.34,0,0,0,23.47,45.1Z" style="fill:#3a2520"/><path d="M23.33,40a9.92,9.92,0,1,0-12.66-6A9.92,9.92,0,0,0,23.33,40Z" style="fill:#834f43"/><path d="M80.32,40a9.92,9.92,0,1,0-12.66-6A9.92,9.92,0,0,0,80.32,40Z" style="fill:#834f43"/><path d="M41.89,4,51,16.22a7.76,7.76,0,0,1-10.35-1.75A7.74,7.74,0,0,1,41.89,4Z" style="fill:#3a2520"/><path d="M55.66,0l-.08,21.51A10.77,10.77,0,0,1,55.66,0Z" style="fill:#3a2520"/><path d="M62.85,7.91l-.08,21.5a10.77,10.77,0,0,1,.08-21.5Z" style="fill:#3a2520"/><path d="M58.23,66.86a27.5,27.5,0,1,0-35.1-16.74A27.51,27.51,0,0,0,58.23,66.86Z" style="fill:#3a2520"/><path d="M55.25,74.68a16.34,16.34,0,1,0-20.86-10A16.34,16.34,0,0,0,55.25,74.68Z" style="fill:#f4b586"/><path d="M46.05,53.25a14.75,14.75,0,1,0-18.82-9A14.75,14.75,0,0,0,46.05,53.25Z" style="fill:#f4b586"/><path d="M62.61,53a14.75,14.75,0,1,0-18.82-9A14.75,14.75,0,0,0,62.61,53Z" style="fill:#f4b586"/><path d="M61.71,48A9.17,9.17,0,1,0,50,42.46,9.16,9.16,0,0,0,61.71,48Z" style="fill:#fff"/><path d="M51.11,46.62a1.89,1.89,0,1,0-2.41-1.16A1.9,1.9,0,0,0,51.11,46.62Z" style="fill:#fff"/><path d="M45,48a9.17,9.17,0,1,0-11.7-5.58A9.17,9.17,0,0,0,45,48Z" style="fill:#fff"/><path d="M59.41,41a2,2,0,1,0-2.54-1.21A2,2,0,0,0,59.41,41Z" style="fill:#3a2520"/><path d="M38.15,52.72c4.64.57,8.64-.91,8.94-3.33s-3.22-4.83-7.86-5.4-8.64.91-8.94,3.32S33.51,52.14,38.15,52.72Z" style="fill:#f4b586"/><path d="M49.65,53a3.93,3.93,0,1,0-3.43-4.39A3.94,3.94,0,0,0,49.65,53Z" style="fill:#f4b586"/><path d="M43.61,41a2,2,0,1,0-2.55-1.21A2,2,0,0,0,43.61,41Z" style="fill:#3a2520"/><path d="M44.46,68.13a8.32,8.32,0,0,1-3-11.36l.42-.71a1.15,1.15,0,0,1,1.58-.42l12.37,7.19a1.17,1.17,0,0,1,.42,1.59l-.41.7A8.26,8.26,0,0,1,44.46,68.13Z" style="fill:#fff"/></g></g></svg>