<svg xmlns="http://www.w3.org/2000/svg" width="234.62" height="248.5" viewBox="0 0 234.62 248.5"><g id="Layer_2" data-name="Layer 2"><g id="Layer_1-2" data-name="Layer 1"><ellipse cx="105.4" cy="157.64" rx="86.62" ry="26.75" style="fill:none;stroke:#55dc8b;stroke-linecap:round;stroke-miterlimit:10;stroke-width:37.55230591991755px"/><rect x="65.02" y="61.56" width="57" height="108.58" transform="translate(-32.31 36.26) rotate(-18.77)" style="fill:#5f372e"/><circle cx="101.65" cy="29" r="20.5" style="fill:#5f372e"/><path d="M60.51,85.35c-31.78,21.72-53,46-47.36,54.23s36-2.72,67.72-24.44" style="fill:none;stroke:#5f372e;stroke-miterlimit:10;stroke-width:13.310412026026503px"/><path d="M113.34,104.47c28.75-19.65,47.63-42.06,42.17-50s-33.2,1.47-61.95,21.13" style="fill:none;stroke:#5f372e;stroke-miterlimit:10;stroke-width:12.47620526261217px"/><circle cx="33.48" cy="52.17" r="20.5" style="fill:#5f372e"/><path d="M48.12,10.54l15.64,11a9.58,9.58,0,0,1-15.64-11Z" style="fill:#5f372e"/><path d="M64.23,0l8.19,25.73A13.53,13.53,0,0,1,64.23,0Z" style="fill:#5f372e"/><path d="M81.26,11.87,61.4,30.16A13.52,13.52,0,0,1,81.26,11.87Z" style="fill:#5f372e"/><path d="M208.39,183.89c0-34.8-17.9-63-40-63s-40,28.2-40,63" style="fill:none;stroke:#5f372e;stroke-miterlimit:10;stroke-width:17.007874015748037px"/><circle cx="33.48" cy="52.17" r="13.5" style="fill:#865145"/><circle cx="101.65" cy="29" r="13.5" style="fill:#865145"/><circle cx="71.43" cy="51.95" r="34.5" style="fill:#5f372e"/><circle cx="80.33" cy="76.19" r="20.5" style="fill:#f4b586"/><circle cx="62.27" cy="55.71" r="18.5" style="fill:#f4b586"/><circle cx="81.99" cy="49" r="18.5" style="fill:#f4b586"/><ellipse cx="67.06" cy="62.96" rx="8.5" ry="4" transform="translate(-19.91 32.99) rotate(-24.18)" style="fill:none"/><path d="M103,100h.14a18,18,0,0,1,18,18v50a0,0,0,0,1,0,0H85a0,0,0,0,1,0,0V118a18,18,0,0,1,18-18Z" transform="translate(-37.65 40.31) rotate(-18.77)" style="fill:#865145"/><circle cx="83.11" cy="49.03" r="11.5" style="fill:#fff"/><path d="M214.13,166.68h0a8.54,8.54,0,0,1,8.54,8.54v19.92a8.54,8.54,0,0,1-8.54,8.54h0a3.47,3.47,0,0,1-3.47-3.47V170.14a3.47,3.47,0,0,1,3.47-3.47Z" transform="translate(-1.48 368.61) rotate(-80.58)" style="fill:#f4b586"/><circle cx="63.63" cy="55.51" r="11.5" style="fill:#fff"/><circle cx="67.6" cy="57.54" r="3.45" style="fill:#341d18"/><circle cx="87.43" cy="50.46" r="3.45" style="fill:#341d18"/><rect x="46.58" y="40.67" width="47" height="14.61" transform="translate(-11.71 25.1) rotate(-18.77)" style="fill:#f4b586"/><path d="M98.2,64.68a20.82,20.82,0,0,1-21.33-5,20.84,20.84,0,0,1-40.36,3.61,3.52,3.52,0,0,1-.13-.43l35.22-12,4.21-1.43,35.21-12c.1.24.2.5.28.76A20.85,20.85,0,0,1,98.2,64.68Z" style="fill:#0c0b0b"/><rect x="75.04" y="76.64" width="32" height="7" rx="3.5" transform="translate(-20.95 33.56) rotate(-18.77)" style="fill:#f4b586"/><path d="M148.09,233.17c25.7-23.46,34.46-55.7,19.57-72s-47.8-10.53-73.5,12.93" style="fill:none;stroke:#5f372e;stroke-miterlimit:10;stroke-width:17.007874015748037px"/><path d="M176.4,162.47c0,9.31-33.78,16.86-75.43,16.86s-75.43-7.55-75.43-16.86" style="fill:none;stroke:#55dc8b;stroke-miterlimit:10;stroke-width:35.95114143107996px"/><path d="M148.64,230.05a94.35,94.35,0,0,0,16-18.85,72.48,72.48,0,0,0,9-19.83,45.05,45.05,0,0,0,1.4-18.5,27,27,0,0,0-21-23,45.07,45.07,0,0,0-18.54-.28" style="fill:none;stroke:#5f372e;stroke-miterlimit:10;stroke-width:17.007874015748037px"/><path d="M152.13,215.27h0a8.58,8.58,0,0,1,8.58,8.58V243.7a8.58,8.58,0,0,1-8.58,8.58h0a3.5,3.5,0,0,1-3.5-3.5v-30A3.5,3.5,0,0,1,152.13,215.27Z" transform="translate(-124.8 212.04) rotate(-52.07)" style="fill:#f4b586"/></g></g></svg>