<svg width="226" height="217" viewBox="0 0 226 217" fill="none" xmlns="http://www.w3.org/2000/svg">
<path d="M225.34 107L200.72 198.87C199.938 201.73 198.056 204.163 195.485 205.64C192.915 207.116 189.864 207.516 187 206.75L121.46 189.19C118.587 188.419 116.137 186.538 114.65 183.962C113.163 181.385 112.76 178.324 113.53 175.45L118.26 157.78L131.26 161.26C133.039 161.739 134.895 161.862 136.721 161.623C138.548 161.383 140.309 160.785 141.904 159.864C143.499 158.942 144.897 157.715 146.016 156.252C147.136 154.79 147.957 153.12 148.43 151.34L167.58 79.86L217.4 93.21C218.829 93.5903 220.169 94.2495 221.342 95.1494C222.516 96.0494 223.5 97.1724 224.237 98.4539C224.975 99.7355 225.453 101.15 225.642 102.617C225.831 104.084 225.728 105.573 225.34 107Z" fill="#2F2F2F"/>
<path d="M77 16.78L26.19 206.44C25.7369 208.13 24.9554 209.714 23.8901 211.103C22.8247 212.491 21.4964 213.655 19.9809 214.53C18.4655 215.405 16.7926 215.972 15.0577 216.201C13.3229 216.429 11.5601 216.313 9.87 215.86C8.17988 215.407 6.59556 214.625 5.20748 213.56C3.8194 212.495 2.65474 211.166 1.78001 209.651C0.905287 208.135 0.337614 206.463 0.10941 204.728C-0.118795 202.993 -0.00306329 201.23 0.449997 199.54L51.27 9.87999C52.2077 6.49344 54.4456 3.61461 57.4962 1.87062C60.5469 0.126617 64.1631 -0.341251 67.5571 0.568928C70.9512 1.47911 73.8481 3.69359 75.6167 6.72998C77.3854 9.76638 77.8826 13.3787 77 16.78Z" fill="#2F2F2F"/>
<path d="M167.14 48.91L159.43 77.68L140.27 149.16C140.082 149.874 139.755 150.544 139.307 151.131C138.86 151.718 138.302 152.212 137.664 152.583C137.026 152.955 136.321 153.197 135.589 153.296C134.858 153.395 134.114 153.349 133.4 153.16L120.4 149.68L61.6 133.89C60.8855 133.703 60.2149 133.376 59.6269 132.93C59.0388 132.483 58.5448 131.924 58.1731 131.286C57.8015 130.647 57.5595 129.942 57.4612 129.21C57.3628 128.478 57.41 127.734 57.6 127.02L87.4 15.93C87.5823 15.2127 87.9058 14.5389 88.3514 13.948C88.7971 13.3571 89.3561 12.8609 89.9957 12.4885C90.6353 12.1161 91.3427 11.8749 92.0766 11.779C92.8105 11.6831 93.5562 11.7344 94.27 11.93L155.27 28.26C159.581 29.4261 163.253 32.2562 165.479 36.1282C167.705 40.0003 168.302 44.5976 167.14 48.91Z" fill="#2F2F2F"/>
<path d="M167.14 48.91L159.43 77.68L140.27 149.16C140.082 149.874 139.755 150.544 139.307 151.131C138.86 151.718 138.302 152.212 137.664 152.583C137.026 152.955 136.321 153.197 135.589 153.296C134.858 153.395 134.114 153.349 133.4 153.16L120.4 149.68L61.6 133.89C60.8855 133.703 60.2149 133.376 59.6269 132.93C59.0388 132.483 58.5448 131.924 58.1731 131.286C57.8015 130.647 57.5595 129.942 57.4612 129.21C57.3628 128.478 57.41 127.734 57.6 127.02L87.4 15.93C87.5823 15.2127 87.9058 14.5389 88.3514 13.948C88.7971 13.3571 89.3561 12.8609 89.9957 12.4885C90.6353 12.1161 91.3427 11.8749 92.0766 11.779C92.8105 11.6831 93.5562 11.7344 94.27 11.93L155.27 28.26C159.581 29.4261 163.253 32.2562 165.479 36.1282C167.705 40.0003 168.302 44.5976 167.14 48.91Z" fill="#2F2F2F"/>
</svg>
