<svg width="657" height="538" viewBox="0 0 657 538" fill="none" xmlns="http://www.w3.org/2000/svg">
<path d="M18.676 80C17.8787 80 17.388 79.6013 17.204 78.804L1.748 17.164V16.796C1.748 15.9987 2.14667 15.6 2.944 15.6H18.308C19.1667 15.6 19.688 15.9987 19.872 16.796L25.208 45.868C25.2693 46.1133 25.3613 46.236 25.484 46.236C25.668 46.236 25.7907 46.1133 25.852 45.868L30.636 16.888C30.7587 16.0293 31.2493 15.6 32.108 15.6H44.436C45.2333 15.6 45.724 16.0293 45.908 16.888L51.244 45.868C51.3053 46.1133 51.3973 46.236 51.52 46.236C51.704 46.236 51.8267 46.1133 51.888 45.868L56.672 16.888C56.7947 16.0293 57.2853 15.6 58.144 15.6H73.324C74.3053 15.6 74.704 16.1213 74.52 17.164L60.444 78.804C60.26 79.6013 59.7693 80 58.972 80H45.264C44.4053 80 43.9147 79.5707 43.792 78.712L38.548 48.168C38.4867 47.9227 38.364 47.8 38.18 47.8C38.0573 47.8 37.9653 47.9227 37.904 48.168L33.396 78.712C33.3347 79.5707 32.844 80 31.924 80H18.676ZM121.909 29.032C121.909 29.4613 121.787 29.7987 121.541 30.044C121.296 30.2893 120.959 30.412 120.529 30.412H98.0813C97.7133 30.412 97.5293 30.596 97.5293 30.964V39.612C97.5293 39.98 97.7133 40.164 98.0813 40.164H111.053C111.483 40.164 111.82 40.2867 112.065 40.532C112.311 40.7773 112.433 41.1147 112.433 41.544V53.504C112.433 53.9333 112.311 54.2707 112.065 54.516C111.82 54.7613 111.483 54.884 111.053 54.884H98.0813C97.7133 54.884 97.5293 55.068 97.5293 55.436V64.636C97.5293 65.004 97.7133 65.188 98.0813 65.188H120.529C120.959 65.188 121.296 65.3107 121.541 65.556C121.787 65.8013 121.909 66.1387 121.909 66.568V78.62C121.909 79.0493 121.787 79.3867 121.541 79.632C121.296 79.8773 120.959 80 120.529 80H81.6133C81.184 80 80.8467 79.8773 80.6013 79.632C80.356 79.3867 80.2333 79.0493 80.2333 78.62V16.98C80.2333 16.5507 80.356 16.2133 80.6013 15.968C80.8467 15.7227 81.184 15.6 81.6133 15.6H120.529C120.959 15.6 121.296 15.7227 121.541 15.968C121.787 16.2133 121.909 16.5507 121.909 16.98V29.032ZM144.986 15.6C145.477 15.6 145.814 15.7533 145.998 16.06C146.244 16.3053 146.274 16.6733 146.09 17.164L138.73 36.576C138.485 37.312 137.964 37.68 137.166 37.68H126.31C125.268 37.68 124.838 37.1893 125.022 36.208L129.07 16.796C129.254 15.9987 129.776 15.6 130.634 15.6H144.986ZM180.246 80C179.449 80 178.927 79.632 178.682 78.896L170.862 55.712C170.801 55.4053 170.586 55.252 170.218 55.252H168.562C168.194 55.252 168.01 55.436 168.01 55.804V78.62C168.01 79.0493 167.887 79.3867 167.642 79.632C167.397 79.8773 167.059 80 166.63 80H152.094C151.665 80 151.327 79.8773 151.082 79.632C150.837 79.3867 150.714 79.0493 150.714 78.62V16.98C150.714 16.5507 150.837 16.2133 151.082 15.968C151.327 15.7227 151.665 15.6 152.094 15.6H176.382C180.307 15.6 183.773 16.4587 186.778 18.176C189.783 19.8933 192.114 22.316 193.77 25.444C195.426 28.5107 196.254 32.068 196.254 36.116C196.254 39.8573 195.457 43.1693 193.862 46.052C192.329 48.8733 190.151 51.0813 187.33 52.676C187.085 52.86 186.993 53.1053 187.054 53.412L196.53 78.436C196.591 78.62 196.622 78.8347 196.622 79.08C196.622 79.6933 196.223 80 195.426 80H180.246ZM168.562 30.412C168.194 30.412 168.01 30.596 168.01 30.964V41.544C168.01 41.912 168.194 42.096 168.562 42.096H173.438C175.094 42.096 176.443 41.5747 177.486 40.532C178.529 39.4893 179.05 38.0787 179.05 36.3C179.05 34.46 178.529 33.0187 177.486 31.976C176.505 30.9333 175.155 30.412 173.438 30.412H168.562ZM244.162 29.032C244.162 29.4613 244.039 29.7987 243.794 30.044C243.548 30.2893 243.211 30.412 242.782 30.412H220.334C219.966 30.412 219.782 30.596 219.782 30.964V39.612C219.782 39.98 219.966 40.164 220.334 40.164H233.306C233.735 40.164 234.072 40.2867 234.318 40.532C234.563 40.7773 234.686 41.1147 234.686 41.544V53.504C234.686 53.9333 234.563 54.2707 234.318 54.516C234.072 54.7613 233.735 54.884 233.306 54.884H220.334C219.966 54.884 219.782 55.068 219.782 55.436V64.636C219.782 65.004 219.966 65.188 220.334 65.188H242.782C243.211 65.188 243.548 65.3107 243.794 65.556C244.039 65.8013 244.162 66.1387 244.162 66.568V78.62C244.162 79.0493 244.039 79.3867 243.794 79.632C243.548 79.8773 243.211 80 242.782 80H203.866C203.436 80 203.099 79.8773 202.854 79.632C202.608 79.3867 202.486 79.0493 202.486 78.62V16.98C202.486 16.5507 202.608 16.2133 202.854 15.968C203.099 15.7227 203.436 15.6 203.866 15.6H242.782C243.211 15.6 243.548 15.7227 243.794 15.968C244.039 16.2133 244.162 16.5507 244.162 16.98V29.032ZM305.436 80C304.578 80 304.056 79.6013 303.872 78.804L302.308 71.72C302.186 71.4133 302.002 71.26 301.756 71.26H287.956C287.711 71.26 287.527 71.4133 287.404 71.72L285.932 78.804C285.748 79.6013 285.227 80 284.368 80H269.28C268.79 80 268.422 79.8773 268.176 79.632C267.992 79.3253 267.962 78.9267 268.084 78.436L284.46 16.796C284.644 15.9987 285.135 15.6 285.932 15.6H304.148C304.946 15.6 305.436 15.9987 305.62 16.796L321.904 78.436C321.966 78.5587 321.996 78.712 321.996 78.896C321.996 79.632 321.567 80 320.708 80H305.436ZM290.348 57.552C290.348 57.8587 290.532 58.012 290.9 58.012H298.72C299.15 58.012 299.334 57.7973 299.272 57.368L295.132 38.232C295.071 37.9867 294.948 37.864 294.764 37.864C294.58 37.864 294.458 37.9867 294.396 38.232L290.348 57.368V57.552ZM372.877 61.508C372.938 67.6413 370.914 72.272 366.805 75.4C362.757 78.4667 357.513 80 351.073 80H328.993C328.563 80 328.226 79.8773 327.981 79.632C327.735 79.3867 327.613 79.0493 327.613 78.62V16.98C327.613 16.5507 327.735 16.2133 327.981 15.968C328.226 15.7227 328.563 15.6 328.993 15.6H349.233C364.259 15.6 371.773 21.6413 371.773 33.724C371.773 39.428 369.749 43.6293 365.701 46.328C365.333 46.5733 365.302 46.788 365.609 46.972C370.454 50.284 372.877 55.1293 372.877 61.508ZM345.461 30.412C345.093 30.412 344.909 30.596 344.909 30.964V40.072C344.909 40.44 345.093 40.624 345.461 40.624H349.417C351.195 40.624 352.545 40.1947 353.465 39.336C354.385 38.416 354.845 37.128 354.845 35.472C354.845 32.0987 353.035 30.412 349.417 30.412H345.461ZM350.337 65.188C351.993 65.188 353.281 64.6973 354.201 63.716C355.121 62.7347 355.581 61.324 355.581 59.484C355.581 57.7053 355.121 56.3253 354.201 55.344C353.342 54.3013 352.085 53.78 350.429 53.78H345.461C345.093 53.78 344.909 53.964 344.909 54.332V64.636C344.909 65.004 345.093 65.188 345.461 65.188H350.337ZM401.471 80.92C396.871 80.92 392.823 80 389.327 78.16C385.831 76.32 383.132 73.744 381.231 70.432C379.329 67.0587 378.379 63.164 378.379 58.748V36.852C378.379 32.436 379.329 28.572 381.231 25.26C383.132 21.948 385.831 19.4027 389.327 17.624C392.823 15.784 396.871 14.864 401.471 14.864C406.071 14.864 410.119 15.784 413.615 17.624C417.172 19.4027 419.901 21.948 421.803 25.26C423.704 28.572 424.655 32.436 424.655 36.852V58.748C424.655 63.164 423.673 67.0587 421.711 70.432C419.809 73.744 417.111 76.32 413.615 78.16C410.119 80 406.071 80.92 401.471 80.92ZM401.471 66.108C403.249 66.108 404.66 65.4947 405.703 64.268C406.807 63.0413 407.359 61.416 407.359 59.392V36.392C407.359 34.368 406.807 32.7427 405.703 31.516C404.66 30.2893 403.249 29.676 401.471 29.676C399.753 29.676 398.343 30.2893 397.239 31.516C396.196 32.7427 395.675 34.368 395.675 36.392V59.392C395.675 61.416 396.196 63.0413 397.239 64.268C398.343 65.4947 399.753 66.108 401.471 66.108ZM453.15 80.736C448.673 80.736 444.717 79.8467 441.282 78.068C437.909 76.2893 435.272 73.7747 433.37 70.524C431.53 67.2733 430.61 63.5013 430.61 59.208V16.98C430.61 16.5507 430.733 16.2133 430.978 15.968C431.224 15.7227 431.561 15.6 431.99 15.6H446.526C446.956 15.6 447.293 15.7227 447.538 15.968C447.784 16.2133 447.906 16.5507 447.906 16.98V60.036C447.906 61.8147 448.366 63.256 449.286 64.36C450.268 65.4027 451.556 65.924 453.15 65.924C454.684 65.924 455.941 65.4027 456.922 64.36C457.904 63.256 458.394 61.8147 458.394 60.036V16.98C458.394 16.5507 458.517 16.2133 458.762 15.968C459.008 15.7227 459.345 15.6 459.774 15.6H474.31C474.74 15.6 475.077 15.7227 475.322 15.968C475.568 16.2133 475.69 16.5507 475.69 16.98V59.208C475.69 63.5013 474.74 67.2733 472.838 70.524C470.998 73.7747 468.361 76.2893 464.926 78.068C461.553 79.8467 457.628 80.736 453.15 80.736ZM526.551 15.6C526.98 15.6 527.317 15.7227 527.563 15.968C527.808 16.2133 527.931 16.5507 527.931 16.98V29.032C527.931 29.4613 527.808 29.7987 527.563 30.044C527.317 30.2893 526.98 30.412 526.551 30.412H513.487C513.119 30.412 512.935 30.596 512.935 30.964V78.62C512.935 79.0493 512.812 79.3867 512.567 79.632C512.321 79.8773 511.984 80 511.555 80H497.019C496.589 80 496.252 79.8773 496.007 79.632C495.761 79.3867 495.639 79.0493 495.639 78.62V30.964C495.639 30.596 495.455 30.412 495.087 30.412H482.299C481.869 30.412 481.532 30.2893 481.287 30.044C481.041 29.7987 480.919 29.4613 480.919 29.032V16.98C480.919 16.5507 481.041 16.2133 481.287 15.968C481.532 15.7227 481.869 15.6 482.299 15.6H526.551ZM597.121 15.6C597.55 15.6 597.888 15.7227 598.133 15.968C598.378 16.2133 598.501 16.5507 598.501 16.98V29.032C598.501 29.4613 598.378 29.7987 598.133 30.044C597.888 30.2893 597.55 30.412 597.121 30.412H584.057C583.689 30.412 583.505 30.596 583.505 30.964V78.62C583.505 79.0493 583.382 79.3867 583.137 79.632C582.892 79.8773 582.554 80 582.125 80H567.589C567.16 80 566.822 79.8773 566.577 79.632C566.332 79.3867 566.209 79.0493 566.209 78.62V30.964C566.209 30.596 566.025 30.412 565.657 30.412H552.869C552.44 30.412 552.102 30.2893 551.857 30.044C551.612 29.7987 551.489 29.4613 551.489 29.032V16.98C551.489 16.5507 551.612 16.2133 551.857 15.968C552.102 15.7227 552.44 15.6 552.869 15.6H597.121ZM625.29 80.92C620.69 80.92 616.642 80 613.146 78.16C609.65 76.32 606.951 73.744 605.05 70.432C603.148 67.0587 602.198 63.164 602.198 58.748V36.852C602.198 32.436 603.148 28.572 605.05 25.26C606.951 21.948 609.65 19.4027 613.146 17.624C616.642 15.784 620.69 14.864 625.29 14.864C629.89 14.864 633.938 15.784 637.434 17.624C640.991 19.4027 643.72 21.948 645.622 25.26C647.523 28.572 648.474 32.436 648.474 36.852V58.748C648.474 63.164 647.492 67.0587 645.53 70.432C643.628 73.744 640.93 76.32 637.434 78.16C633.938 80 629.89 80.92 625.29 80.92ZM625.29 66.108C627.068 66.108 628.479 65.4947 629.522 64.268C630.626 63.0413 631.178 61.416 631.178 59.392V36.392C631.178 34.368 630.626 32.7427 629.522 31.516C628.479 30.2893 627.068 29.676 625.29 29.676C623.572 29.676 622.162 30.2893 621.058 31.516C620.015 32.7427 619.494 34.368 619.494 36.392V59.392C619.494 61.416 620.015 63.0413 621.058 64.268C622.162 65.4947 623.572 66.108 625.29 66.108Z" fill="#0C0C0C"/>
<path d="M70.98 307.08C58.1533 307.08 46.8867 304.567 37.18 299.54C27.4733 294.513 19.9333 287.407 14.56 278.22C9.18667 268.86 6.5 258.027 6.5 245.72V181.5C6.5 169.367 9.18667 158.707 14.56 149.52C19.9333 140.333 27.4733 133.313 37.18 128.46C46.8867 123.433 58.1533 120.92 70.98 120.92C83.8067 120.92 94.9867 123.347 104.52 128.2C114.227 133.053 121.767 139.9 127.14 148.74C132.513 157.58 135.2 167.893 135.2 179.68C135.2 180.893 134.853 181.933 134.16 182.8C133.467 183.493 132.513 183.84 131.3 183.84L90.22 185.66C87.62 185.66 86.32 184.447 86.32 182.02V179.16C86.32 174.133 84.9333 170.147 82.16 167.2C79.3867 164.253 75.66 162.78 70.98 162.78C66.3 162.78 62.4867 164.34 59.54 167.46C56.7667 170.407 55.38 174.307 55.38 179.16V248.84C55.38 253.693 56.7667 257.68 59.54 260.8C62.4867 263.747 66.3 265.22 70.98 265.22C75.66 265.22 79.3867 263.747 82.16 260.8C84.9333 257.853 86.32 253.867 86.32 248.84V245.72C86.32 243.293 87.62 242.08 90.22 242.08L131.3 243.9C132.513 243.9 133.467 244.247 134.16 244.94C134.853 245.633 135.2 246.587 135.2 247.8C135.2 259.587 132.513 269.987 127.14 279C121.767 288.013 114.227 294.947 104.52 299.8C94.8133 304.653 83.6333 307.08 70.98 307.08ZM227.752 126.9C227.752 125.687 228.099 124.733 228.792 124.04C229.485 123.347 230.439 123 231.652 123H272.732C273.945 123 274.899 123.347 275.592 124.04C276.285 124.733 276.632 125.687 276.632 126.9V301.1C276.632 302.313 276.285 303.267 275.592 303.96C274.899 304.653 273.945 305 272.732 305H231.652C230.439 305 229.485 304.653 228.792 303.96C228.099 303.267 227.752 302.313 227.752 301.1V235.84C227.752 234.8 227.232 234.28 226.192 234.28H200.192C199.152 234.28 198.632 234.8 198.632 235.84V301.1C198.632 302.313 198.285 303.267 197.592 303.96C196.899 304.653 195.945 305 194.732 305H153.652C152.439 305 151.485 304.653 150.792 303.96C150.099 303.267 149.752 302.313 149.752 301.1V126.9C149.752 125.687 150.099 124.733 150.792 124.04C151.485 123.347 152.439 123 153.652 123H194.732C195.945 123 196.899 123.347 197.592 124.04C198.285 124.733 198.632 125.687 198.632 126.9V190.86C198.632 191.9 199.152 192.42 200.192 192.42H226.192C227.232 192.42 227.752 191.9 227.752 190.86V126.9ZM296.347 305C295.134 305 294.181 304.653 293.487 303.96C292.794 303.267 292.447 302.313 292.447 301.1V126.9C292.447 125.687 292.794 124.733 293.487 124.04C294.181 123.347 295.134 123 296.347 123H337.427C338.641 123 339.594 123.347 340.287 124.04C340.981 124.733 341.327 125.687 341.327 126.9V301.1C341.327 302.313 340.981 303.267 340.287 303.96C339.594 304.653 338.641 305 337.427 305H296.347ZM459.089 125.6C459.956 123.867 461.516 123 463.769 123H504.329C505.542 123 506.496 123.347 507.189 124.04C507.882 124.733 508.229 125.687 508.229 126.9V301.1C508.229 302.313 507.882 303.267 507.189 303.96C506.496 304.653 505.542 305 504.329 305H463.249C462.036 305 461.082 304.653 460.389 303.96C459.696 303.267 459.349 302.313 459.349 301.1V201.26C459.349 200.567 459.089 200.133 458.569 199.96C458.222 199.787 457.876 200.047 457.529 200.74L440.889 228.3C439.849 230.033 438.289 230.9 436.209 230.9H429.449C427.369 230.9 425.809 230.033 424.769 228.3L408.129 200.48C407.782 199.787 407.349 199.527 406.829 199.7C406.482 199.873 406.309 200.307 406.309 201V301.1C406.309 302.313 405.962 303.267 405.269 303.96C404.576 304.653 403.622 305 402.409 305H361.329C360.116 305 359.162 304.653 358.469 303.96C357.776 303.267 357.429 302.313 357.429 301.1V126.9C357.429 125.687 357.776 124.733 358.469 124.04C359.162 123.347 360.116 123 361.329 123H401.889C403.969 123 405.529 123.867 406.569 125.6L432.049 168.76C432.396 169.28 432.742 169.54 433.089 169.54C433.609 169.54 433.956 169.28 434.129 168.76L459.089 125.6ZM594.978 123C606.418 123 616.471 125.513 625.138 130.54C633.804 135.393 640.564 142.327 645.418 151.34C650.271 160.18 652.698 170.407 652.698 182.02C652.698 193.46 650.271 203.513 645.418 212.18C640.738 220.673 633.978 227.347 625.138 232.2C616.471 236.88 606.504 239.22 595.238 239.22H574.178C573.138 239.22 572.618 239.74 572.618 240.78V301.1C572.618 302.313 572.271 303.267 571.578 303.96C570.884 304.653 569.931 305 568.718 305H527.638C526.424 305 525.471 304.653 524.778 303.96C524.084 303.267 523.738 302.313 523.738 301.1V126.9C523.738 125.687 524.084 124.733 524.778 124.04C525.471 123.347 526.424 123 527.638 123H594.978ZM586.658 201C591.858 201 596.018 199.44 599.138 196.32C602.258 193.027 603.818 188.607 603.818 183.06C603.818 177.34 602.258 172.92 599.138 169.8C596.018 166.507 591.858 164.86 586.658 164.86H574.178C573.138 164.86 572.618 165.38 572.618 166.42V199.44C572.618 200.48 573.138 201 574.178 201H586.658Z" fill="url(#paint0_linear_877_810)"/>
<path d="M12.864 521C11.6133 521 10.6307 520.643 9.916 519.928C9.20133 519.213 8.844 518.231 8.844 516.98V337.42C8.844 336.169 9.20133 335.187 9.916 334.472C10.6307 333.757 11.6133 333.4 12.864 333.4H55.208C56.4587 333.4 57.4413 333.757 58.156 334.472C58.8707 335.187 59.228 336.169 59.228 337.42V516.98C59.228 518.231 58.8707 519.213 58.156 519.928C57.4413 520.643 56.4587 521 55.208 521H12.864ZM205.537 333.4C206.788 333.4 207.77 333.757 208.485 334.472C209.2 335.187 209.557 336.169 209.557 337.42V372.528C209.557 373.779 209.2 374.761 208.485 375.476C207.77 376.191 206.788 376.548 205.537 376.548H167.481C166.409 376.548 165.873 377.084 165.873 378.156V516.98C165.873 518.231 165.516 519.213 164.801 519.928C164.086 520.643 163.104 521 161.853 521H119.509C118.258 521 117.276 520.643 116.561 519.928C115.846 519.213 115.489 518.231 115.489 516.98V378.156C115.489 377.084 114.953 376.548 113.881 376.548H76.6292C75.3785 376.548 74.3958 376.191 73.6812 375.476C72.9665 374.761 72.6092 373.779 72.6092 372.528V337.42C72.6092 336.169 72.9665 335.187 73.6812 334.472C74.3958 333.757 75.3785 333.4 76.6292 333.4H205.537ZM341.7 523.144C328.657 523.144 317.133 520.553 307.128 515.372C297.301 510.191 289.619 502.865 284.08 493.396C278.72 483.927 276.04 472.939 276.04 460.432V337.42C276.04 336.169 276.397 335.187 277.112 334.472C277.827 333.757 278.809 333.4 280.06 333.4H322.404C323.655 333.4 324.637 333.757 325.352 334.472C326.067 335.187 326.424 336.169 326.424 337.42V462.844C326.424 468.025 327.764 472.224 330.444 475.44C333.303 478.477 337.055 479.996 341.7 479.996C346.167 479.996 349.829 478.477 352.688 475.44C355.547 472.224 356.976 468.025 356.976 462.844V337.42C356.976 336.169 357.333 335.187 358.048 334.472C358.763 333.757 359.745 333.4 360.996 333.4H403.34C404.591 333.4 405.573 333.757 406.288 334.472C407.003 335.187 407.36 336.169 407.36 337.42V460.432C407.36 472.939 404.591 483.927 399.052 493.396C393.692 502.865 386.009 510.191 376.004 515.372C366.177 520.553 354.743 523.144 341.7 523.144ZM496.558 333.4C508.35 333.4 518.713 335.991 527.646 341.172C536.579 346.175 543.547 353.321 548.55 362.612C553.553 371.724 556.054 382.265 556.054 394.236C556.054 406.028 553.553 416.391 548.55 425.324C543.726 434.079 536.758 440.957 527.646 445.96C518.713 450.784 508.439 453.196 496.826 453.196H475.118C474.046 453.196 473.51 453.732 473.51 454.804V516.98C473.51 518.231 473.153 519.213 472.438 519.928C471.723 520.643 470.741 521 469.49 521H427.146C425.895 521 424.913 520.643 424.198 519.928C423.483 519.213 423.126 518.231 423.126 516.98V337.42C423.126 336.169 423.483 335.187 424.198 334.472C424.913 333.757 425.895 333.4 427.146 333.4H496.558ZM487.982 413.8C493.342 413.8 497.63 412.192 500.846 408.976C504.062 405.581 505.67 401.025 505.67 395.308C505.67 389.412 504.062 384.856 500.846 381.64C497.63 378.245 493.342 376.548 487.982 376.548H475.118C474.046 376.548 473.51 377.084 473.51 378.156V412.192C473.51 413.264 474.046 413.8 475.118 413.8H487.982ZM588.218 454.536C586.967 454.536 585.895 454.179 585.002 453.464C584.287 452.749 583.93 451.767 583.93 450.516L579.106 337.42C579.106 334.74 580.357 333.4 582.858 333.4H625.202C627.703 333.4 628.954 334.74 628.954 337.42L624.13 450.516C624.13 451.767 623.683 452.749 622.79 453.464C622.075 454.179 621.093 454.536 619.842 454.536H588.218ZM603.226 521C595.901 521 589.826 518.677 585.002 514.032C580.357 509.208 578.034 503.133 578.034 495.808C578.034 488.304 580.357 482.229 585.002 477.584C589.826 472.939 595.901 470.616 603.226 470.616C610.551 470.616 616.537 472.939 621.182 477.584C626.006 482.229 628.418 488.304 628.418 495.808C628.418 502.955 626.006 508.94 621.182 513.764C616.537 518.588 610.551 521 603.226 521Z" fill="url(#paint1_linear_877_810)"/>
<defs>
<linearGradient id="paint0_linear_877_810" x1="0" y1="201" x2="657" y2="201" gradientUnits="userSpaceOnUse">
<stop stop-color="#0C0C0C"/>
<stop offset="1" stop-color="#1E1B13"/>
</linearGradient>
<linearGradient id="paint1_linear_877_810" x1="0" y1="413.5" x2="649" y2="413.5" gradientUnits="userSpaceOnUse">
<stop stop-color="#0C0C0C"/>
<stop offset="1" stop-color="#1E1B13"/>
</linearGradient>
</defs>
</svg>
