<?xml version="1.0" encoding="utf-8"?>
<!-- Generator: Adobe Illustrator 27.5.0, SVG Export Plug-In . SVG Version: 6.00 Build 0)  -->
<svg version="1.1" xmlns="http://www.w3.org/2000/svg" xmlns:xlink="http://www.w3.org/1999/xlink" x="0px" y="0px"
	 viewBox="0 0 750 500" style="enable-background:new 0 0 750 500;" xml:space="preserve">
<g id="BACKGROUND">
	<rect x="0" y="0" style="fill:#D1E59F;" width="749.999" height="500"/>
</g>
<g id="OBJECTS">
	<g>
		<defs>
			<rect id="SVGID_1_" x="0" y="0" width="749.999" height="500"/>
		</defs>
		<clipPath id="SVGID_00000018957323006423401080000003612222054720095657_">
			<use xlink:href="#SVGID_1_"  style="overflow:visible;"/>
		</clipPath>
		<polyline style="clip-path:url(#SVGID_00000018957323006423401080000003612222054720095657_);fill:#DFF3BD;" points="
			768.119,195.75 -18.011,93.852 -18.011,67.99 763.13,177.55 772.983,116.78 778.248,84.304 32.789,-50.068 789.068,-50.068 
			795.719,101.49 		"/>
		<polygon style="clip-path:url(#SVGID_00000018957323006423401080000003612222054720095657_);fill:#DFF3BD;" points="0,198.168 
			749.999,220.04 749.999,337.589 0,340.515 		"/>
		<path style="clip-path:url(#SVGID_00000018957323006423401080000003612222054720095657_);fill:#A9CD71;" d="M-0.001,56.657
			c0,0,17.907,19.135,42.847,0C51.825,112.811,91.73,79.89,91.73,79.89s79,52.542,116.722-26.423
			c13.227,15.525,34.836-2.788,15.283-14.037c33.6,12.526,121.391,17.514,134.36-55.312c12.969-72.827-385.083-6.651-385.083-6.651"
			/>
		<g style="clip-path:url(#SVGID_00000018957323006423401080000003612222054720095657_);">
			<rect x="51.825" y="-4.908" style="fill:#A9CD71;" width="18.955" height="362.137"/>
			<polygon style="fill:#A9CD71;" points="91.73,-11.892 107.692,337.589 126.646,332.314 100.708,-4.908 126.646,-11.892 
				135.625,322.722 146.599,322.722 146.599,-15.882 188.499,-15.882 174.532,339.477 181.773,337.589 201.468,-9.896 
				320.259,-10.894 326.471,332.314 347.194,329.464 329.66,-8.899 551.067,-15.882 535.681,311.795 551.067,311.795 
				563.67,-15.882 645.411,-15.882 655.387,313.825 675.339,311.795 655.387,-9.896 685.315,-15.882 693.796,305.705 
				709.182,305.705 698.284,-10.894 			"/>
			<path style="fill:#A9CD71;" d="M0,221.955c0,0,25.887-9.224,38.856,19.129c32.921-23.523,56.363,21.152,56.363,21.152
				s28.215-45.242,59.717-26.09c24.505-21.542,52.518-1.983,47.53,22.139c34.382-33.628,101.644-17.357,105.193,9.867
				c34.868-28.767,50.747,16.942,50.747,16.942s4.273-28.237,35.604-28.604c4.73-31.507,48.099-30.699,51.926-6.491
				c22.895-18.471,79.114-7.47,79.76,27.635c0.646,35.106-156.627,88.687-156.627,88.687l-387.08-34.009"/>
		</g>
		<polygon style="clip-path:url(#SVGID_00000018957323006423401080000003612222054720095657_);fill:#98B642;" points="
			28.879,-15.882 17.906,352.241 32.87,352.241 36.853,-15.882 80.756,-22.533 91.73,357.229 117.668,357.229 96.718,-27.854 
			173.535,-27.854 165.554,329.464 174.926,329.464 181.773,-31.844 248.357,-27.854 231.397,344.26 272.299,345.258 
			272.299,-27.854 513.724,-22.533 476.919,339.477 492.306,329.464 520.295,-22.533 600.518,-26.856 600.518,337.589 
			622.431,329.464 613.487,-27.854 637.817,-31.844 637.817,316.676 643.033,313.719 643.033,-26.962 716.242,-22.533 
			724.568,313.825 736.194,313.825 736.194,-22.533 		"/>
		<polyline style="clip-path:url(#SVGID_00000018957323006423401080000003612222054720095657_);fill:#98B642;" points="
			32.789,85.497 -18.011,47.462 -14.021,40.995 32.789,69.132 		"/>
		<polyline style="clip-path:url(#SVGID_00000018957323006423401080000003612222054720095657_);fill:#98B642;" points="
			730.208,67.371 763.13,53.163 763.13,47.462 730.208,56.657 		"/>
		<polyline style="clip-path:url(#SVGID_00000018957323006423401080000003612222054720095657_);fill:#98B642;" points="
			501.6,183.204 520.708,162.693 519.41,160.003 501.6,174.533 		"/>
		
			<circle style="clip-path:url(#SVGID_00000018957323006423401080000003612222054720095657_);fill:#98B642;" cx="465.799" cy="2.48" r="39.866"/>
		
			<circle style="clip-path:url(#SVGID_00000018957323006423401080000003612222054720095657_);fill:#98B642;" cx="731.629" cy="-4.908" r="39.866"/>
		<polyline style="clip-path:url(#SVGID_00000018957323006423401080000003612222054720095657_);fill:#98B642;" points="
			479.805,19.705 505.665,65.611 506.028,53.163 485.789,19.705 		"/>
		<polyline style="clip-path:url(#SVGID_00000018957323006423401080000003612222054720095657_);fill:#98B642;" points="
			263.321,78.56 320.185,58.599 320.185,53.467 263.321,65.611 		"/>
		<polyline style="clip-path:url(#SVGID_00000018957323006423401080000003612222054720095657_);fill:#98B642;" points="
			249.354,132.431 218.428,123.666 218.428,132.431 249.354,142.425 		"/>
		
			<ellipse transform="matrix(0.2298 -0.9732 0.9732 0.2298 201.1956 360.5471)" style="clip-path:url(#SVGID_00000018957323006423401080000003612222054720095657_);fill:#98B642;" cx="328.383" cy="53.163" rx="22.461" ry="22.461"/>
		
			<circle style="clip-path:url(#SVGID_00000018957323006423401080000003612222054720095657_);fill:#98B642;" cx="213.312" cy="122.122" r="18.29"/>
		
			<ellipse transform="matrix(0.1602 -0.9871 0.9871 0.1602 193.3604 361.9428)" style="clip-path:url(#SVGID_00000018957323006423401080000003612222054720095657_);fill:#98B642;" cx="309.387" cy="67.338" rx="9.232" ry="9.232"/>
		<polyline style="clip-path:url(#SVGID_00000018957323006423401080000003612222054720095657_);fill:#98B642;" points="
			290.257,-10.894 278.249,327.52 288.26,329.24 294.371,-10.894 		"/>
		<polygon style="clip-path:url(#SVGID_00000018957323006423401080000003612222054720095657_);fill:#98B642;" points="0,500 
			0,322.722 750,287.858 750,500 		"/>
		<polygon style="clip-path:url(#SVGID_00000018957323006423401080000003612222054720095657_);fill:#FBE02F;" points="0,322.722 
			750,287.858 749.999,300.859 -0.001,323.24 		"/>
		<polygon style="opacity:0.2;clip-path:url(#SVGID_00000018957323006423401080000003612222054720095657_);fill:#3B4636;" points="
			749.999,337.589 473.154,334.04 750,318.88 		"/>
		<g style="clip-path:url(#SVGID_00000018957323006423401080000003612222054720095657_);">
			<path style="fill:#87A523;" d="M389.298,304.625c0,0-5.264-22.558,24.664-17.899c-14.684-22.685,18.004-36.727,27.933-21.082
				c20.685-13.725,36.578,3.697,27.534,20.781c27.47-14.744,35.615,2.423,35.615,2.423s8.81-55.948,58.626-42.169
				c7.916-45.081,87.41-40.779,83.079,10.942c26.595-19.11,46.195,15.754,46.195,15.754s10.005-52.819,57.055-39.851
				c0,25.937,0.001,54.333,0.001,54.333L389.298,304.625z"/>
			<path style="fill:#87A523;" d="M0,275.086c0,0,34.865,2.144,43.844,28.176c19.952-18.86,37.406,8.532,37.406,8.532
				s27.556-44.514,65.349-32.465c8.979-31.839,61.853-18.94,58.86,14.016c21.948-10.939,18.276,9.916,18.276,9.916
				s48.563-25.885,64.526,6.06C232.872,311.897,0,322.722,0,322.722V275.086z"/>
			<g style="opacity:0.2;">
				<g>
					<path style="fill:#3B4636;" d="M15.395,295.849c0,1.039-0.842,1.881-1.881,1.881s-1.881-0.842-1.881-1.881
						s0.842-1.881,1.881-1.881S15.395,294.81,15.395,295.849z"/>
					<path style="fill:#3B4636;" d="M24.971,295.849c0,1.039-0.842,1.881-1.881,1.881s-1.881-0.842-1.881-1.881
						s0.842-1.881,1.881-1.881S24.971,294.81,24.971,295.849z"/>
					<path style="fill:#3B4636;" d="M23.09,307.563c0,0.897-0.727,1.625-1.625,1.625c-0.897,0-1.625-0.727-1.625-1.625
						c0-0.897,0.727-1.624,1.625-1.624C22.363,305.939,23.09,306.666,23.09,307.563z"/>
				</g>
				<path style="fill:#3B4636;" d="M11.633,313.121c0,0.944-0.766,1.71-1.71,1.71c-0.944,0-1.71-0.766-1.71-1.71
					c0-0.944,0.766-1.71,1.71-1.71C10.867,311.411,11.633,312.177,11.633,313.121z"/>
				<path style="fill:#3B4636;" d="M168.958,273.277c0,0.85-0.689,1.539-1.539,1.539c-0.85,0-1.539-0.689-1.539-1.539
					c0-0.85,0.689-1.539,1.539-1.539C168.269,271.738,168.958,272.427,168.958,273.277z"/>
				<path style="fill:#3B4636;" d="M201.767,306.098c0,0.85-0.689,1.539-1.539,1.539c-0.85,0-1.539-0.689-1.539-1.539
					s0.689-1.539,1.539-1.539C201.078,304.559,201.767,305.248,201.767,306.098z"/>
				<path style="fill:#3B4636;" d="M160.745,289.385c0,2.365-1.917,4.282-4.282,4.282c-2.365,0-4.282-1.917-4.282-4.282
					c0-2.365,1.917-4.282,4.282-4.282C158.828,285.104,160.745,287.021,160.745,289.385z"/>
				<path style="fill:#3B4636;" d="M189.755,301.013c0,1.965-1.593,3.558-3.558,3.558c-1.965,0-3.558-1.593-3.558-3.558
					c0-1.965,1.593-3.558,3.558-3.558C188.162,297.455,189.755,299.048,189.755,301.013z"/>
				<path style="fill:#3B4636;" d="M438.466,270.539c0,0.662-0.536,1.198-1.198,1.198s-1.198-0.536-1.198-1.198
					c0-0.662,0.536-1.198,1.198-1.198S438.466,269.878,438.466,270.539z"/>
				<circle style="fill:#3B4636;" cx="429.913" cy="282.682" r="5.643"/>
				<path style="fill:#3B4636;" d="M458.642,277.039c0,1.228-0.995,2.223-2.223,2.223c-1.228,0-2.223-0.995-2.223-2.223
					c0-1.228,0.995-2.223,2.223-2.223C457.647,274.816,458.642,275.811,458.642,277.039z"/>
				<circle style="fill:#3B4636;" cx="447.858" cy="289.385" r="1.528"/>
				<circle style="fill:#3B4636;" cx="646.749" cy="273.963" r="1.528"/>
				<circle style="fill:#3B4636;" cx="730.101" cy="265.37" r="1.528"/>
				<circle style="fill:#3B4636;" cx="138.462" cy="304.571" r="1.528"/>
				<path style="fill:#3B4636;" d="M419.995,272.422c0,0.378-0.306,0.684-0.684,0.684c-0.378,0-0.684-0.306-0.684-0.684
					s0.306-0.684,0.684-0.684C419.689,271.738,419.995,272.044,419.995,272.422z"/>
				<path style="fill:#3B4636;" d="M587.939,258.286c0,3.913-3.172,7.085-7.085,7.085s-7.085-3.172-7.085-7.085
					c0-3.913,3.172-7.085,7.085-7.085S587.939,254.373,587.939,258.286z"/>
				<path style="fill:#3B4636;" d="M584.203,244.341c0,0.925-0.75,1.674-1.674,1.674s-1.674-0.75-1.674-1.674
					c0-0.925,0.75-1.674,1.674-1.674S584.203,243.416,584.203,244.341z"/>
				<circle style="fill:#3B4636;" cx="581.112" cy="280.943" r="2.423"/>
				<path style="fill:#3B4636;" d="M568.261,270.656c0,1.826-1.481,3.307-3.307,3.307c-1.826,0-3.307-1.481-3.307-3.307
					c0-1.826,1.481-3.307,3.307-3.307C566.781,267.349,568.261,268.829,568.261,270.656z"/>
				<path style="fill:#3B4636;" d="M741.134,250c0,1.826-1.481,3.307-3.307,3.307c-1.826,0-3.307-1.481-3.307-3.307
					s1.481-3.307,3.307-3.307C739.653,246.693,741.134,248.174,741.134,250z"/>
				<circle style="fill:#3B4636;" cx="521.508" cy="275.471" r="3.049"/>
			</g>
		</g>
		<g style="clip-path:url(#SVGID_00000018957323006423401080000003612222054720095657_);">
			<polygon style="fill:#7CA334;" points="0,347.253 749.999,372.154 750,500 0,500 			"/>
			<path style="fill:#BFC932;" d="M381.664,411.648l9.438,0.079c0,0,9.766-11.281,5.893-14.664
				c-3.873-3.383-6.938,11.666-6.938,11.666s1.65-18.531-7.317-17.592C373.772,392.076,381.664,411.648,381.664,411.648z"/>
			<path style="fill:#BFC932;" d="M483.796,382.411l-15.519-1.017c0,0-4.212-10.641,0-11.528c4.212-0.887,4.877,9.754,4.877,9.754
				s-0.887-14.853,4.656-13.745c5.542,1.108,0.222,12.542,0.222,12.542s3.991-3.009,6.651-1.679
				C487.343,378.068,483.796,382.411,483.796,382.411z"/>
			<path style="fill:#BFC932;" d="M189.755,358.337h-9.902c0,0-9.09-11.528-2.882-13.967c6.207-2.439,5.667,11.971,5.667,11.971
				s-0.569-19.751,5.417-18.411C194.042,339.272,189.755,358.337,189.755,358.337z"/>
			<polygon style="opacity:0.2;fill:#3B4636;" points="0,363.231 400.456,384.047 0,383.845 			"/>
		</g>
		<polygon style="clip-path:url(#SVGID_00000018957323006423401080000003612222054720095657_);fill:#50772B;" points="243.368,500 
			278.249,469.336 750,411.067 750,500 		"/>
		<g style="clip-path:url(#SVGID_00000018957323006423401080000003612222054720095657_);">
			<g>
				<path style="fill:#BFC932;" d="M0,500l-0.001-81.734c0,0,23.731-5.538,32.79,13.102
					c19.494-34.386,111.815-22.194,108.822,32.142c23.202-13.468,40.162,10.165,40.162,10.165s0-39.419,41.962-27.265
					c6.665-89.181,141.272-58.122,125.886,53.59C204.965,500,0,500,0,500z"/>
				<path style="fill:#BFC932;" d="M345.86,505.857c0,0,6.253-28.24,14.957-27.515s-6.978,27.515-6.978,27.515
					s13.418-20.174,19.583-17.493c6.165,2.682-13.781,17.493-13.781,17.493"/>
				<path style="opacity:0.2;fill:#3B4636;" d="M213.312,513.575c0,0-10.437-40.553,18.29-50.064
					c28.726-9.512,49.677,24.408,31.719,51.343"/>
				<path style="fill:#BFC932;" d="M231.599,458.13c0,0-40.03-2.9-32.59-64.87c4.9,2.47,9.12,5.21,12.73,8.14l-1.48,6.08l4.48-3.51
					c3.03,2.8,5.58,5.73,7.71,8.71l-5.37,5.59l7.86-1.76C236.939,436.77,231.599,458.13,231.599,458.13z"/>
				<path style="fill:#BFC932;" d="M219.159,445.39c0,0-18.51,12.71-39.25-9.96l3.09-6.4l-6.6,2.24c-1.89-2.4-3.78-5.11-5.67-8.17
					C205.619,415.76,219.159,445.39,219.159,445.39z"/>
				<g>
					<circle style="fill:#FBE02F;" cx="242.273" cy="441.757" r="6.551"/>
					<path style="fill:#FBE02F;" d="M265.697,425.207c0,1.809-1.466,3.275-3.275,3.275s-3.275-1.466-3.275-3.275
						s1.466-3.276,3.275-3.276S265.697,423.398,265.697,425.207z"/>
					<circle style="fill:#FBE02F;" cx="295.959" cy="419.874" r="4.206"/>
					<path style="fill:#FBE02F;" d="M314.393,444.382c0,2.339-1.896,4.235-4.236,4.235c-2.339,0-4.235-1.896-4.235-4.235
						c0-2.339,1.896-4.235,4.235-4.235C312.496,440.146,314.393,442.043,314.393,444.382z"/>
					<circle style="fill:#FBE02F;" cx="277.729" cy="458.029" r="5.482"/>
				</g>
				<path style="opacity:0.2;fill:#3B4636;" d="M0,500v-36.49c0,0,19.375-4.013,22.475,18.245
					c13.951-7.194,13.951,6.757,13.951,6.757s20.926-38.208,62.779-22.592c8.526-19.261,43.403,0.89,40.303,20.267
					c11.626-5.425,16.276,3.875,16.276,3.875s21.121-11.901,39.238,9.938C153.459,500,0,500,0,500z"/>
				<path style="fill:#BFC932;" d="M507.691,500c0,0-14.9-38.206,25.994-42.104c-25.947-50.786,30.259-63.307,39.567-35.099
					c19.284-35.639,64.586-18.809,53.907,20.163c29.225-14.9,55.132,15.077,55.132,15.077s9.685-65.41,67.708-62.658
					C749.999,426.065,750,500,750,500H507.691z"/>
				<path style="opacity:0.2;fill:#3B4636;" d="M528.815,505.857c0,0,11.845-29.914,37.453-32.181c7.313-19.075,16.26,0,16.26,0
					s40.463-46.725,67.892,6.163c21.926-15.863,49.859-0.775,49.859-0.775s13.967-59.515,61.354-51.341
					c-0.499,81.146-0.499,81.146-0.499,81.146L540.66,524.935"/>
				<circle style="fill:#FBE02F;" cx="16.806" cy="440.069" r="2.891"/>
				<circle style="fill:#FBE02F;" cx="315.953" cy="477.503" r="1.56"/>
				<circle style="fill:#FBE02F;" cx="542.781" cy="432.135" r="2.121"/>
				<path style="fill:#FBE02F;" d="M558.896,426.452c0,0.903-0.732,1.635-1.635,1.635c-0.903,0-1.636-0.732-1.636-1.635
					c0-0.903,0.732-1.635,1.636-1.635C558.163,424.817,558.896,425.549,558.896,426.452z"/>
				<circle style="fill:#FBE02F;" cx="553.346" cy="452.321" r="2.279"/>
				<path style="fill:#FBE02F;" d="M528.815,477.503c0,0.862-0.698,1.56-1.56,1.56c-0.862,0-1.56-0.698-1.56-1.56
					c0-0.861,0.698-1.56,1.56-1.56C528.117,475.943,528.815,476.641,528.815,477.503z"/>
				<circle style="fill:#FBE02F;" cx="587.085" cy="432.812" r="1.444"/>
				<path style="fill:#FBE02F;" d="M739.459,412.699c0,0.902-0.731,1.633-1.633,1.633c-0.902,0-1.633-0.731-1.633-1.633
					s0.731-1.633,1.633-1.633C738.728,411.067,739.459,411.797,739.459,412.699z"/>
			</g>
			<g>
				<g>
					<polygon style="fill:#3B4636;" points="640.319,461.33 643.939,524.94 626.249,529.43 600.039,536.08 598.739,465.92 
						598.469,450.93 597.359,391.28 597.139,379.25 596.259,331.52 596.129,324.44 595.359,282.87 595.279,278.52 594.869,256.12 
						594.619,242.48 593.609,187.94 593.359,174.6 592.009,101.49 591.849,92.68 591.539,75.91 591.389,67.99 591.249,60.32 
						485.789,-4.91 495.769,-10.76 590.879,40.32 589.089,-56.78 607.569,-58.31 646.749,-61.55 611.489,-45.81 617.999,68.64 
						618.189,72.07 619.239,90.57 619.739,99.29 623.989,174.04 624.959,191.13 627.509,235.91 627.789,240.86 632.979,332.11 
						633.089,334.04 635.369,374.27 636.009,385.47 638.829,435 					"/>
					<polygon style="fill:#3B4636;" points="768.119,103.83 709.879,129.36 713.199,183.09 714.219,199.47 721.069,310.24 
						721.999,325.19 726.089,391.28 727.039,406.66 734.719,530.82 681.329,532.36 665.809,532.81 664.389,444.72 664.099,426.14 
						663.779,406.25 663.539,391.28 662.509,327.52 662.299,314.13 662.149,304.76 661.819,284.51 660.349,192.81 660.099,177.55 
						658.619,84.99 658.369,69.55 657.969,44.84 657.799,34.21 656.249,-62.33 689.059,-65.04 697.809,-65.76 703.839,31.73 
						704.529,42.9 706.289,71.28 706.549,75.54 708.289,103.67 768.119,84.3 					"/>
					<path style="opacity:0.2;fill:#3B4636;" d="M704.529,42.9l-46.56,1.94l-0.17-10.63c13.45-0.92,31.91-1.84,46.04-2.48
						L704.529,42.9z"/>
					<polygon style="opacity:0.2;fill:#3B4636;" points="706.549,75.54 658.619,84.99 658.369,69.55 706.289,71.28 					"/>
					<polygon style="opacity:0.2;fill:#3B4636;" points="714.219,199.47 660.349,192.81 660.099,177.55 713.199,183.09 					"/>
					<polygon style="opacity:0.2;fill:#3B4636;" points="727.039,406.66 663.779,406.25 663.539,391.28 726.089,391.28 					"/>
					<polygon style="opacity:0.2;fill:#3B4636;" points="709.179,433.33 664.389,444.72 664.099,426.14 					"/>
					<polygon style="opacity:0.2;fill:#3B4636;" points="704.269,280.69 662.149,304.76 661.819,284.51 					"/>
					<polygon style="opacity:0.2;fill:#3B4636;" points="721.999,325.19 662.509,327.52 662.299,314.13 721.069,310.24 					"/>
					<polygon style="opacity:0.2;fill:#3B4636;" points="768.119,103.83 709.879,129.36 734.719,530.82 681.329,532.36 
						689.059,-65.04 697.809,-65.76 708.289,103.67 768.119,84.3 					"/>
					<polygon style="opacity:0.2;fill:#3B4636;" points="611.489,-45.81 643.939,524.94 626.249,529.43 607.569,-58.31 
						646.749,-61.55 					"/>
				</g>
				<g>
					<polygon style="fill:#3B4636;" points="278.249,-10.76 123.649,97.11 123.649,500 47.839,500 52.569,390.39 53.039,379.53 
						54.789,339 55.189,329.55 58.139,261.27 58.779,246.48 62.019,171.38 62.299,164.82 63.099,146.29 -18.011,122.5 
						-18.011,107.11 64.029,124.63 66.789,60.75 67.329,48.06 68.279,26 68.719,15.81 70.779,-31.84 123.649,-31.84 123.649,77.86 
						267.309,-10.76 					"/>
					<polygon style="opacity:0.2;fill:#3B4636;" points="123.649,50.25 123.649,60.75 66.789,60.75 67.329,48.06 					"/>
					<polygon style="opacity:0.2;fill:#3B4636;" points="123.649,28.03 123.649,29.86 68.279,26 68.719,15.81 					"/>
					<polygon style="opacity:0.2;fill:#3B4636;" points="123.649,377.3 123.649,390.13 52.569,390.39 53.039,379.53 					"/>
					<polygon style="opacity:0.2;fill:#3B4636;" points="123.649,321.1 123.649,359.93 54.789,339 55.189,329.55 					"/>
					<polygon style="opacity:0.2;fill:#3B4636;" points="123.649,236.97 123.649,258.57 58.139,261.27 58.779,246.48 					"/>
					<polygon style="opacity:0.2;fill:#3B4636;" points="123.649,153.46 123.649,159.96 62.019,171.38 62.299,164.82 					"/>
					<polygon style="opacity:0.2;fill:#3B4636;" points="91.729,209.56 123.649,193.34 123.649,205.92 					"/>
					<polygon style="opacity:0.2;fill:#3B4636;" points="83.589,-31.84 79.969,500 47.839,500 63.099,146.29 -18.011,122.5 
						-18.011,107.11 64.029,124.63 70.779,-31.84 					"/>
				</g>
				<path style="opacity:0.2;fill:#3B4636;" d="M618.189,72.07c-8.32,1.23-18.06,2.64-26.65,3.84l-0.15-7.92l26.61,0.65
					L618.189,72.07z"/>
				<polygon style="opacity:0.2;fill:#3B4636;" points="595.279,278.52 627.159,282.87 595.359,282.87 				"/>
				<polygon style="opacity:0.2;fill:#3B4636;" points="636.009,385.47 597.359,391.28 597.139,379.25 635.369,374.27 				"/>
				<polygon style="opacity:0.2;fill:#3B4636;" points="619.739,99.29 592.009,101.49 591.849,92.68 619.239,90.57 				"/>
				<polygon style="opacity:0.2;fill:#3B4636;" points="633.089,334.04 596.259,331.52 596.129,324.44 632.979,332.11 				"/>
				<polygon style="opacity:0.2;fill:#3B4636;" points="627.789,240.86 594.869,256.12 594.619,242.48 627.509,235.91 				"/>
				<polygon style="opacity:0.2;fill:#3B4636;" points="624.959,191.13 593.609,187.94 593.359,174.6 623.989,174.04 				"/>
				<polygon style="opacity:0.2;fill:#3B4636;" points="640.319,461.33 598.739,465.92 598.469,450.93 638.829,435 				"/>
			</g>
		</g>
		<g style="clip-path:url(#SVGID_00000018957323006423401080000003612222054720095657_);">
			<path style="fill:#BFC932;" d="M497.447,450.883l6.403-8.462c-4.471-5.718-10.213-11.151-17.519-16.022l-6.133,7.857
				l1.625-10.671c-4.245-2.479-8.942-4.785-14.168-6.864c-3.392,15.493-4.166,28.56-3.142,39.588l12.124,3.699l-11.511,1.381
				c1.372,9.063,4.022,16.607,7.407,22.893l9.89-3.131l-6.935,8.045c14.868,22.225,39.004,25.657,39.004,25.657
				s12.342-35.122-5.992-65.664L497.447,450.883z"/>
			<path style="opacity:0.2;fill:#3B4636;" d="M479.975,441.757l30.937,64.099C510.912,505.857,502.009,470.023,479.975,441.757z"/>
		</g>
		<g style="clip-path:url(#SVGID_00000018957323006423401080000003612222054720095657_);">
			<path style="fill:#BFC932;" d="M460.686,480.667l1.626-7.779c-4.858-2.44-10.485-4.28-16.99-5.238l-1.637,7.283l-2.316-7.745
				c-3.667-0.319-7.586-0.377-11.79-0.111c2.664,11.575,6.323,20.67,10.547,27.808l9.392-1.378l-7.351,4.62
				c3.831,5.696,8.04,9.956,12.344,13.128l5.694-5.286l-2.119,7.667c17.181,10.287,34.621,4.883,34.621,4.883
				s-2.889-27.73-25.08-42.538L460.686,480.667z"/>
			<path style="opacity:0.2;fill:#3B4636;" d="M445.936,480.082l41.467,33.492C487.403,513.575,469.903,492.165,445.936,480.082z"/>
		</g>
		<g style="clip-path:url(#SVGID_00000018957323006423401080000003612222054720095657_);">
			<path style="fill:#3B4636;" d="M431.966,317.073l-26.677,1.807c0,0,5.13-9.521,15.391-9.521
				C430.939,309.359,431.966,317.073,431.966,317.073z"/>
			<path style="fill:#3B4636;" d="M250.699,345.954l67.034,1.299C317.733,347.253,267.458,322.722,250.699,345.954z"/>
			<g>
				<path style="fill:#3B4636;" d="M545.254,323.777l-41.089,2.433l-17.143,1.014l-11.967,0.71l-41.152,2.43
					c0,0,38.285-26.935,66.758-25.555c0.841,0.04,1.659,0.106,2.486,0.201c1.358,0.147,2.672,0.333,3.963,0.532
					c5.388,0.847,10.18,2.133,14.395,3.639C537.592,314.905,545.254,323.777,545.254,323.777z"/>
				<path style="opacity:0.2;fill:#3B4636;" d="M507.109,305.541l-20.087,21.683l-11.967,0.71l25.605-23.125
					c0.841,0.04,1.659,0.106,2.486,0.201C504.504,305.156,505.818,305.342,507.109,305.541z"/>
				<path style="opacity:0.2;fill:#3B4636;" d="M545.254,323.777l-41.089,2.433l17.339-17.031
					C537.592,314.905,545.254,323.777,545.254,323.777z"/>
			</g>
			<path style="fill:#3B4636;" d="M569.47,386.405l-28.81-1.447c0,0,8.133-6.966,18.549-6.521S569.47,386.405,569.47,386.405z"/>
			<path style="fill:#3B4636;" d="M527.256,394.571l-12.894-0.642c0,0,4.629-5.499,9.259-4.92
				C528.25,389.588,527.256,394.571,527.256,394.571z"/>
			<path style="fill:#3B4636;" d="M151.244,340.515h-16.203c0,0,3.422-4.665,8.8-5.139
				C149.219,334.903,151.244,340.515,151.244,340.515z"/>
		</g>
		<g style="clip-path:url(#SVGID_00000018957323006423401080000003612222054720095657_);">
			<g>
				<path style="fill:#3B4636;" d="M148.687,99.085c-15.722,0-31.266-4.091-46.434-12.247c-17.78-9.561-35.06-24.702-51.358-45.003
					C23.277,7.434,7.759-30.527,7.605-30.907l4.635-1.875c0.151,0.374,15.438,37.74,42.621,71.57
					C70.732,58.54,87.489,73.233,104.668,82.46c21.276,11.428,43.301,14.444,65.462,8.965c30.709-7.592,50.183-31.925,57.879-72.321
					c5.819-30.542,2.331-59.235,2.294-59.521l4.961-0.624c0.15,1.196,3.62,29.661-2.322,60.966
					c-7.964,41.955-29.27,68.357-61.613,76.354C163.757,98.151,156.2,99.085,148.687,99.085z"/>
				<path style="fill:#3B4636;" d="M-2.845,96.412c-6.951,0-14.083-0.354-21.392-1.065l0.483-4.977
					c32.277,3.139,60.987-0.823,85.335-11.772c19.438-8.741,36.184-21.947,49.771-39.248c23.24-29.593,29.271-61.35,29.33-61.667
					l4.919,0.899c-0.244,1.338-6.256,33.132-30.188,63.693c-14.086,17.988-31.467,31.725-51.66,40.83
					C44.117,91.958,21.786,96.412-2.845,96.412z"/>
				<path style="fill:#3B4636;" d="M580.1,101.148c-20.313,0-39.105-1.037-56.351-3.116c-50.698-6.111-87.996-21.151-110.858-44.702
					c-32.482-33.461-24.117-71.58-23.745-73.187l4.871,1.128l-2.435-0.564l2.436,0.561c-0.085,0.369-8.075,37.206,22.546,68.668
					c64.423,66.19,232.863,49.024,362.823,22.968l0.982,4.902C702.884,93.342,635.806,101.147,580.1,101.148z"/>
				<path style="fill:#3B4636;" d="M690.795,166.257c-23.49,0-49.345-11.42-76.855-33.946
					c-21.811-17.859-44.754-42.736-68.193-73.938c-39.828-53.02-67.716-106.757-67.993-107.294l4.442-2.294
					c0.275,0.533,28.001,53.949,67.588,106.637c36.278,48.285,90.19,105.835,141.011,105.835c0.018,0,0.031,0,0.049,0
					c31.355-0.023,58.579-22.046,80.914-65.457l4.446,2.287c-23.261,45.211-51.979,68.146-85.358,68.17
					C690.83,166.257,690.811,166.257,690.795,166.257z"/>
			</g>
			<g>
				<path style="fill:#3B4636;" d="M227.505,32.237c0,0,6.115-9.248,15.149-1.536C234.798,39.199,227.505,32.237,227.505,32.237z"/>
				<path style="fill:#3B4636;" d="M434.212,78.23c0,0,6.115-9.248,15.149-1.536C441.506,85.193,434.212,78.23,434.212,78.23z"/>
				<path style="fill:#3B4636;" d="M218.811,52.499c0,0,11.075-0.512,10.171,11.331C217.487,62.494,218.811,52.499,218.811,52.499z"
					/>
				<path style="fill:#3B4636;" d="M525.744,84.906c0,0,11.075-0.512,10.171,11.331C524.42,94.902,525.744,84.906,525.744,84.906z"
					/>
				<path style="fill:#3B4636;" d="M32.834,90.93c0,0,11.075-0.512,10.171,11.331C31.51,100.926,32.834,90.93,32.834,90.93z"/>
				<path style="fill:#3B4636;" d="M156.404,94.738c0,0,7.399,8.257-2.349,15.044C147.822,100.032,156.404,94.738,156.404,94.738z"
					/>
				<path style="fill:#3B4636;" d="M731.173,69.388c0,0,7.399,8.257-2.349,15.044C722.591,74.682,731.173,69.388,731.173,69.388z"/>
				<path style="fill:#3B4636;" d="M155.485,85.263c0,0,11.075-0.512,10.171,11.331C154.161,95.259,155.485,85.263,155.485,85.263z"
					/>
				<path style="fill:#3B4636;" d="M25.269,22.283c0,0,8.277-7.376,15.038,2.39C30.539,30.879,25.269,22.283,25.269,22.283z"/>
				<path style="fill:#3B4636;" d="M384.87,26.646c0,0,8.277-7.376,15.038,2.39C390.141,35.242,384.87,26.646,384.87,26.646z"/>
				<path style="fill:#3B4636;" d="M208.259,44.756c0,0,6.115-9.248,15.149-1.536C215.553,51.718,208.259,44.756,208.259,44.756z"/>
				<path style="fill:#3B4636;" d="M643.199,95.412c0,0,11.079,0.431,9.171,12.155C641.03,105.26,643.199,95.412,643.199,95.412z"/>
				<path style="fill:#3B4636;" d="M635.095,95.686c0,0,6.183,9.203-4.412,14.574C625.862,99.74,635.095,95.686,635.095,95.686z"/>
				<path style="fill:#3B4636;" d="M642.136,140.412c0,0,11.079,0.431,9.171,12.155C639.967,150.26,642.136,140.412,642.136,140.412
					z"/>
				<path style="fill:#3B4636;" d="M430.891,64.207c0,0-2.682-10.758,9.108-12.202C440.952,63.537,430.891,64.207,430.891,64.207z"
					/>
				<path style="fill:#3B4636;" d="M728.148,153.758c0,0-6.248-9.159,4.308-14.605C737.351,149.639,728.148,153.758,728.148,153.758
					z"/>
				<path style="fill:#3B4636;" d="M10.354,93.919c0,0-3.306-10.583,8.379-12.714C20.359,92.663,10.354,93.919,10.354,93.919z"/>
			</g>
		</g>
		<g style="clip-path:url(#SVGID_00000018957323006423401080000003612222054720095657_);">
			<path style="fill:#FFFFFF;" d="M444.227,172.06c0,0,8.67,0.768,9.556,9.249c7.981-7.037,15.367-4.625,15.367-4.625
				s-4.679-5.516-12.462-1.969C449.792,167.178,444.227,172.06,444.227,172.06z"/>
			<path style="fill:#FFFFFF;" d="M408.888,110.246c0,0,5.559-2.122,8.641,2.826c2.801-6.713,8.062-7.44,8.062-7.44
				s-4.526-1.991-8.249,2.518C410.848,105.58,408.888,110.246,408.888,110.246z"/>
			<path style="fill:#FFFFFF;" d="M425.933,189.012c0,0,5.949-0.058,7.121,5.652c4.958-5.322,10.145-4.175,10.145-4.175
				s-3.553-3.44-8.61-0.505C429.393,185.318,425.933,189.012,425.933,189.012z"/>
		</g>
	</g>
</g>
</svg>
