<svg width="114" height="255" viewBox="0 0 114 255" fill="none" xmlns="http://www.w3.org/2000/svg">
<path d="M11 15C8.82441 15 6.69767 15.6451 4.88873 16.8538C3.07979 18.0625 1.66989 19.7805 0.83733 21.7905C0.00476611 23.8005 -0.213071 26.0122 0.211367 28.146C0.635804 30.2798 1.68345 32.2398 3.22183 33.7782C4.76021 35.3165 6.72022 36.3642 8.85401 36.7886C10.9878 37.2131 13.1995 36.9952 15.2095 36.1627C17.2195 35.3301 18.9375 33.9202 20.1462 32.1113C21.3549 30.3023 22 28.1756 22 26C21.9969 23.0836 20.837 20.2875 18.7748 18.2252C16.7125 16.163 13.9164 15.0031 11 15ZM15.8294 24.0602L9.90635 29.9833C9.82776 30.0619 9.73444 30.1244 9.63172 30.1669C9.529 30.2095 9.41889 30.2314 9.3077 30.2314C9.1965 30.2314 9.08639 30.2095 8.98367 30.1669C8.88095 30.1244 8.78763 30.0619 8.70904 29.9833L6.17058 27.4448C6.01181 27.286 5.92261 27.0707 5.92261 26.8462C5.92261 26.6216 6.01181 26.4063 6.17058 26.2475C6.32935 26.0887 6.5447 25.9995 6.76923 25.9995C6.99377 25.9995 7.20912 26.0887 7.36789 26.2475L9.3077 28.1884L14.6321 22.8629C14.7107 22.7843 14.8041 22.7219 14.9068 22.6794C15.0095 22.6368 15.1196 22.6149 15.2308 22.6149C15.342 22.6149 15.452 22.6368 15.5548 22.6794C15.6575 22.7219 15.7508 22.7843 15.8294 22.8629C15.908 22.9415 15.9704 23.0348 16.0129 23.1375C16.0555 23.2403 16.0774 23.3504 16.0774 23.4615C16.0774 23.5727 16.0555 23.6828 16.0129 23.7855C15.9704 23.8882 15.908 23.9816 15.8294 24.0602Z" fill="#EEEEEE"/>
<path d="M11 34L11 93" stroke="#EEEEEE" stroke-width="2"/>
<path d="M40.6 31V23.07H38.143V21.315H45.033V23.07H42.615V31H40.6ZM47.3104 31.156C46.7991 31.156 46.3571 31.0737 45.9844 30.909C45.6118 30.7443 45.3258 30.5103 45.1264 30.207C44.9271 29.895 44.8274 29.5267 44.8274 29.102C44.8274 28.7033 44.9184 28.3523 45.1004 28.049C45.2824 27.737 45.5598 27.477 45.9324 27.269C46.3138 27.061 46.7861 26.9137 47.3494 26.827L49.5204 26.476V27.906L47.7004 28.231C47.4231 28.283 47.2108 28.374 47.0634 28.504C46.9161 28.6253 46.8424 28.803 46.8424 29.037C46.8424 29.2537 46.9248 29.4227 47.0894 29.544C47.2541 29.6653 47.4578 29.726 47.7004 29.726C48.0211 29.726 48.3028 29.6567 48.5454 29.518C48.7881 29.3793 48.9744 29.193 49.1044 28.959C49.2431 28.7163 49.3124 28.452 49.3124 28.166V26.32C49.3124 26.0513 49.2041 25.826 48.9874 25.644C48.7794 25.462 48.4934 25.371 48.1294 25.371C47.7828 25.371 47.4751 25.4663 47.2064 25.657C46.9464 25.8477 46.7558 26.099 46.6344 26.411L45.0744 25.67C45.2131 25.2713 45.4341 24.929 45.7374 24.643C46.0408 24.357 46.4048 24.136 46.8294 23.98C47.2541 23.824 47.7178 23.746 48.2204 23.746C48.8184 23.746 49.3471 23.8543 49.8064 24.071C50.2658 24.2877 50.6211 24.591 50.8724 24.981C51.1324 25.3623 51.2624 25.8087 51.2624 26.32V31H49.4424V29.856L49.8844 29.778C49.6764 30.09 49.4468 30.35 49.1954 30.558C48.9441 30.7573 48.6624 30.9047 48.3504 31C48.0384 31.104 47.6918 31.156 47.3104 31.156ZM55.4745 31.156C54.6945 31.156 54.0142 30.974 53.4335 30.61C52.8615 30.2373 52.4715 29.739 52.2635 29.115L53.6935 28.439C53.8755 28.8203 54.1225 29.1193 54.4345 29.336C54.7465 29.5527 55.0932 29.661 55.4745 29.661C55.7519 29.661 55.9642 29.6047 56.1115 29.492C56.2589 29.3793 56.3325 29.2233 56.3325 29.024C56.3325 28.92 56.3065 28.8333 56.2545 28.764C56.2025 28.686 56.1245 28.6167 56.0205 28.556C55.9165 28.4953 55.7865 28.4433 55.6305 28.4L54.4215 28.062C53.8409 27.8973 53.3945 27.633 53.0825 27.269C52.7705 26.8963 52.6145 26.4587 52.6145 25.956C52.6145 25.514 52.7272 25.1283 52.9525 24.799C53.1779 24.4697 53.4942 24.214 53.9015 24.032C54.3089 23.8413 54.7769 23.746 55.3055 23.746C55.9989 23.746 56.6055 23.9107 57.1255 24.24C57.6542 24.5607 58.0269 25.0157 58.2435 25.605L56.8005 26.281C56.6965 25.9863 56.5059 25.7523 56.2285 25.579C55.9599 25.397 55.6522 25.306 55.3055 25.306C55.0542 25.306 54.8549 25.358 54.7075 25.462C54.5689 25.566 54.4995 25.709 54.4995 25.891C54.4995 25.9863 54.5255 26.073 54.5775 26.151C54.6295 26.229 54.7119 26.2983 54.8245 26.359C54.9459 26.4197 55.0932 26.476 55.2665 26.528L56.3975 26.866C56.9869 27.0393 57.4375 27.3037 57.7495 27.659C58.0615 28.0057 58.2175 28.4347 58.2175 28.946C58.2175 29.388 58.1005 29.7737 57.8665 30.103C57.6412 30.4323 57.3249 30.6923 56.9175 30.883C56.5102 31.065 56.0292 31.156 55.4745 31.156ZM59.383 31V21.159H61.333V27.464L60.605 27.23L63.738 23.902H66.143L63.569 26.762L66.13 31H63.92L61.775 27.399L62.906 27.113L60.735 29.479L61.333 28.348V31H59.383ZM75.065 31.156C74.337 31.156 73.7087 31.0217 73.18 30.753C72.66 30.4843 72.2614 30.1247 71.984 29.674C71.7067 29.2233 71.568 28.7337 71.568 28.205C71.568 27.5723 71.7327 27.0437 72.062 26.619C72.4 26.1943 72.894 25.8737 73.544 25.657L73.414 26.151C72.9547 26.0123 72.5864 25.7263 72.309 25.293C72.0404 24.8597 71.906 24.3787 71.906 23.85C71.906 23.33 72.0404 22.8663 72.309 22.459C72.5777 22.0517 72.9504 21.7353 73.427 21.51C73.9037 21.276 74.4497 21.159 75.065 21.159C75.6804 21.159 76.222 21.276 76.69 21.51C77.1667 21.7353 77.5394 22.0517 77.808 22.459C78.0854 22.8663 78.224 23.33 78.224 23.85C78.224 24.3787 78.0897 24.8597 77.821 25.293C77.5524 25.7263 77.184 26.0167 76.716 26.164L76.599 25.644C77.249 25.8867 77.743 26.2203 78.081 26.645C78.419 27.061 78.588 27.5853 78.588 28.218C78.588 28.7467 78.445 29.2363 78.159 29.687C77.8817 30.129 77.4787 30.4843 76.95 30.753C76.4214 31.0217 75.793 31.156 75.065 31.156ZM75.065 29.466C75.3684 29.466 75.6327 29.4097 75.858 29.297C76.0834 29.1843 76.2567 29.0283 76.378 28.829C76.508 28.6297 76.573 28.4 76.573 28.14C76.573 27.8713 76.508 27.6417 76.378 27.451C76.2567 27.2517 76.0834 27.1 75.858 26.996C75.6327 26.8833 75.3684 26.827 75.065 26.827C74.7704 26.827 74.5104 26.8833 74.285 26.996C74.0684 27.1 73.895 27.2517 73.765 27.451C73.6437 27.6417 73.583 27.8713 73.583 28.14C73.583 28.4 73.6437 28.6297 73.765 28.829C73.895 29.0283 74.0684 29.1843 74.285 29.297C74.5104 29.4097 74.7704 29.466 75.065 29.466ZM75.065 25.137C75.299 25.137 75.4984 25.085 75.663 24.981C75.8364 24.877 75.9707 24.7383 76.066 24.565C76.1614 24.3917 76.209 24.201 76.209 23.993C76.209 23.7763 76.1614 23.5813 76.066 23.408C75.9707 23.2347 75.8364 23.1003 75.663 23.005C75.4984 22.901 75.299 22.849 75.065 22.849C74.8397 22.849 74.6404 22.901 74.467 23.005C74.2937 23.1003 74.1594 23.2347 74.064 23.408C73.9687 23.5813 73.921 23.7763 73.921 23.993C73.921 24.201 73.9687 24.3917 74.064 24.565C74.1594 24.7383 74.2937 24.877 74.467 24.981C74.6404 25.085 74.8397 25.137 75.065 25.137Z" fill="#B1B1B1"/>
<path d="M38.858 49V41.967H40.327V49H38.858ZM38.858 41.005V39.315H40.327V41.005H38.858ZM42.0445 49V41.967H43.4485V43.345L43.2795 43.163C43.4529 42.721 43.7302 42.3873 44.1115 42.162C44.4929 41.928 44.9349 41.811 45.4375 41.811C45.9575 41.811 46.4169 41.9237 46.8155 42.149C47.2142 42.3743 47.5262 42.6863 47.7515 43.085C47.9769 43.4837 48.0895 43.943 48.0895 44.463V49H46.6335V44.853C46.6335 44.4977 46.5685 44.1987 46.4385 43.956C46.3085 43.7047 46.1222 43.514 45.8795 43.384C45.6455 43.2453 45.3769 43.176 45.0735 43.176C44.7702 43.176 44.4972 43.2453 44.2545 43.384C44.0205 43.514 43.8385 43.7047 43.7085 43.956C43.5785 44.2073 43.5135 44.5063 43.5135 44.853V49H42.0445ZM56.6142 49.156C55.9295 49.156 55.2925 49.0303 54.7032 48.779C54.1225 48.5277 53.6112 48.181 53.1692 47.739C52.7358 47.2883 52.3978 46.7597 52.1552 46.153C51.9125 45.5463 51.7912 44.879 51.7912 44.151C51.7912 43.4317 51.9082 42.7687 52.1422 42.162C52.3848 41.5467 52.7228 41.018 53.1562 40.576C53.5895 40.1253 54.0965 39.7787 54.6772 39.536C55.2578 39.2847 55.8948 39.159 56.5882 39.159C57.2728 39.159 57.8838 39.276 58.4212 39.51C58.9672 39.744 59.4265 40.0517 59.7992 40.433C60.1718 40.8057 60.4405 41.213 60.6052 41.655L59.2402 42.318C59.0408 41.7893 58.7115 41.3647 58.2522 41.044C57.7928 40.7147 57.2382 40.55 56.5882 40.55C55.9468 40.55 55.3792 40.7017 54.8852 41.005C54.3912 41.3083 54.0055 41.7287 53.7282 42.266C53.4595 42.8033 53.3252 43.4317 53.3252 44.151C53.3252 44.8703 53.4638 45.503 53.7412 46.049C54.0272 46.5863 54.4172 47.0067 54.9112 47.31C55.4052 47.6047 55.9728 47.752 56.6142 47.752C57.1515 47.752 57.6412 47.6437 58.0832 47.427C58.5338 47.2017 58.8935 46.8897 59.1622 46.491C59.4308 46.0837 59.5652 45.6113 59.5652 45.074V44.411L60.2542 45.035H56.5882V43.735H61.0862V44.645C61.0862 45.3557 60.9648 45.9927 60.7222 46.556C60.4795 47.1107 60.1502 47.583 59.7342 47.973C59.3182 48.363 58.8415 48.6577 58.3042 48.857C57.7668 49.0563 57.2035 49.156 56.6142 49.156ZM65.9024 49.156C65.2264 49.156 64.6067 48.9957 64.0434 48.675C63.4887 48.3543 63.0467 47.9167 62.7174 47.362C62.388 46.8073 62.2234 46.179 62.2234 45.477C62.2234 44.7663 62.388 44.138 62.7174 43.592C63.0467 43.0373 63.4887 42.604 64.0434 42.292C64.598 41.9713 65.2177 41.811 65.9024 41.811C66.5957 41.811 67.2154 41.9713 67.7614 42.292C68.316 42.604 68.7537 43.0373 69.0744 43.592C69.4037 44.138 69.5684 44.7663 69.5684 45.477C69.5684 46.1877 69.4037 46.8203 69.0744 47.375C68.745 47.9297 68.303 48.3673 67.7484 48.688C67.1937 49 66.5784 49.156 65.9024 49.156ZM65.9024 47.791C66.3184 47.791 66.6867 47.6913 67.0074 47.492C67.328 47.2927 67.5794 47.0197 67.7614 46.673C67.952 46.3177 68.0474 45.919 68.0474 45.477C68.0474 45.035 67.952 44.6407 67.7614 44.294C67.5794 43.9473 67.328 43.6743 67.0074 43.475C66.6867 43.2757 66.3184 43.176 65.9024 43.176C65.495 43.176 65.1267 43.2757 64.7974 43.475C64.4767 43.6743 64.221 43.9473 64.0304 44.294C63.8484 44.6407 63.7574 45.035 63.7574 45.477C63.7574 45.919 63.8484 46.3177 64.0304 46.673C64.221 47.0197 64.4767 47.2927 64.7974 47.492C65.1267 47.6913 65.495 47.791 65.9024 47.791ZM73.1085 49.156C72.6319 49.156 72.2115 49.0737 71.8475 48.909C71.4922 48.7357 71.2149 48.5017 71.0155 48.207C70.8162 47.9037 70.7165 47.5483 70.7165 47.141C70.7165 46.7597 70.7989 46.4173 70.9635 46.114C71.1369 45.8107 71.4012 45.555 71.7565 45.347C72.1119 45.139 72.5582 44.9917 73.0955 44.905L75.5395 44.502V45.659L73.3815 46.036C72.9915 46.1053 72.7055 46.231 72.5235 46.413C72.3415 46.5863 72.2505 46.8117 72.2505 47.089C72.2505 47.3577 72.3502 47.5787 72.5495 47.752C72.7575 47.9167 73.0219 47.999 73.3425 47.999C73.7412 47.999 74.0879 47.9123 74.3825 47.739C74.6859 47.5657 74.9199 47.336 75.0845 47.05C75.2492 46.7553 75.3315 46.4303 75.3315 46.075V44.268C75.3315 43.9213 75.2015 43.6397 74.9415 43.423C74.6902 43.1977 74.3522 43.085 73.9275 43.085C73.5375 43.085 73.1952 43.189 72.9005 43.397C72.6145 43.5963 72.4022 43.8563 72.2635 44.177L71.0415 43.566C71.1715 43.2193 71.3839 42.916 71.6785 42.656C71.9732 42.3873 72.3155 42.1793 72.7055 42.032C73.1042 41.8847 73.5245 41.811 73.9665 41.811C74.5212 41.811 75.0109 41.915 75.4355 42.123C75.8689 42.331 76.2025 42.6213 76.4365 42.994C76.6792 43.358 76.8005 43.7827 76.8005 44.268V49H75.3965V47.726L75.6955 47.765C75.5309 48.051 75.3185 48.298 75.0585 48.506C74.8072 48.714 74.5169 48.8743 74.1875 48.987C73.8669 49.0997 73.5072 49.156 73.1085 49.156ZM78.5182 49V39.159H79.9872V49H78.5182ZM89.2006 49.156C88.6806 49.156 88.1909 49.0607 87.7316 48.87C87.2809 48.6793 86.8909 48.4107 86.5616 48.064C86.2409 47.7173 86.0113 47.31 85.8726 46.842L87.1726 46.348C87.3459 46.8073 87.6103 47.1627 87.9656 47.414C88.3209 47.6653 88.7326 47.791 89.2006 47.791C89.5819 47.791 89.9113 47.7173 90.1886 47.57C90.4746 47.4227 90.6956 47.2147 90.8516 46.946C91.0163 46.6773 91.0986 46.3523 91.0986 45.971C91.0986 45.5983 91.0163 45.2777 90.8516 45.009C90.6956 44.7403 90.4746 44.5367 90.1886 44.398C89.9113 44.2593 89.5819 44.19 89.2006 44.19C89.0446 44.19 88.8843 44.203 88.7196 44.229C88.5636 44.255 88.4249 44.2897 88.3036 44.333L87.9656 43.618L90.5136 40.615H86.3926V39.315H92.2296V40.55L89.7336 43.54L89.6946 43.046C90.2753 43.0547 90.7866 43.1847 91.2286 43.436C91.6706 43.6787 92.0129 44.0167 92.2556 44.45C92.5069 44.8747 92.6326 45.3687 92.6326 45.932C92.6326 46.5387 92.4853 47.089 92.1906 47.583C91.8959 48.0683 91.4886 48.454 90.9686 48.74C90.4573 49.0173 89.8679 49.156 89.2006 49.156Z" fill="#B1B1B1"/>
<path d="M40.112 12V4.26H38.396V3.06H41.516V12H40.112ZM45.5889 12V2.916H46.9449V6.78L46.7289 6.612C46.8889 6.204 47.1449 5.896 47.4969 5.688C47.8489 5.472 48.2569 5.364 48.7209 5.364C49.2009 5.364 49.6249 5.468 49.9929 5.676C50.3609 5.884 50.6489 6.172 50.8569 6.54C51.0649 6.908 51.1689 7.328 51.1689 7.8V12H49.8249V8.172C49.8249 7.844 49.7609 7.568 49.6329 7.344C49.5129 7.112 49.3449 6.936 49.1289 6.816C48.9129 6.688 48.6649 6.624 48.3849 6.624C48.1129 6.624 47.8649 6.688 47.6409 6.816C47.4249 6.936 47.2529 7.112 47.1249 7.344C47.0049 7.576 46.9449 7.852 46.9449 8.172V12H45.5889ZM55.7521 12.144C55.1281 12.144 54.5561 11.996 54.0361 11.7C53.5241 11.404 53.1161 11 52.8121 10.488C52.5081 9.976 52.3561 9.396 52.3561 8.748C52.3561 8.092 52.5081 7.512 52.8121 7.008C53.1161 6.496 53.5241 6.096 54.0361 5.808C54.5481 5.512 55.1201 5.364 55.7521 5.364C56.3921 5.364 56.9641 5.512 57.4681 5.808C57.9801 6.096 58.3841 6.496 58.6801 7.008C58.9841 7.512 59.1361 8.092 59.1361 8.748C59.1361 9.404 58.9841 9.988 58.6801 10.5C58.3761 11.012 57.9681 11.416 57.4561 11.712C56.9441 12 56.3761 12.144 55.7521 12.144ZM55.7521 10.884C56.1361 10.884 56.4761 10.792 56.7721 10.608C57.0681 10.424 57.3001 10.172 57.4681 9.852C57.6441 9.524 57.7321 9.156 57.7321 8.748C57.7321 8.34 57.6441 7.976 57.4681 7.656C57.3001 7.336 57.0681 7.084 56.7721 6.9C56.4761 6.716 56.1361 6.624 55.7521 6.624C55.3761 6.624 55.0361 6.716 54.7321 6.9C54.4361 7.084 54.2001 7.336 54.0241 7.656C53.8561 7.976 53.7721 8.34 53.7721 8.748C53.7721 9.156 53.8561 9.524 54.0241 9.852C54.2001 10.172 54.4361 10.424 54.7321 10.608C55.0361 10.792 55.3761 10.884 55.7521 10.884ZM62.776 12.144C62.288 12.144 61.86 12.036 61.492 11.82C61.124 11.596 60.836 11.288 60.628 10.896C60.428 10.496 60.328 10.036 60.328 9.516V5.508H61.684V9.396C61.684 9.692 61.744 9.952 61.864 10.176C61.984 10.4 62.152 10.576 62.368 10.704C62.584 10.824 62.832 10.884 63.112 10.884C63.4 10.884 63.652 10.82 63.868 10.692C64.084 10.564 64.252 10.384 64.372 10.152C64.5 9.92 64.564 9.648 64.564 9.336V5.508H65.908V12H64.624V10.728L64.768 10.896C64.616 11.296 64.364 11.604 64.012 11.82C63.66 12.036 63.248 12.144 62.776 12.144ZM67.4912 12V5.508H68.7872V6.816L68.6672 6.624C68.8112 6.2 69.0432 5.896 69.3632 5.712C69.6832 5.52 70.0672 5.424 70.5152 5.424H70.9112V6.66H70.3472C69.8992 6.66 69.5352 6.8 69.2552 7.08C68.9832 7.352 68.8472 7.744 68.8472 8.256V12H67.4912ZM75.8805 12.144C75.4405 12.144 75.0525 12.068 74.7165 11.916C74.3885 11.756 74.1325 11.54 73.9485 11.268C73.7645 10.988 73.6725 10.66 73.6725 10.284C73.6725 9.932 73.7485 9.616 73.9005 9.336C74.0605 9.056 74.3045 8.82 74.6325 8.628C74.9605 8.436 75.3725 8.3 75.8685 8.22L78.1245 7.848V8.916L76.1325 9.264C75.7725 9.328 75.5085 9.444 75.3405 9.612C75.1725 9.772 75.0885 9.98 75.0885 10.236C75.0885 10.484 75.1805 10.688 75.3645 10.848C75.5565 11 75.8005 11.076 76.0965 11.076C76.4645 11.076 76.7845 10.996 77.0565 10.836C77.3365 10.676 77.5525 10.464 77.7045 10.2C77.8565 9.928 77.9325 9.628 77.9325 9.3V7.632C77.9325 7.312 77.8125 7.052 77.5725 6.852C77.3405 6.644 77.0285 6.54 76.6365 6.54C76.2765 6.54 75.9605 6.636 75.6885 6.828C75.4245 7.012 75.2285 7.252 75.1005 7.548L73.9725 6.984C74.0925 6.664 74.2885 6.384 74.5605 6.144C74.8325 5.896 75.1485 5.704 75.5085 5.568C75.8765 5.432 76.2645 5.364 76.6725 5.364C77.1845 5.364 77.6365 5.46 78.0285 5.652C78.4285 5.844 78.7365 6.112 78.9525 6.456C79.1765 6.792 79.2885 7.184 79.2885 7.632V12H77.9925V10.824L78.2685 10.86C78.1165 11.124 77.9205 11.352 77.6805 11.544C77.4485 11.736 77.1805 11.884 76.8765 11.988C76.5805 12.092 76.2485 12.144 75.8805 12.144ZM84.006 14.64C83.534 14.64 83.098 14.564 82.698 14.412C82.298 14.26 81.954 14.048 81.666 13.776C81.378 13.512 81.162 13.2 81.018 12.84L82.266 12.324C82.378 12.628 82.582 12.88 82.878 13.08C83.182 13.28 83.554 13.38 83.994 13.38C84.338 13.38 84.646 13.312 84.918 13.176C85.19 13.048 85.406 12.856 85.566 12.6C85.726 12.352 85.806 12.052 85.806 11.7V10.236L86.046 10.512C85.822 10.928 85.51 11.244 85.11 11.46C84.718 11.676 84.274 11.784 83.778 11.784C83.178 11.784 82.638 11.644 82.158 11.364C81.678 11.084 81.298 10.7 81.018 10.212C80.746 9.724 80.61 9.176 80.61 8.568C80.61 7.952 80.746 7.404 81.018 6.924C81.298 6.444 81.674 6.064 82.146 5.784C82.618 5.504 83.158 5.364 83.766 5.364C84.262 5.364 84.702 5.472 85.086 5.688C85.478 5.896 85.798 6.2 86.046 6.6L85.866 6.936V5.508H87.15V11.7C87.15 12.26 87.014 12.76 86.742 13.2C86.478 13.648 86.11 14 85.638 14.256C85.166 14.512 84.622 14.64 84.006 14.64ZM83.934 10.524C84.294 10.524 84.614 10.44 84.894 10.272C85.174 10.096 85.394 9.864 85.554 9.576C85.722 9.28 85.806 8.948 85.806 8.58C85.806 8.212 85.722 7.88 85.554 7.584C85.386 7.288 85.162 7.056 84.882 6.888C84.602 6.712 84.286 6.624 83.934 6.624C83.566 6.624 83.238 6.712 82.95 6.888C82.662 7.056 82.434 7.288 82.266 7.584C82.106 7.872 82.026 8.204 82.026 8.58C82.026 8.94 82.106 9.268 82.266 9.564C82.434 9.86 82.662 10.096 82.95 10.272C83.238 10.44 83.566 10.524 83.934 10.524ZM91.8693 12.144C91.2453 12.144 90.6733 11.996 90.1533 11.7C89.6413 11.404 89.2333 11 88.9293 10.488C88.6253 9.976 88.4733 9.396 88.4733 8.748C88.4733 8.092 88.6253 7.512 88.9293 7.008C89.2333 6.496 89.6413 6.096 90.1533 5.808C90.6653 5.512 91.2373 5.364 91.8693 5.364C92.5093 5.364 93.0813 5.512 93.5853 5.808C94.0973 6.096 94.5013 6.496 94.7973 7.008C95.1013 7.512 95.2533 8.092 95.2533 8.748C95.2533 9.404 95.1013 9.988 94.7973 10.5C94.4933 11.012 94.0853 11.416 93.5733 11.712C93.0613 12 92.4933 12.144 91.8693 12.144ZM91.8693 10.884C92.2533 10.884 92.5933 10.792 92.8893 10.608C93.1853 10.424 93.4173 10.172 93.5853 9.852C93.7613 9.524 93.8493 9.156 93.8493 8.748C93.8493 8.34 93.7613 7.976 93.5853 7.656C93.4173 7.336 93.1853 7.084 92.8893 6.9C92.5933 6.716 92.2533 6.624 91.8693 6.624C91.4933 6.624 91.1533 6.716 90.8493 6.9C90.5533 7.084 90.3173 7.336 90.1413 7.656C89.9733 7.976 89.8893 8.34 89.8893 8.748C89.8893 9.156 89.9733 9.524 90.1413 9.852C90.3173 10.172 90.5533 10.424 90.8493 10.608C91.1533 10.792 91.4933 10.884 91.8693 10.884Z" fill="#B1B1B1"/>
<path d="M11 95C8.82441 95 6.69767 95.6451 4.88873 96.8538C3.07979 98.0625 1.66989 99.7805 0.83733 101.79C0.00476613 103.8 -0.213071 106.012 0.211367 108.146C0.635804 110.28 1.68345 112.24 3.22183 113.778C4.76021 115.317 6.72022 116.364 8.85401 116.789C10.9878 117.213 13.1995 116.995 15.2095 116.163C17.2195 115.33 18.9375 113.92 20.1462 112.111C21.3549 110.302 22 108.176 22 106C21.9969 103.084 20.837 100.287 18.7748 98.2252C16.7125 96.163 13.9164 95.0031 11 95ZM15.8294 104.06L9.90635 109.983C9.82776 110.062 9.73444 110.124 9.63172 110.167C9.529 110.21 9.41889 110.231 9.3077 110.231C9.1965 110.231 9.08639 110.21 8.98367 110.167C8.88095 110.124 8.78763 110.062 8.70904 109.983L6.17058 107.445C6.01181 107.286 5.92261 107.071 5.92261 106.846C5.92261 106.622 6.01181 106.406 6.17058 106.247C6.32935 106.089 6.5447 106 6.76923 106C6.99377 106 7.20912 106.089 7.36789 106.247L9.3077 108.188L14.6321 102.863C14.7107 102.784 14.8041 102.722 14.9068 102.679C15.0095 102.637 15.1196 102.615 15.2308 102.615C15.342 102.615 15.452 102.637 15.5548 102.679C15.6575 102.722 15.7508 102.784 15.8294 102.863C15.908 102.941 15.9704 103.035 16.0129 103.138C16.0555 103.24 16.0774 103.35 16.0774 103.462C16.0774 103.573 16.0555 103.683 16.0129 103.786C15.9704 103.888 15.908 103.982 15.8294 104.06Z" fill="#EEEEEE"/>
<path d="M11 74L11 99" stroke="#EEEEEE" stroke-width="2"/>
<path d="M11 115L11 174" stroke="#EEEEEE" stroke-width="2"/>
<path d="M40.6 111V103.07H38.143V101.315H45.033V103.07H42.615V111H40.6ZM47.3104 111.156C46.7991 111.156 46.3571 111.074 45.9844 110.909C45.6118 110.744 45.3258 110.51 45.1264 110.207C44.9271 109.895 44.8274 109.527 44.8274 109.102C44.8274 108.703 44.9184 108.352 45.1004 108.049C45.2824 107.737 45.5598 107.477 45.9324 107.269C46.3138 107.061 46.7861 106.914 47.3494 106.827L49.5204 106.476V107.906L47.7004 108.231C47.4231 108.283 47.2108 108.374 47.0634 108.504C46.9161 108.625 46.8424 108.803 46.8424 109.037C46.8424 109.254 46.9248 109.423 47.0894 109.544C47.2541 109.665 47.4578 109.726 47.7004 109.726C48.0211 109.726 48.3028 109.657 48.5454 109.518C48.7881 109.379 48.9744 109.193 49.1044 108.959C49.2431 108.716 49.3124 108.452 49.3124 108.166V106.32C49.3124 106.051 49.2041 105.826 48.9874 105.644C48.7794 105.462 48.4934 105.371 48.1294 105.371C47.7828 105.371 47.4751 105.466 47.2064 105.657C46.9464 105.848 46.7558 106.099 46.6344 106.411L45.0744 105.67C45.2131 105.271 45.4341 104.929 45.7374 104.643C46.0408 104.357 46.4048 104.136 46.8294 103.98C47.2541 103.824 47.7178 103.746 48.2204 103.746C48.8184 103.746 49.3471 103.854 49.8064 104.071C50.2658 104.288 50.6211 104.591 50.8724 104.981C51.1324 105.362 51.2624 105.809 51.2624 106.32V111H49.4424V109.856L49.8844 109.778C49.6764 110.09 49.4468 110.35 49.1954 110.558C48.9441 110.757 48.6624 110.905 48.3504 111C48.0384 111.104 47.6918 111.156 47.3104 111.156ZM55.4745 111.156C54.6945 111.156 54.0142 110.974 53.4335 110.61C52.8615 110.237 52.4715 109.739 52.2635 109.115L53.6935 108.439C53.8755 108.82 54.1225 109.119 54.4345 109.336C54.7465 109.553 55.0932 109.661 55.4745 109.661C55.7519 109.661 55.9642 109.605 56.1115 109.492C56.2589 109.379 56.3325 109.223 56.3325 109.024C56.3325 108.92 56.3065 108.833 56.2545 108.764C56.2025 108.686 56.1245 108.617 56.0205 108.556C55.9165 108.495 55.7865 108.443 55.6305 108.4L54.4215 108.062C53.8409 107.897 53.3945 107.633 53.0825 107.269C52.7705 106.896 52.6145 106.459 52.6145 105.956C52.6145 105.514 52.7272 105.128 52.9525 104.799C53.1779 104.47 53.4942 104.214 53.9015 104.032C54.3089 103.841 54.7769 103.746 55.3055 103.746C55.9989 103.746 56.6055 103.911 57.1255 104.24C57.6542 104.561 58.0269 105.016 58.2435 105.605L56.8005 106.281C56.6965 105.986 56.5059 105.752 56.2285 105.579C55.9599 105.397 55.6522 105.306 55.3055 105.306C55.0542 105.306 54.8549 105.358 54.7075 105.462C54.5689 105.566 54.4995 105.709 54.4995 105.891C54.4995 105.986 54.5255 106.073 54.5775 106.151C54.6295 106.229 54.7119 106.298 54.8245 106.359C54.9459 106.42 55.0932 106.476 55.2665 106.528L56.3975 106.866C56.9869 107.039 57.4375 107.304 57.7495 107.659C58.0615 108.006 58.2175 108.435 58.2175 108.946C58.2175 109.388 58.1005 109.774 57.8665 110.103C57.6412 110.432 57.3249 110.692 56.9175 110.883C56.5102 111.065 56.0292 111.156 55.4745 111.156ZM59.383 111V101.159H61.333V107.464L60.605 107.23L63.738 103.902H66.143L63.569 106.762L66.13 111H63.92L61.775 107.399L62.906 107.113L60.735 109.479L61.333 108.348V111H59.383ZM74.753 111.156C74.2157 111.156 73.7044 111.056 73.219 110.857C72.7337 110.649 72.322 110.359 71.984 109.986C71.646 109.613 71.4207 109.176 71.308 108.673L73.089 108.075C73.2364 108.491 73.453 108.807 73.739 109.024C74.025 109.232 74.363 109.336 74.753 109.336C75.0737 109.336 75.3467 109.275 75.572 109.154C75.806 109.033 75.988 108.864 76.118 108.647C76.248 108.422 76.313 108.162 76.313 107.867C76.313 107.572 76.248 107.321 76.118 107.113C75.9967 106.896 75.819 106.732 75.585 106.619C75.3597 106.498 75.0824 106.437 74.753 106.437C74.5624 106.437 74.3717 106.459 74.181 106.502C73.9904 106.545 73.817 106.606 73.661 106.684L73.193 105.709L75.676 103.005H71.893V101.315H77.938V102.875L75.39 105.774L75.455 104.955C76.0357 104.955 76.5384 105.076 76.963 105.319C77.3964 105.553 77.73 105.882 77.964 106.307C78.2067 106.732 78.328 107.226 78.328 107.789C78.328 108.43 78.172 109.007 77.86 109.518C77.548 110.029 77.1234 110.432 76.586 110.727C76.0487 111.013 75.4377 111.156 74.753 111.156Z" fill="#B1B1B1"/>
<path d="M38.858 129V121.967H40.327V129H38.858ZM38.858 121.005V119.315H40.327V121.005H38.858ZM42.0445 129V121.967H43.4485V123.345L43.2795 123.163C43.4529 122.721 43.7302 122.387 44.1115 122.162C44.4929 121.928 44.9349 121.811 45.4375 121.811C45.9575 121.811 46.4169 121.924 46.8155 122.149C47.2142 122.374 47.5262 122.686 47.7515 123.085C47.9769 123.484 48.0895 123.943 48.0895 124.463V129H46.6335V124.853C46.6335 124.498 46.5685 124.199 46.4385 123.956C46.3085 123.705 46.1222 123.514 45.8795 123.384C45.6455 123.245 45.3769 123.176 45.0735 123.176C44.7702 123.176 44.4972 123.245 44.2545 123.384C44.0205 123.514 43.8385 123.705 43.7085 123.956C43.5785 124.207 43.5135 124.506 43.5135 124.853V129H42.0445ZM56.6142 129.156C55.9295 129.156 55.2925 129.03 54.7032 128.779C54.1225 128.528 53.6112 128.181 53.1692 127.739C52.7358 127.288 52.3978 126.76 52.1552 126.153C51.9125 125.546 51.7912 124.879 51.7912 124.151C51.7912 123.432 51.9082 122.769 52.1422 122.162C52.3848 121.547 52.7228 121.018 53.1562 120.576C53.5895 120.125 54.0965 119.779 54.6772 119.536C55.2578 119.285 55.8948 119.159 56.5882 119.159C57.2728 119.159 57.8838 119.276 58.4212 119.51C58.9672 119.744 59.4265 120.052 59.7992 120.433C60.1718 120.806 60.4405 121.213 60.6052 121.655L59.2402 122.318C59.0408 121.789 58.7115 121.365 58.2522 121.044C57.7928 120.715 57.2382 120.55 56.5882 120.55C55.9468 120.55 55.3792 120.702 54.8852 121.005C54.3912 121.308 54.0055 121.729 53.7282 122.266C53.4595 122.803 53.3252 123.432 53.3252 124.151C53.3252 124.87 53.4638 125.503 53.7412 126.049C54.0272 126.586 54.4172 127.007 54.9112 127.31C55.4052 127.605 55.9728 127.752 56.6142 127.752C57.1515 127.752 57.6412 127.644 58.0832 127.427C58.5338 127.202 58.8935 126.89 59.1622 126.491C59.4308 126.084 59.5652 125.611 59.5652 125.074V124.411L60.2542 125.035H56.5882V123.735H61.0862V124.645C61.0862 125.356 60.9648 125.993 60.7222 126.556C60.4795 127.111 60.1502 127.583 59.7342 127.973C59.3182 128.363 58.8415 128.658 58.3042 128.857C57.7668 129.056 57.2035 129.156 56.6142 129.156ZM65.9024 129.156C65.2264 129.156 64.6067 128.996 64.0434 128.675C63.4887 128.354 63.0467 127.917 62.7174 127.362C62.388 126.807 62.2234 126.179 62.2234 125.477C62.2234 124.766 62.388 124.138 62.7174 123.592C63.0467 123.037 63.4887 122.604 64.0434 122.292C64.598 121.971 65.2177 121.811 65.9024 121.811C66.5957 121.811 67.2154 121.971 67.7614 122.292C68.316 122.604 68.7537 123.037 69.0744 123.592C69.4037 124.138 69.5684 124.766 69.5684 125.477C69.5684 126.188 69.4037 126.82 69.0744 127.375C68.745 127.93 68.303 128.367 67.7484 128.688C67.1937 129 66.5784 129.156 65.9024 129.156ZM65.9024 127.791C66.3184 127.791 66.6867 127.691 67.0074 127.492C67.328 127.293 67.5794 127.02 67.7614 126.673C67.952 126.318 68.0474 125.919 68.0474 125.477C68.0474 125.035 67.952 124.641 67.7614 124.294C67.5794 123.947 67.328 123.674 67.0074 123.475C66.6867 123.276 66.3184 123.176 65.9024 123.176C65.495 123.176 65.1267 123.276 64.7974 123.475C64.4767 123.674 64.221 123.947 64.0304 124.294C63.8484 124.641 63.7574 125.035 63.7574 125.477C63.7574 125.919 63.8484 126.318 64.0304 126.673C64.221 127.02 64.4767 127.293 64.7974 127.492C65.1267 127.691 65.495 127.791 65.9024 127.791ZM73.1085 129.156C72.6319 129.156 72.2115 129.074 71.8475 128.909C71.4922 128.736 71.2149 128.502 71.0155 128.207C70.8162 127.904 70.7165 127.548 70.7165 127.141C70.7165 126.76 70.7989 126.417 70.9635 126.114C71.1369 125.811 71.4012 125.555 71.7565 125.347C72.1119 125.139 72.5582 124.992 73.0955 124.905L75.5395 124.502V125.659L73.3815 126.036C72.9915 126.105 72.7055 126.231 72.5235 126.413C72.3415 126.586 72.2505 126.812 72.2505 127.089C72.2505 127.358 72.3502 127.579 72.5495 127.752C72.7575 127.917 73.0219 127.999 73.3425 127.999C73.7412 127.999 74.0879 127.912 74.3825 127.739C74.6859 127.566 74.9199 127.336 75.0845 127.05C75.2492 126.755 75.3315 126.43 75.3315 126.075V124.268C75.3315 123.921 75.2015 123.64 74.9415 123.423C74.6902 123.198 74.3522 123.085 73.9275 123.085C73.5375 123.085 73.1952 123.189 72.9005 123.397C72.6145 123.596 72.4022 123.856 72.2635 124.177L71.0415 123.566C71.1715 123.219 71.3839 122.916 71.6785 122.656C71.9732 122.387 72.3155 122.179 72.7055 122.032C73.1042 121.885 73.5245 121.811 73.9665 121.811C74.5212 121.811 75.0109 121.915 75.4355 122.123C75.8689 122.331 76.2025 122.621 76.4365 122.994C76.6792 123.358 76.8005 123.783 76.8005 124.268V129H75.3965V127.726L75.6955 127.765C75.5309 128.051 75.3185 128.298 75.0585 128.506C74.8072 128.714 74.5169 128.874 74.1875 128.987C73.8669 129.1 73.5072 129.156 73.1085 129.156ZM78.5182 129V119.159H79.9872V129H78.5182ZM87.6796 129V120.615H85.8206V119.315H89.2006V129H87.6796Z" fill="#B1B1B1"/>
<path d="M38.6 92V90.98L41.048 88.364C41.528 87.852 41.904 87.44 42.176 87.128C42.456 86.808 42.656 86.528 42.776 86.288C42.904 86.048 42.968 85.796 42.968 85.532C42.968 85.1 42.836 84.768 42.572 84.536C42.308 84.296 41.968 84.176 41.552 84.176C41.12 84.176 40.748 84.3 40.436 84.548C40.124 84.788 39.908 85.14 39.788 85.604L38.54 85.244C38.636 84.772 38.828 84.364 39.116 84.02C39.404 83.668 39.756 83.396 40.172 83.204C40.596 83.012 41.052 82.916 41.54 82.916C42.108 82.916 42.604 83.024 43.028 83.24C43.452 83.448 43.78 83.74 44.012 84.116C44.252 84.492 44.372 84.928 44.372 85.424C44.372 85.752 44.308 86.072 44.18 86.384C44.06 86.688 43.872 87.012 43.616 87.356C43.36 87.692 43.032 88.072 42.632 88.496L40.472 90.8H44.54V92H38.6ZM48.0615 92V82.916H49.4175V86.78L49.2015 86.612C49.3615 86.204 49.6175 85.896 49.9695 85.688C50.3215 85.472 50.7295 85.364 51.1935 85.364C51.6735 85.364 52.0975 85.468 52.4655 85.676C52.8335 85.884 53.1215 86.172 53.3295 86.54C53.5375 86.908 53.6415 87.328 53.6415 87.8V92H52.2975V88.172C52.2975 87.844 52.2335 87.568 52.1055 87.344C51.9855 87.112 51.8175 86.936 51.6015 86.816C51.3855 86.688 51.1375 86.624 50.8575 86.624C50.5855 86.624 50.3375 86.688 50.1135 86.816C49.8975 86.936 49.7255 87.112 49.5975 87.344C49.4775 87.576 49.4175 87.852 49.4175 88.172V92H48.0615ZM58.2248 92.144C57.6008 92.144 57.0288 91.996 56.5088 91.7C55.9968 91.404 55.5888 91 55.2848 90.488C54.9808 89.976 54.8288 89.396 54.8288 88.748C54.8288 88.092 54.9808 87.512 55.2848 87.008C55.5888 86.496 55.9968 86.096 56.5088 85.808C57.0208 85.512 57.5928 85.364 58.2248 85.364C58.8648 85.364 59.4368 85.512 59.9408 85.808C60.4528 86.096 60.8568 86.496 61.1528 87.008C61.4568 87.512 61.6088 88.092 61.6088 88.748C61.6088 89.404 61.4568 89.988 61.1528 90.5C60.8488 91.012 60.4408 91.416 59.9288 91.712C59.4168 92 58.8488 92.144 58.2248 92.144ZM58.2248 90.884C58.6088 90.884 58.9488 90.792 59.2448 90.608C59.5408 90.424 59.7728 90.172 59.9408 89.852C60.1168 89.524 60.2048 89.156 60.2048 88.748C60.2048 88.34 60.1168 87.976 59.9408 87.656C59.7728 87.336 59.5408 87.084 59.2448 86.9C58.9488 86.716 58.6088 86.624 58.2248 86.624C57.8488 86.624 57.5088 86.716 57.2048 86.9C56.9088 87.084 56.6728 87.336 56.4968 87.656C56.3288 87.976 56.2448 88.34 56.2448 88.748C56.2448 89.156 56.3288 89.524 56.4968 89.852C56.6728 90.172 56.9088 90.424 57.2048 90.608C57.5088 90.792 57.8488 90.884 58.2248 90.884ZM65.2486 92.144C64.7606 92.144 64.3326 92.036 63.9646 91.82C63.5966 91.596 63.3086 91.288 63.1006 90.896C62.9006 90.496 62.8006 90.036 62.8006 89.516V85.508H64.1566V89.396C64.1566 89.692 64.2166 89.952 64.3366 90.176C64.4566 90.4 64.6246 90.576 64.8406 90.704C65.0566 90.824 65.3046 90.884 65.5846 90.884C65.8726 90.884 66.1246 90.82 66.3406 90.692C66.5566 90.564 66.7246 90.384 66.8446 90.152C66.9726 89.92 67.0366 89.648 67.0366 89.336V85.508H68.3806V92H67.0966V90.728L67.2406 90.896C67.0886 91.296 66.8366 91.604 66.4846 91.82C66.1326 92.036 65.7206 92.144 65.2486 92.144ZM69.9639 92V85.508H71.2599V86.816L71.1399 86.624C71.2839 86.2 71.5159 85.896 71.8359 85.712C72.1559 85.52 72.5399 85.424 72.9879 85.424H73.3839V86.66H72.8199C72.3719 86.66 72.0079 86.8 71.7279 87.08C71.4559 87.352 71.3199 87.744 71.3199 88.256V92H69.9639ZM78.3532 92.144C77.9132 92.144 77.5252 92.068 77.1892 91.916C76.8612 91.756 76.6052 91.54 76.4212 91.268C76.2372 90.988 76.1452 90.66 76.1452 90.284C76.1452 89.932 76.2212 89.616 76.3732 89.336C76.5332 89.056 76.7772 88.82 77.1052 88.628C77.4332 88.436 77.8452 88.3 78.3412 88.22L80.5972 87.848V88.916L78.6052 89.264C78.2452 89.328 77.9812 89.444 77.8132 89.612C77.6452 89.772 77.5612 89.98 77.5612 90.236C77.5612 90.484 77.6532 90.688 77.8372 90.848C78.0292 91 78.2732 91.076 78.5692 91.076C78.9372 91.076 79.2572 90.996 79.5292 90.836C79.8092 90.676 80.0252 90.464 80.1772 90.2C80.3292 89.928 80.4052 89.628 80.4052 89.3V87.632C80.4052 87.312 80.2852 87.052 80.0452 86.852C79.8132 86.644 79.5012 86.54 79.1092 86.54C78.7492 86.54 78.4332 86.636 78.1612 86.828C77.8972 87.012 77.7012 87.252 77.5732 87.548L76.4452 86.984C76.5652 86.664 76.7612 86.384 77.0332 86.144C77.3052 85.896 77.6212 85.704 77.9812 85.568C78.3492 85.432 78.7372 85.364 79.1452 85.364C79.6572 85.364 80.1092 85.46 80.5012 85.652C80.9012 85.844 81.2092 86.112 81.4252 86.456C81.6492 86.792 81.7612 87.184 81.7612 87.632V92H80.4652V90.824L80.7412 90.86C80.5892 91.124 80.3932 91.352 80.1532 91.544C79.9212 91.736 79.6532 91.884 79.3492 91.988C79.0532 92.092 78.7212 92.144 78.3532 92.144ZM86.4787 94.64C86.0067 94.64 85.5707 94.564 85.1707 94.412C84.7707 94.26 84.4267 94.048 84.1387 93.776C83.8507 93.512 83.6347 93.2 83.4907 92.84L84.7387 92.324C84.8507 92.628 85.0547 92.88 85.3507 93.08C85.6547 93.28 86.0267 93.38 86.4667 93.38C86.8107 93.38 87.1187 93.312 87.3907 93.176C87.6627 93.048 87.8787 92.856 88.0387 92.6C88.1987 92.352 88.2787 92.052 88.2787 91.7V90.236L88.5187 90.512C88.2947 90.928 87.9827 91.244 87.5827 91.46C87.1907 91.676 86.7467 91.784 86.2507 91.784C85.6507 91.784 85.1107 91.644 84.6307 91.364C84.1507 91.084 83.7707 90.7 83.4907 90.212C83.2187 89.724 83.0827 89.176 83.0827 88.568C83.0827 87.952 83.2187 87.404 83.4907 86.924C83.7707 86.444 84.1467 86.064 84.6187 85.784C85.0907 85.504 85.6307 85.364 86.2387 85.364C86.7347 85.364 87.1747 85.472 87.5587 85.688C87.9507 85.896 88.2707 86.2 88.5187 86.6L88.3387 86.936V85.508H89.6227V91.7C89.6227 92.26 89.4867 92.76 89.2147 93.2C88.9507 93.648 88.5827 94 88.1107 94.256C87.6387 94.512 87.0947 94.64 86.4787 94.64ZM86.4067 90.524C86.7667 90.524 87.0867 90.44 87.3667 90.272C87.6467 90.096 87.8667 89.864 88.0267 89.576C88.1947 89.28 88.2787 88.948 88.2787 88.58C88.2787 88.212 88.1947 87.88 88.0267 87.584C87.8587 87.288 87.6347 87.056 87.3547 86.888C87.0747 86.712 86.7587 86.624 86.4067 86.624C86.0387 86.624 85.7107 86.712 85.4227 86.888C85.1347 87.056 84.9067 87.288 84.7387 87.584C84.5787 87.872 84.4987 88.204 84.4987 88.58C84.4987 88.94 84.5787 89.268 84.7387 89.564C84.9067 89.86 85.1347 90.096 85.4227 90.272C85.7107 90.44 86.0387 90.524 86.4067 90.524ZM94.342 92.144C93.718 92.144 93.146 91.996 92.626 91.7C92.114 91.404 91.706 91 91.402 90.488C91.098 89.976 90.946 89.396 90.946 88.748C90.946 88.092 91.098 87.512 91.402 87.008C91.706 86.496 92.114 86.096 92.626 85.808C93.138 85.512 93.71 85.364 94.342 85.364C94.982 85.364 95.554 85.512 96.058 85.808C96.57 86.096 96.974 86.496 97.27 87.008C97.574 87.512 97.726 88.092 97.726 88.748C97.726 89.404 97.574 89.988 97.27 90.5C96.966 91.012 96.558 91.416 96.046 91.712C95.534 92 94.966 92.144 94.342 92.144ZM94.342 90.884C94.726 90.884 95.066 90.792 95.362 90.608C95.658 90.424 95.89 90.172 96.058 89.852C96.234 89.524 96.322 89.156 96.322 88.748C96.322 88.34 96.234 87.976 96.058 87.656C95.89 87.336 95.658 87.084 95.362 86.9C95.066 86.716 94.726 86.624 94.342 86.624C93.966 86.624 93.626 86.716 93.322 86.9C93.026 87.084 92.79 87.336 92.614 87.656C92.446 87.976 92.362 88.34 92.362 88.748C92.362 89.156 92.446 89.524 92.614 89.852C92.79 90.172 93.026 90.424 93.322 90.608C93.626 90.792 93.966 90.884 94.342 90.884Z" fill="#B1B1B1"/>
<path d="M11 176C8.82441 176 6.69767 176.645 4.88873 177.854C3.07979 179.063 1.66989 180.78 0.83733 182.79C0.00476613 184.8 -0.213071 187.012 0.211367 189.146C0.635804 191.28 1.68345 193.24 3.22183 194.778C4.76021 196.317 6.72022 197.364 8.85401 197.789C10.9878 198.213 13.1995 197.995 15.2095 197.163C17.2195 196.33 18.9375 194.92 20.1462 193.111C21.3549 191.302 22 189.176 22 187C21.9969 184.084 20.837 181.287 18.7748 179.225C16.7125 177.163 13.9164 176.003 11 176ZM15.8294 185.06L9.90635 190.983C9.82776 191.062 9.73444 191.124 9.63172 191.167C9.529 191.21 9.41889 191.231 9.3077 191.231C9.1965 191.231 9.08639 191.21 8.98367 191.167C8.88095 191.124 8.78763 191.062 8.70904 190.983L6.17058 188.445C6.01181 188.286 5.92261 188.071 5.92261 187.846C5.92261 187.622 6.01181 187.406 6.17058 187.247C6.32935 187.089 6.5447 187 6.76923 187C6.99377 187 7.20912 187.089 7.36789 187.247L9.3077 189.188L14.6321 183.863C14.7107 183.784 14.8041 183.722 14.9068 183.679C15.0095 183.637 15.1196 183.615 15.2308 183.615C15.342 183.615 15.452 183.637 15.5548 183.679C15.6575 183.722 15.7508 183.784 15.8294 183.863C15.908 183.941 15.9704 184.035 16.0129 184.138C16.0555 184.24 16.0774 184.35 16.0774 184.462C16.0774 184.573 16.0555 184.683 16.0129 184.786C15.9704 184.888 15.908 184.982 15.8294 185.06Z" fill="#EEEEEE"/>
<path d="M11 155L11 180" stroke="#EEEEEE" stroke-width="2"/>
<path d="M11 196L11 255" stroke="#EEEEEE" stroke-width="2"/>
<path d="M40.6 192V184.07H38.143V182.315H45.033V184.07H42.615V192H40.6ZM47.3104 192.156C46.7991 192.156 46.3571 192.074 45.9844 191.909C45.6118 191.744 45.3258 191.51 45.1264 191.207C44.9271 190.895 44.8274 190.527 44.8274 190.102C44.8274 189.703 44.9184 189.352 45.1004 189.049C45.2824 188.737 45.5598 188.477 45.9324 188.269C46.3138 188.061 46.7861 187.914 47.3494 187.827L49.5204 187.476V188.906L47.7004 189.231C47.4231 189.283 47.2108 189.374 47.0634 189.504C46.9161 189.625 46.8424 189.803 46.8424 190.037C46.8424 190.254 46.9248 190.423 47.0894 190.544C47.2541 190.665 47.4578 190.726 47.7004 190.726C48.0211 190.726 48.3028 190.657 48.5454 190.518C48.7881 190.379 48.9744 190.193 49.1044 189.959C49.2431 189.716 49.3124 189.452 49.3124 189.166V187.32C49.3124 187.051 49.2041 186.826 48.9874 186.644C48.7794 186.462 48.4934 186.371 48.1294 186.371C47.7828 186.371 47.4751 186.466 47.2064 186.657C46.9464 186.848 46.7558 187.099 46.6344 187.411L45.0744 186.67C45.2131 186.271 45.4341 185.929 45.7374 185.643C46.0408 185.357 46.4048 185.136 46.8294 184.98C47.2541 184.824 47.7178 184.746 48.2204 184.746C48.8184 184.746 49.3471 184.854 49.8064 185.071C50.2658 185.288 50.6211 185.591 50.8724 185.981C51.1324 186.362 51.2624 186.809 51.2624 187.32V192H49.4424V190.856L49.8844 190.778C49.6764 191.09 49.4468 191.35 49.1954 191.558C48.9441 191.757 48.6624 191.905 48.3504 192C48.0384 192.104 47.6918 192.156 47.3104 192.156ZM55.4745 192.156C54.6945 192.156 54.0142 191.974 53.4335 191.61C52.8615 191.237 52.4715 190.739 52.2635 190.115L53.6935 189.439C53.8755 189.82 54.1225 190.119 54.4345 190.336C54.7465 190.553 55.0932 190.661 55.4745 190.661C55.7519 190.661 55.9642 190.605 56.1115 190.492C56.2589 190.379 56.3325 190.223 56.3325 190.024C56.3325 189.92 56.3065 189.833 56.2545 189.764C56.2025 189.686 56.1245 189.617 56.0205 189.556C55.9165 189.495 55.7865 189.443 55.6305 189.4L54.4215 189.062C53.8409 188.897 53.3945 188.633 53.0825 188.269C52.7705 187.896 52.6145 187.459 52.6145 186.956C52.6145 186.514 52.7272 186.128 52.9525 185.799C53.1779 185.47 53.4942 185.214 53.9015 185.032C54.3089 184.841 54.7769 184.746 55.3055 184.746C55.9989 184.746 56.6055 184.911 57.1255 185.24C57.6542 185.561 58.0269 186.016 58.2435 186.605L56.8005 187.281C56.6965 186.986 56.5059 186.752 56.2285 186.579C55.9599 186.397 55.6522 186.306 55.3055 186.306C55.0542 186.306 54.8549 186.358 54.7075 186.462C54.5689 186.566 54.4995 186.709 54.4995 186.891C54.4995 186.986 54.5255 187.073 54.5775 187.151C54.6295 187.229 54.7119 187.298 54.8245 187.359C54.9459 187.42 55.0932 187.476 55.2665 187.528L56.3975 187.866C56.9869 188.039 57.4375 188.304 57.7495 188.659C58.0615 189.006 58.2175 189.435 58.2175 189.946C58.2175 190.388 58.1005 190.774 57.8665 191.103C57.6412 191.432 57.3249 191.692 56.9175 191.883C56.5102 192.065 56.0292 192.156 55.4745 192.156ZM59.383 192V182.159H61.333V188.464L60.605 188.23L63.738 184.902H66.143L63.569 187.762L66.13 192H63.92L61.775 188.399L62.906 188.113L60.735 190.479L61.333 189.348V192H59.383ZM73.167 192V184.018H71.282V182.315H75.182V192H73.167ZM80.1262 192.156C79.4589 192.156 78.8652 192.017 78.3452 191.74C77.8252 191.454 77.4179 191.068 77.1232 190.583C76.8285 190.098 76.6812 189.552 76.6812 188.945C76.6812 188.642 76.7115 188.338 76.7722 188.035C76.8329 187.732 76.9542 187.398 77.1362 187.034C77.3182 186.67 77.5912 186.254 77.9552 185.786L80.6462 182.315H83.0512L79.7882 186.488L79.4632 186.033C79.5845 185.972 79.7015 185.925 79.8142 185.89C79.9269 185.855 80.0352 185.829 80.1392 185.812C80.2519 185.795 80.3689 185.786 80.4902 185.786C81.0882 185.786 81.6169 185.92 82.0762 186.189C82.5442 186.458 82.9082 186.826 83.1682 187.294C83.4369 187.753 83.5712 188.273 83.5712 188.854C83.5712 189.487 83.4239 190.054 83.1292 190.557C82.8345 191.051 82.4272 191.441 81.9072 191.727C81.3959 192.013 80.8022 192.156 80.1262 192.156ZM80.1262 190.336C80.3949 190.336 80.6332 190.275 80.8412 190.154C81.0579 190.033 81.2312 189.864 81.3612 189.647C81.4912 189.422 81.5562 189.166 81.5562 188.88C81.5562 188.585 81.4912 188.334 81.3612 188.126C81.2312 187.909 81.0579 187.74 80.8412 187.619C80.6332 187.498 80.3949 187.437 80.1262 187.437C79.8662 187.437 79.6279 187.498 79.4112 187.619C79.1945 187.74 79.0212 187.909 78.8912 188.126C78.7612 188.334 78.6962 188.585 78.6962 188.88C78.6962 189.166 78.7612 189.422 78.8912 189.647C79.0212 189.864 79.1945 190.033 79.4112 190.154C79.6279 190.275 79.8662 190.336 80.1262 190.336Z" fill="#B1B1B1"/>
<path d="M38.858 210V202.967H40.327V210H38.858ZM38.858 202.005V200.315H40.327V202.005H38.858ZM42.0445 210V202.967H43.4485V204.345L43.2795 204.163C43.4529 203.721 43.7302 203.387 44.1115 203.162C44.4929 202.928 44.9349 202.811 45.4375 202.811C45.9575 202.811 46.4169 202.924 46.8155 203.149C47.2142 203.374 47.5262 203.686 47.7515 204.085C47.9769 204.484 48.0895 204.943 48.0895 205.463V210H46.6335V205.853C46.6335 205.498 46.5685 205.199 46.4385 204.956C46.3085 204.705 46.1222 204.514 45.8795 204.384C45.6455 204.245 45.3769 204.176 45.0735 204.176C44.7702 204.176 44.4972 204.245 44.2545 204.384C44.0205 204.514 43.8385 204.705 43.7085 204.956C43.5785 205.207 43.5135 205.506 43.5135 205.853V210H42.0445ZM56.6142 210.156C55.9295 210.156 55.2925 210.03 54.7032 209.779C54.1225 209.528 53.6112 209.181 53.1692 208.739C52.7358 208.288 52.3978 207.76 52.1552 207.153C51.9125 206.546 51.7912 205.879 51.7912 205.151C51.7912 204.432 51.9082 203.769 52.1422 203.162C52.3848 202.547 52.7228 202.018 53.1562 201.576C53.5895 201.125 54.0965 200.779 54.6772 200.536C55.2578 200.285 55.8948 200.159 56.5882 200.159C57.2728 200.159 57.8838 200.276 58.4212 200.51C58.9672 200.744 59.4265 201.052 59.7992 201.433C60.1718 201.806 60.4405 202.213 60.6052 202.655L59.2402 203.318C59.0408 202.789 58.7115 202.365 58.2522 202.044C57.7928 201.715 57.2382 201.55 56.5882 201.55C55.9468 201.55 55.3792 201.702 54.8852 202.005C54.3912 202.308 54.0055 202.729 53.7282 203.266C53.4595 203.803 53.3252 204.432 53.3252 205.151C53.3252 205.87 53.4638 206.503 53.7412 207.049C54.0272 207.586 54.4172 208.007 54.9112 208.31C55.4052 208.605 55.9728 208.752 56.6142 208.752C57.1515 208.752 57.6412 208.644 58.0832 208.427C58.5338 208.202 58.8935 207.89 59.1622 207.491C59.4308 207.084 59.5652 206.611 59.5652 206.074V205.411L60.2542 206.035H56.5882V204.735H61.0862V205.645C61.0862 206.356 60.9648 206.993 60.7222 207.556C60.4795 208.111 60.1502 208.583 59.7342 208.973C59.3182 209.363 58.8415 209.658 58.3042 209.857C57.7668 210.056 57.2035 210.156 56.6142 210.156ZM65.9024 210.156C65.2264 210.156 64.6067 209.996 64.0434 209.675C63.4887 209.354 63.0467 208.917 62.7174 208.362C62.388 207.807 62.2234 207.179 62.2234 206.477C62.2234 205.766 62.388 205.138 62.7174 204.592C63.0467 204.037 63.4887 203.604 64.0434 203.292C64.598 202.971 65.2177 202.811 65.9024 202.811C66.5957 202.811 67.2154 202.971 67.7614 203.292C68.316 203.604 68.7537 204.037 69.0744 204.592C69.4037 205.138 69.5684 205.766 69.5684 206.477C69.5684 207.188 69.4037 207.82 69.0744 208.375C68.745 208.93 68.303 209.367 67.7484 209.688C67.1937 210 66.5784 210.156 65.9024 210.156ZM65.9024 208.791C66.3184 208.791 66.6867 208.691 67.0074 208.492C67.328 208.293 67.5794 208.02 67.7614 207.673C67.952 207.318 68.0474 206.919 68.0474 206.477C68.0474 206.035 67.952 205.641 67.7614 205.294C67.5794 204.947 67.328 204.674 67.0074 204.475C66.6867 204.276 66.3184 204.176 65.9024 204.176C65.495 204.176 65.1267 204.276 64.7974 204.475C64.4767 204.674 64.221 204.947 64.0304 205.294C63.8484 205.641 63.7574 206.035 63.7574 206.477C63.7574 206.919 63.8484 207.318 64.0304 207.673C64.221 208.02 64.4767 208.293 64.7974 208.492C65.1267 208.691 65.495 208.791 65.9024 208.791ZM73.1085 210.156C72.6319 210.156 72.2115 210.074 71.8475 209.909C71.4922 209.736 71.2149 209.502 71.0155 209.207C70.8162 208.904 70.7165 208.548 70.7165 208.141C70.7165 207.76 70.7989 207.417 70.9635 207.114C71.1369 206.811 71.4012 206.555 71.7565 206.347C72.1119 206.139 72.5582 205.992 73.0955 205.905L75.5395 205.502V206.659L73.3815 207.036C72.9915 207.105 72.7055 207.231 72.5235 207.413C72.3415 207.586 72.2505 207.812 72.2505 208.089C72.2505 208.358 72.3502 208.579 72.5495 208.752C72.7575 208.917 73.0219 208.999 73.3425 208.999C73.7412 208.999 74.0879 208.912 74.3825 208.739C74.6859 208.566 74.9199 208.336 75.0845 208.05C75.2492 207.755 75.3315 207.43 75.3315 207.075V205.268C75.3315 204.921 75.2015 204.64 74.9415 204.423C74.6902 204.198 74.3522 204.085 73.9275 204.085C73.5375 204.085 73.1952 204.189 72.9005 204.397C72.6145 204.596 72.4022 204.856 72.2635 205.177L71.0415 204.566C71.1715 204.219 71.3839 203.916 71.6785 203.656C71.9732 203.387 72.3155 203.179 72.7055 203.032C73.1042 202.885 73.5245 202.811 73.9665 202.811C74.5212 202.811 75.0109 202.915 75.4355 203.123C75.8689 203.331 76.2025 203.621 76.4365 203.994C76.6792 204.358 76.8005 204.783 76.8005 205.268V210H75.3965V208.726L75.6955 208.765C75.5309 209.051 75.3185 209.298 75.0585 209.506C74.8072 209.714 74.5169 209.874 74.1875 209.987C73.8669 210.1 73.5072 210.156 73.1085 210.156ZM78.5182 210V200.159H79.9872V210H78.5182ZM87.6796 210V201.615H85.8206V200.315H89.2006V210H87.6796Z" fill="#B1B1B1"/>
<path d="M38.6 173V171.98L41.048 169.364C41.528 168.852 41.904 168.44 42.176 168.128C42.456 167.808 42.656 167.528 42.776 167.288C42.904 167.048 42.968 166.796 42.968 166.532C42.968 166.1 42.836 165.768 42.572 165.536C42.308 165.296 41.968 165.176 41.552 165.176C41.12 165.176 40.748 165.3 40.436 165.548C40.124 165.788 39.908 166.14 39.788 166.604L38.54 166.244C38.636 165.772 38.828 165.364 39.116 165.02C39.404 164.668 39.756 164.396 40.172 164.204C40.596 164.012 41.052 163.916 41.54 163.916C42.108 163.916 42.604 164.024 43.028 164.24C43.452 164.448 43.78 164.74 44.012 165.116C44.252 165.492 44.372 165.928 44.372 166.424C44.372 166.752 44.308 167.072 44.18 167.384C44.06 167.688 43.872 168.012 43.616 168.356C43.36 168.692 43.032 169.072 42.632 169.496L40.472 171.8H44.54V173H38.6ZM45.9639 173V163.916H47.3199V167.78L47.1039 167.612C47.2639 167.204 47.5199 166.896 47.8719 166.688C48.2239 166.472 48.6319 166.364 49.0959 166.364C49.5759 166.364 49.9999 166.468 50.3679 166.676C50.7359 166.884 51.0239 167.172 51.2319 167.54C51.4399 167.908 51.5439 168.328 51.5439 168.8V173H50.1999V169.172C50.1999 168.844 50.1359 168.568 50.0079 168.344C49.8879 168.112 49.7199 167.936 49.5039 167.816C49.2879 167.688 49.0399 167.624 48.7599 167.624C48.4879 167.624 48.2399 167.688 48.0159 167.816C47.7999 167.936 47.6279 168.112 47.4999 168.344C47.3799 168.576 47.3199 168.852 47.3199 169.172V173H45.9639ZM55.7191 173.144C55.2391 173.144 54.7871 173.056 54.3631 172.88C53.9471 172.704 53.5871 172.456 53.2831 172.136C52.9871 171.816 52.7751 171.44 52.6471 171.008L53.8471 170.552C54.0071 170.976 54.2511 171.304 54.5791 171.536C54.9071 171.768 55.2871 171.884 55.7191 171.884C56.0711 171.884 56.3751 171.816 56.6311 171.68C56.8951 171.544 57.0991 171.352 57.2431 171.104C57.3951 170.856 57.4711 170.556 57.4711 170.204C57.4711 169.86 57.3951 169.564 57.2431 169.316C57.0991 169.068 56.8951 168.88 56.6311 168.752C56.3751 168.624 56.0711 168.56 55.7191 168.56C55.5751 168.56 55.4271 168.572 55.2751 168.596C55.1311 168.62 55.0031 168.652 54.8911 168.692L54.5791 168.032L56.9311 165.26H53.1271V164.06H58.5151V165.2L56.2111 167.96L56.1751 167.504C56.7111 167.512 57.1831 167.632 57.5911 167.864C57.9991 168.088 58.3151 168.4 58.5391 168.8C58.7711 169.192 58.8871 169.648 58.8871 170.168C58.8871 170.728 58.7511 171.236 58.4791 171.692C58.2071 172.14 57.8311 172.496 57.3511 172.76C56.8791 173.016 56.3351 173.144 55.7191 173.144ZM63.8471 173.144C63.1351 173.144 62.5111 172.952 61.9751 172.568C61.4391 172.176 61.0191 171.636 60.7151 170.948C60.4191 170.252 60.2711 169.444 60.2711 168.524C60.2711 167.596 60.4191 166.788 60.7151 166.1C61.0191 165.412 61.4351 164.876 61.9631 164.492C62.4991 164.108 63.1231 163.916 63.8351 163.916C64.5471 163.916 65.1671 164.108 65.6951 164.492C66.2311 164.876 66.6471 165.416 66.9431 166.112C67.2471 166.8 67.3991 167.604 67.3991 168.524C67.3991 169.444 67.2511 170.252 66.9551 170.948C66.6591 171.636 66.2431 172.176 65.7071 172.568C65.1791 172.952 64.5591 173.144 63.8471 173.144ZM63.8471 171.848C64.2871 171.848 64.6671 171.712 64.9871 171.44C65.3071 171.168 65.5551 170.784 65.7311 170.288C65.9071 169.792 65.9951 169.204 65.9951 168.524C65.9951 167.844 65.9071 167.256 65.7311 166.76C65.5551 166.264 65.3071 165.88 64.9871 165.608C64.6671 165.336 64.2831 165.2 63.8351 165.2C63.3951 165.2 63.0151 165.336 62.6951 165.608C62.3751 165.88 62.1271 166.264 61.9511 166.76C61.7751 167.256 61.6871 167.844 61.6871 168.524C61.6871 169.196 61.7751 169.784 61.9511 170.288C62.1271 170.784 62.3751 171.168 62.6951 171.44C63.0231 171.712 63.4071 171.848 63.8471 171.848ZM68.9209 173V166.508H70.2169V167.912L70.0489 167.696C70.1849 167.256 70.4329 166.924 70.7929 166.7C71.1529 166.476 71.5649 166.364 72.0289 166.364C72.5489 166.364 73.0089 166.504 73.4089 166.784C73.8169 167.056 74.0889 167.42 74.2249 167.876L73.8409 167.912C74.0329 167.392 74.3249 167.004 74.7169 166.748C75.1169 166.492 75.5729 166.364 76.0849 166.364C76.5329 166.364 76.9369 166.468 77.2969 166.676C77.6649 166.884 77.9569 167.172 78.1729 167.54C78.3889 167.908 78.4969 168.328 78.4969 168.8V173H77.1409V169.172C77.1409 168.844 77.0809 168.568 76.9609 168.344C76.8489 168.112 76.6889 167.936 76.4809 167.816C76.2809 167.688 76.0449 167.624 75.7729 167.624C75.5009 167.624 75.2609 167.688 75.0529 167.816C74.8449 167.936 74.6809 168.112 74.5609 168.344C74.4409 168.576 74.3809 168.852 74.3809 169.172V173H73.0369V169.172C73.0369 168.844 72.9769 168.568 72.8569 168.344C72.7449 168.112 72.5849 167.936 72.3769 167.816C72.1769 167.688 71.9369 167.624 71.6569 167.624C71.3849 167.624 71.1449 167.688 70.9369 167.816C70.7289 167.936 70.5649 168.112 70.4449 168.344C70.3329 168.576 70.2769 168.852 70.2769 169.172V173H68.9209ZM79.9482 173V166.508H81.3043V173H79.9482ZM79.9482 165.62V164.06H81.3043V165.62H79.9482ZM82.8897 173V166.508H84.1857V167.78L84.0297 167.612C84.1897 167.204 84.4457 166.896 84.7977 166.688C85.1497 166.472 85.5577 166.364 86.0217 166.364C86.5017 166.364 86.9257 166.468 87.2937 166.676C87.6617 166.884 87.9497 167.172 88.1577 167.54C88.3657 167.908 88.4697 168.332 88.4697 168.812V173H87.1257V169.172C87.1257 168.844 87.0657 168.568 86.9457 168.344C86.8257 168.112 86.6537 167.936 86.4297 167.816C86.2137 167.688 85.9657 167.624 85.6857 167.624C85.4057 167.624 85.1537 167.688 84.9297 167.816C84.7137 167.936 84.5457 168.112 84.4257 168.344C84.3057 168.576 84.2457 168.852 84.2457 169.172V173H82.8897ZM93.9626 173.144C93.5226 173.144 93.1346 173.068 92.7986 172.916C92.4706 172.756 92.2146 172.54 92.0306 172.268C91.8466 171.988 91.7546 171.66 91.7546 171.284C91.7546 170.932 91.8306 170.616 91.9826 170.336C92.1426 170.056 92.3866 169.82 92.7146 169.628C93.0426 169.436 93.4546 169.3 93.9506 169.22L96.2066 168.848V169.916L94.2146 170.264C93.8546 170.328 93.5906 170.444 93.4226 170.612C93.2546 170.772 93.1706 170.98 93.1706 171.236C93.1706 171.484 93.2626 171.688 93.4466 171.848C93.6386 172 93.8826 172.076 94.1786 172.076C94.5466 172.076 94.8666 171.996 95.1386 171.836C95.4186 171.676 95.6346 171.464 95.7866 171.2C95.9386 170.928 96.0146 170.628 96.0146 170.3V168.632C96.0146 168.312 95.8946 168.052 95.6546 167.852C95.4226 167.644 95.1106 167.54 94.7186 167.54C94.3586 167.54 94.0426 167.636 93.7706 167.828C93.5066 168.012 93.3106 168.252 93.1826 168.548L92.0546 167.984C92.1746 167.664 92.3706 167.384 92.6426 167.144C92.9146 166.896 93.2306 166.704 93.5906 166.568C93.9586 166.432 94.3466 166.364 94.7546 166.364C95.2666 166.364 95.7186 166.46 96.1106 166.652C96.5106 166.844 96.8186 167.112 97.0346 167.456C97.2586 167.792 97.3706 168.184 97.3706 168.632V173H96.0746V171.824L96.3506 171.86C96.1986 172.124 96.0026 172.352 95.7626 172.544C95.5306 172.736 95.2626 172.884 94.9586 172.988C94.6626 173.092 94.3306 173.144 93.9626 173.144ZM102.088 175.64C101.616 175.64 101.18 175.564 100.78 175.412C100.38 175.26 100.036 175.048 99.7481 174.776C99.4601 174.512 99.2441 174.2 99.1001 173.84L100.348 173.324C100.46 173.628 100.664 173.88 100.96 174.08C101.264 174.28 101.636 174.38 102.076 174.38C102.42 174.38 102.728 174.312 103 174.176C103.272 174.048 103.488 173.856 103.648 173.6C103.808 173.352 103.888 173.052 103.888 172.7V171.236L104.128 171.512C103.904 171.928 103.592 172.244 103.192 172.46C102.8 172.676 102.356 172.784 101.86 172.784C101.26 172.784 100.72 172.644 100.24 172.364C99.7601 172.084 99.3801 171.7 99.1001 171.212C98.8281 170.724 98.6921 170.176 98.6921 169.568C98.6921 168.952 98.8281 168.404 99.1001 167.924C99.3801 167.444 99.7561 167.064 100.228 166.784C100.7 166.504 101.24 166.364 101.848 166.364C102.344 166.364 102.784 166.472 103.168 166.688C103.56 166.896 103.88 167.2 104.128 167.6L103.948 167.936V166.508H105.232V172.7C105.232 173.26 105.096 173.76 104.824 174.2C104.56 174.648 104.192 175 103.72 175.256C103.248 175.512 102.704 175.64 102.088 175.64ZM102.016 171.524C102.376 171.524 102.696 171.44 102.976 171.272C103.256 171.096 103.476 170.864 103.636 170.576C103.804 170.28 103.888 169.948 103.888 169.58C103.888 169.212 103.804 168.88 103.636 168.584C103.468 168.288 103.244 168.056 102.964 167.888C102.684 167.712 102.368 167.624 102.016 167.624C101.648 167.624 101.32 167.712 101.032 167.888C100.744 168.056 100.516 168.288 100.348 168.584C100.188 168.872 100.108 169.204 100.108 169.58C100.108 169.94 100.188 170.268 100.348 170.564C100.516 170.86 100.744 171.096 101.032 171.272C101.32 171.44 101.648 171.524 102.016 171.524ZM109.951 173.144C109.327 173.144 108.755 172.996 108.235 172.7C107.723 172.404 107.315 172 107.011 171.488C106.707 170.976 106.555 170.396 106.555 169.748C106.555 169.092 106.707 168.512 107.011 168.008C107.315 167.496 107.723 167.096 108.235 166.808C108.747 166.512 109.319 166.364 109.951 166.364C110.591 166.364 111.163 166.512 111.667 166.808C112.179 167.096 112.583 167.496 112.879 168.008C113.183 168.512 113.335 169.092 113.335 169.748C113.335 170.404 113.183 170.988 112.879 171.5C112.575 172.012 112.167 172.416 111.655 172.712C111.143 173 110.575 173.144 109.951 173.144ZM109.951 171.884C110.335 171.884 110.675 171.792 110.971 171.608C111.267 171.424 111.499 171.172 111.667 170.852C111.843 170.524 111.931 170.156 111.931 169.748C111.931 169.34 111.843 168.976 111.667 168.656C111.499 168.336 111.267 168.084 110.971 167.9C110.675 167.716 110.335 167.624 109.951 167.624C109.575 167.624 109.235 167.716 108.931 167.9C108.635 168.084 108.399 168.336 108.223 168.656C108.055 168.976 107.971 169.34 107.971 169.748C107.971 170.156 108.055 170.524 108.223 170.852C108.399 171.172 108.635 171.424 108.931 171.608C109.235 171.792 109.575 171.884 109.951 171.884Z" fill="#B1B1B1"/>
</svg>
