<svg width="144" height="48" viewBox="0 0 144 48" fill="none" xmlns="http://www.w3.org/2000/svg">
<path d="M57.962 37.2904C56.9207 37.2904 55.9967 37.085 55.19 36.6744C54.398 36.2637 53.782 35.677 53.342 34.9144C52.9167 34.1517 52.704 33.2717 52.704 32.2744V26.5104C52.704 25.513 52.9167 24.6404 53.342 23.8924C53.782 23.1444 54.398 22.565 55.19 22.1544C55.9967 21.7437 56.9207 21.5384 57.962 21.5384C59.0033 21.5384 59.92 21.7364 60.712 22.1324C61.5187 22.5284 62.1347 23.093 62.56 23.8264C63 24.5597 63.22 25.4104 63.22 26.3784V26.4664C63.22 26.5397 63.1907 26.6057 63.132 26.6644C63.088 26.723 63.0293 26.7524 62.956 26.7524L59.832 26.8844C59.656 26.8844 59.568 26.8037 59.568 26.6424V26.3344C59.568 25.8357 59.4213 25.4324 59.128 25.1244C58.8347 24.8164 58.446 24.6624 57.962 24.6624C57.478 24.6624 57.0893 24.8164 56.796 25.1244C56.5027 25.4324 56.356 25.8357 56.356 26.3344V32.4944C56.356 32.993 56.5027 33.3964 56.796 33.7044C57.0893 34.0124 57.478 34.1664 57.962 34.1664C58.446 34.1664 58.8347 34.0124 59.128 33.7044C59.4213 33.3964 59.568 32.993 59.568 32.4944V32.1864C59.568 32.025 59.656 31.9444 59.832 31.9444L62.956 32.0764C63.0293 32.0764 63.088 32.1057 63.132 32.1644C63.1907 32.223 63.22 32.289 63.22 32.3624V32.4064C63.22 33.3744 63 34.2324 62.56 34.9804C62.1347 35.7137 61.5187 36.2857 60.712 36.6964C59.92 37.0924 59.0033 37.2904 57.962 37.2904ZM71.4934 21.9784C71.4934 21.905 71.5154 21.8464 71.5594 21.8024C71.618 21.7437 71.684 21.7144 71.7574 21.7144H74.8814C74.9547 21.7144 75.0134 21.7437 75.0574 21.8024C75.116 21.8464 75.1454 21.905 75.1454 21.9784V36.8504C75.1454 36.9237 75.116 36.9897 75.0574 37.0484C75.0134 37.0924 74.9547 37.1144 74.8814 37.1144H71.7574C71.684 37.1144 71.618 37.0924 71.5594 37.0484C71.5154 36.9897 71.4934 36.9237 71.4934 36.8504V31.0424C71.4934 30.969 71.4567 30.9324 71.3834 30.9324H68.5454C68.472 30.9324 68.4354 30.969 68.4354 31.0424V36.8504C68.4354 36.9237 68.406 36.9897 68.3474 37.0484C68.3034 37.0924 68.2447 37.1144 68.1714 37.1144H65.0474C64.974 37.1144 64.908 37.0924 64.8494 37.0484C64.8054 36.9897 64.7834 36.9237 64.7834 36.8504V21.9784C64.7834 21.905 64.8054 21.8464 64.8494 21.8024C64.908 21.7437 64.974 21.7144 65.0474 21.7144H68.1714C68.2447 21.7144 68.3034 21.7437 68.3474 21.8024C68.406 21.8464 68.4354 21.905 68.4354 21.9784V27.6984C68.4354 27.7717 68.472 27.8084 68.5454 27.8084H71.3834C71.4567 27.8084 71.4934 27.7717 71.4934 27.6984V21.9784ZM77.1646 37.1144C77.0912 37.1144 77.0252 37.0924 76.9666 37.0484C76.9226 36.9897 76.9006 36.9237 76.9006 36.8504V21.9784C76.9006 21.905 76.9226 21.8464 76.9666 21.8024C77.0252 21.7437 77.0912 21.7144 77.1646 21.7144H80.2886C80.3619 21.7144 80.4206 21.7437 80.4646 21.8024C80.5232 21.8464 80.5526 21.905 80.5526 21.9784V36.8504C80.5526 36.9237 80.5232 36.9897 80.4646 37.0484C80.4206 37.0924 80.3619 37.1144 80.2886 37.1144H77.1646ZM90.9146 21.8904C90.9732 21.773 91.0759 21.7144 91.2226 21.7144H94.3246C94.3979 21.7144 94.4566 21.7437 94.5006 21.8024C94.5592 21.8464 94.5886 21.905 94.5886 21.9784V36.8504C94.5886 36.9237 94.5592 36.9897 94.5006 37.0484C94.4566 37.0924 94.3979 37.1144 94.3246 37.1144H91.2006C91.1272 37.1144 91.0612 37.0924 91.0026 37.0484C90.9586 36.9897 90.9366 36.9237 90.9366 36.8504V27.7204C90.9366 27.6617 90.9219 27.6324 90.8926 27.6324C90.8632 27.6177 90.8339 27.6324 90.8046 27.6764L89.0886 30.5364C89.0299 30.6537 88.9272 30.7124 88.7806 30.7124H88.1646C88.0179 30.7124 87.9152 30.6537 87.8566 30.5364L86.1406 27.6764C86.1112 27.6324 86.0819 27.6177 86.0526 27.6324C86.0232 27.6324 86.0086 27.6617 86.0086 27.7204V36.8504C86.0086 36.9237 85.9792 36.9897 85.9206 37.0484C85.8766 37.0924 85.8179 37.1144 85.7446 37.1144H82.6206C82.5472 37.1144 82.4812 37.0924 82.4226 37.0484C82.3786 36.9897 82.3566 36.9237 82.3566 36.8504V21.9784C82.3566 21.905 82.3786 21.8464 82.4226 21.8024C82.4812 21.7437 82.5472 21.7144 82.6206 21.7144H85.7226C85.8692 21.7144 85.9719 21.773 86.0306 21.8904L88.4066 25.8944C88.4506 25.9824 88.4946 25.9824 88.5386 25.8944L90.9146 21.8904ZM102.151 21.7144C103.075 21.7144 103.889 21.9197 104.593 22.3304C105.312 22.7264 105.862 23.2984 106.243 24.0464C106.639 24.7797 106.837 25.623 106.837 26.5764C106.837 27.515 106.639 28.3437 106.243 29.0624C105.862 29.781 105.312 30.3384 104.593 30.7344C103.889 31.1157 103.075 31.3064 102.151 31.3064H100.083C100.01 31.3064 99.9729 31.343 99.9729 31.4164V36.8504C99.9729 36.9237 99.9436 36.9897 99.8849 37.0484C99.8409 37.0924 99.7822 37.1144 99.7089 37.1144H96.5849C96.5116 37.1144 96.4456 37.0924 96.3869 37.0484C96.3429 36.9897 96.3209 36.9237 96.3209 36.8504V21.9784C96.3209 21.905 96.3429 21.8464 96.3869 21.8024C96.4456 21.7437 96.5116 21.7144 96.5849 21.7144H102.151ZM101.535 28.4244C102.034 28.4244 102.437 28.2704 102.745 27.9624C103.053 27.6397 103.207 27.207 103.207 26.6644C103.207 26.107 103.053 25.667 102.745 25.3444C102.437 25.007 102.034 24.8384 101.535 24.8384H100.083C100.01 24.8384 99.9729 24.875 99.9729 24.9484V28.3144C99.9729 28.3877 100.01 28.4244 100.083 28.4244H101.535ZM118.346 21.7144C118.419 21.7144 118.478 21.7437 118.522 21.8024C118.58 21.8464 118.61 21.905 118.61 21.9784V24.5964C118.61 24.6697 118.58 24.7357 118.522 24.7944C118.478 24.8384 118.419 24.8604 118.346 24.8604H115.046C114.972 24.8604 114.936 24.897 114.936 24.9704V36.8504C114.936 36.9237 114.906 36.9897 114.848 37.0484C114.804 37.0924 114.745 37.1144 114.672 37.1144H111.548C111.474 37.1144 111.408 37.0924 111.35 37.0484C111.306 36.9897 111.284 36.9237 111.284 36.8504V24.9704C111.284 24.897 111.247 24.8604 111.174 24.8604H108.006C107.932 24.8604 107.866 24.8384 107.808 24.7944C107.764 24.7357 107.742 24.6697 107.742 24.5964V21.9784C107.742 21.905 107.764 21.8464 107.808 21.8024C107.866 21.7437 107.932 21.7144 108.006 21.7144H118.346ZM124.738 37.3344C123.682 37.3344 122.75 37.1217 121.944 36.6964C121.137 36.271 120.506 35.6697 120.052 34.8924C119.612 34.115 119.392 33.213 119.392 32.1864V26.6424C119.392 25.6304 119.612 24.743 120.052 23.9804C120.506 23.203 121.137 22.6017 121.944 22.1764C122.75 21.751 123.682 21.5384 124.738 21.5384C125.794 21.5384 126.725 21.751 127.532 22.1764C128.338 22.6017 128.962 23.203 129.402 23.9804C129.856 24.743 130.084 25.6304 130.084 26.6424V32.1864C130.084 33.213 129.856 34.115 129.402 34.8924C128.962 35.6697 128.338 36.271 127.532 36.6964C126.725 37.1217 125.794 37.3344 124.738 37.3344ZM124.738 34.1884C125.251 34.1884 125.662 34.0197 125.97 33.6824C126.278 33.3304 126.432 32.8757 126.432 32.3184V26.5544C126.432 25.997 126.27 25.5424 125.948 25.1904C125.64 24.8384 125.236 24.6624 124.738 24.6624C124.224 24.6624 123.814 24.8384 123.506 25.1904C123.198 25.5277 123.044 25.9824 123.044 26.5544V32.3184C123.044 32.8757 123.198 33.3304 123.506 33.6824C123.814 34.0197 124.224 34.1884 124.738 34.1884ZM131.971 37.1144C131.898 37.1144 131.832 37.0924 131.773 37.0484C131.729 36.9897 131.707 36.9237 131.707 36.8504V21.9784C131.707 21.905 131.729 21.8464 131.773 21.8024C131.832 21.7437 131.898 21.7144 131.971 21.7144H135.095C135.169 21.7144 135.227 21.7437 135.271 21.8024C135.33 21.8464 135.359 21.905 135.359 21.9784V27.3244C135.359 27.383 135.374 27.4197 135.403 27.4344C135.433 27.4344 135.462 27.4124 135.491 27.3684L138.857 21.8904C138.916 21.773 139.019 21.7144 139.165 21.7144H142.597C142.7 21.7144 142.766 21.7437 142.795 21.8024C142.839 21.8464 142.832 21.9197 142.773 22.0224L138.813 28.4464C138.799 28.4904 138.799 28.5417 138.813 28.6004L142.971 36.8064C143.001 36.865 143.015 36.909 143.015 36.9384C143.015 37.0557 142.935 37.1144 142.773 37.1144H139.363C139.231 37.1144 139.129 37.0484 139.055 36.9164L136.305 31.4164C136.247 31.3284 136.195 31.3284 136.151 31.4164L135.403 32.6044C135.374 32.663 135.359 32.707 135.359 32.7364V36.8504C135.359 36.9237 135.33 36.9897 135.271 37.0484C135.227 37.0924 135.169 37.1144 135.095 37.1144H131.971Z" fill="#302D27"/>
<rect x="8.69385" y="13.5538" width="30.0329" height="30.0329" rx="3" fill="#FADE7E"/>
<mask id="mask0_60_940" style="mask-type:alpha" maskUnits="userSpaceOnUse" x="0" y="0" width="48" height="48">
<path d="M47.1623 24C47.1623 37.1917 36.6047 47.8857 23.5812 47.8857C10.5576 47.8857 0 37.1917 0 24C0 10.8083 10.5576 0.11438 23.5812 0.11438C36.6047 0.11438 47.1623 10.8083 47.1623 24Z" fill="#D9D9D9"/>
</mask>
<g mask="url(#mask0_60_940)">
<path d="M32.3424 27.1745L14.0557 27.1073L13.9393 59.6036L32.2261 59.6707L32.3424 27.1745Z" fill="#3A2520"/>
<path d="M23.2431 73.3258C20.0362 73.3039 17.4814 70.6693 17.4835 67.4625L17.5584 46.6473C17.58 43.399 20.181 40.8113 23.347 40.8134C26.5539 40.8352 29.1086 43.4698 29.1066 46.6767L29.0317 67.4918C28.9994 70.7096 26.4091 73.3279 23.2431 73.3258Z" fill="#834F44"/>
<path d="M36.9676 24.5353C40.3916 23.3072 42.1845 19.5 40.972 16.0317C39.7595 12.5634 36.0009 10.7474 32.5768 11.9755C29.1527 13.2037 27.3599 17.0109 28.5723 20.4792C29.7848 23.9475 33.5435 25.7635 36.9676 24.5353Z" fill="#3A2520"/>
<path d="M12.907 24.4441C16.3311 23.216 18.1239 19.4088 16.9115 15.9405C15.699 12.4722 11.9403 10.6562 8.51624 11.8844C5.09217 13.1125 3.29932 16.9197 4.5118 20.388C5.72428 23.8563 9.48294 25.6723 12.907 24.4441Z" fill="#3A2520"/>
<path d="M12.8515 22.3649C14.9301 21.6193 16.0185 19.3081 15.2825 17.2027C14.5464 15.0972 12.2647 13.9948 10.186 14.7403C8.10742 15.4859 7.01905 17.7971 7.7551 19.9025C8.49115 22.008 10.7729 23.1104 12.8515 22.3649Z" fill="#834F43"/>
<path d="M35.7915 22.3649C37.8701 21.6193 38.9585 19.3081 38.2224 17.2027C37.4864 15.0972 35.2046 13.9948 33.126 14.7403C31.0474 15.4859 29.959 17.7971 30.695 19.9025C31.4311 22.008 33.7128 23.1104 35.7915 22.3649Z" fill="#834F43"/>
<path d="M20.3215 7.68262L24.0052 12.6703C22.6518 13.5694 20.8397 13.254 19.8418 11.9572C18.8634 10.6188 19.0929 8.74386 20.3215 7.68262Z" fill="#3A2520"/>
<path d="M25.8659 6.058L25.8339 14.8261C23.5683 14.6734 21.7778 12.7645 21.7754 10.4211C21.773 8.07764 23.5952 6.18296 25.8659 6.058Z" fill="#3A2520"/>
<path d="M28.7583 9.28137L28.7263 18.0494C26.4606 17.8968 24.6701 15.9879 24.6677 13.6444C24.6654 11.301 26.4876 9.40632 28.7583 9.28137Z" fill="#3A2520"/>
<path d="M26.9004 33.3198C32.6628 31.253 35.6801 24.8457 33.6396 19.0089C31.599 13.172 25.2735 10.1158 19.511 12.1827C13.7486 14.2495 10.7313 20.6568 12.7718 26.4936C14.8123 32.3305 21.1379 35.3867 26.9004 33.3198Z" fill="#3A2520"/>
<path d="M25.701 36.5056C29.125 35.2775 30.9179 31.4703 29.7054 28.002C28.4929 24.5337 24.7343 22.7177 21.3102 23.9458C17.8861 25.174 16.0933 28.9812 17.3057 32.4494C18.5182 35.9177 22.2769 37.7337 25.701 36.5056Z" fill="#F4B586"/>
<path d="M21.9988 27.7665C25.0888 26.6582 26.7067 23.2225 25.6126 20.0925C24.5184 16.9626 21.1264 15.3238 18.0364 16.4321C14.9464 17.5404 13.3284 20.9762 14.4226 24.1061C15.5168 27.236 18.9088 28.8749 21.9988 27.7665Z" fill="#F4B586"/>
<path d="M28.6638 27.6513C31.7538 26.5429 33.3718 23.1072 32.2776 19.9773C31.1834 16.8473 27.7914 15.2085 24.7014 16.3168C21.6114 17.4251 19.9935 20.8609 21.0876 23.9908C22.1818 27.1207 25.5738 28.7596 28.6638 27.6513Z" fill="#F4B586"/>
<path d="M28.3019 25.6429C30.2227 24.9539 31.2285 22.8182 30.5483 20.8725C29.8681 18.9269 27.7596 17.9082 25.8388 18.5971C23.918 19.2861 22.9122 21.4218 23.5924 23.3675C24.2726 25.3131 26.3811 26.3318 28.3019 25.6429Z" fill="white"/>
<path d="M24.0354 25.0617C24.4322 24.9194 24.64 24.4782 24.4995 24.0763C24.3589 23.6744 23.9234 23.4639 23.5266 23.6063C23.1298 23.7486 22.922 24.1898 23.0625 24.5917C23.203 24.9936 23.6386 25.2041 24.0354 25.0617Z" fill="white"/>
<path d="M21.5539 25.6171C23.4747 24.9281 24.4804 22.7924 23.8003 20.8467C23.1201 18.9011 21.0116 17.8824 19.0907 18.5713C17.1699 19.2603 16.1642 21.396 16.8444 23.3417C17.5245 25.2873 19.633 26.306 21.5539 25.6171Z" fill="white"/>
<path d="M27.3765 22.7827C27.7941 22.6329 28.0127 22.1686 27.8648 21.7457C27.717 21.3227 27.2586 21.1013 26.841 21.251C26.4235 21.4008 26.2048 21.8651 26.3527 22.2881C26.5006 22.711 26.9589 22.9325 27.3765 22.7827Z" fill="#3A2520"/>
<path d="M18.817 27.5499C20.6848 27.7847 22.2967 27.178 22.4171 26.1949C22.5376 25.2118 21.121 24.2245 19.2532 23.9897C17.3853 23.7549 15.7735 24.3616 15.653 25.3447C15.5326 26.3278 16.9491 27.3151 18.817 27.5499Z" fill="#F4B586"/>
<path d="M23.4446 27.6831C24.3132 27.7922 25.1047 27.1675 25.2125 26.2877C25.3203 25.4079 24.7036 24.6061 23.835 24.4969C22.9664 24.3878 22.1748 25.0125 22.067 25.8923C21.9592 26.7721 22.576 27.5739 23.4446 27.6831Z" fill="#F4B586"/>
<path d="M21.0142 22.7621C21.4318 22.6123 21.6504 22.148 21.5025 21.7251C21.3547 21.3021 20.8963 21.0806 20.4787 21.2304C20.0612 21.3802 19.8425 21.8445 19.9904 22.2674C20.1383 22.6904 20.5966 22.9119 21.0142 22.7621Z" fill="#3A2520"/>
<path d="M21.3576 33.8354C19.7674 32.8888 19.2118 30.8128 20.1463 29.202C20.3686 28.8182 20.8582 28.6875 21.2374 28.9108L25.6473 31.5072C26.0278 31.7312 26.155 32.2232 25.9319 32.6084C25.0081 34.2497 22.9478 34.7819 21.3576 33.8354Z" fill="white"/>
</g>
</svg>
