<svg xmlns="http://www.w3.org/2000/svg" xmlns:xlink="http://www.w3.org/1999/xlink" width="1079.76" height="1080" viewBox="0 0 1079.76 1080"><defs><linearGradient id="linear-gradient" x1="74.86" y1="164.84" x2="716.84" y2="823.88" gradientUnits="userSpaceOnUse"><stop offset="0.03" stop-color="#191919"/><stop offset="0.25" stop-color="#0e0e0e"/><stop offset="0.6" stop-color="#040404"/><stop offset="1"/></linearGradient></defs><g id="Layer_2" data-name="Layer 2"><g id="Layer_1-2" data-name="Layer 1"><path d="M908.12,48.14v983.72c0,26.59-21,48.14-47,48.14H0V0H861.11C887.08,0,908.12,21.56,908.12,48.14Z" style="fill:url(#linear-gradient)"/><path d="M1077.58,494.51a40.33,40.33,0,0,0-51.19-25.15L921,505.31l-12,4.09L904.33,511l-14,4.76,5-8.12.4-.67,1.44-2.35L921,465.48l39.88-65.41h0l1.18-1.93a38.87,38.87,0,0,0-53.94-53.07h0a38.84,38.84,0,0,0-12.41,12.63L846,439.27l-17.18,28.18-16,26.17h0l-6,9.92a129.86,129.86,0,0,0-14.3-3.92h-.07a127.56,127.56,0,0,0-12.91-2.08h0l-2.55-.26c-1.83-.16-3.67-.29-5.51-.36-.42,0-.85,0-1.28-.06L763.53,489h0s0,0,0,0l-24.79-29.32a40.28,40.28,0,0,0-34.14-14.16,39.35,39.35,0,0,0-7.5,1.34h0a40.21,40.21,0,0,0-29,32.81c-.05.31-.14.61-.19.92l-1.65,11.13-5.46,36.83-.76,5.16-2,13.31h0l-1.3,8.82a128.77,128.77,0,0,0-10.12,18.77A130.29,130.29,0,0,0,636,618.88l-12.25,7.51L572.14,658l-7.76,4.75-5-1.32-6.4-1.69,1.88-5.67,5.53-16.68.19-.61a6.14,6.14,0,0,0-5.31-8,29.34,29.34,0,0,0-8.9.58,29.24,29.24,0,0,0-5.58,1.78A30.26,30.26,0,0,0,524,649.4c-.14.42-.27.83-.38,1.26-.26,1-.47,1.92-.65,2.88-.29-.17-.57-.36-.88-.51a23.6,23.6,0,0,0-28.66,5.52,4.79,4.79,0,0,0,1.41,7.38l14.92,7.71-68.49,42-92.72,56.83,1-7.72a6.49,6.49,0,0,0-7.13-7.29,32,32,0,0,0-27,21.93l-20.21-3c-6.7-1-9.78,5.89-5.46,12.59a44.7,44.7,0,0,0,11.82,12.3L84.26,934.44A19.56,19.56,0,0,0,84.5,931,19.86,19.86,0,0,0,69,912a4,4,0,0,0-4.9,4l.33,19.56a19.54,19.54,0,0,0-9.9-4.29A19.85,19.85,0,0,0,33.4,943.85a4,4,0,0,0,3.24,5.42L56,951.78,0,986.08V1080H246.45a25.26,25.26,0,0,0-1.88-13.53l81-49.65a25.22,25.22,0,0,0,11.34,13.88,8.17,8.17,0,0,0,8.46-.2,8.48,8.48,0,0,0,4.86-7.43l.21-7.93,22.14-7.27a9.46,9.46,0,0,0,1.59-.7c5.39-2.34,7.12-8.91,2.93-12.53a23.17,23.17,0,0,0-8-4.48L606.84,844.44A34.26,34.26,0,0,0,619,860.19a11.13,11.13,0,0,0,11.77.7,11.48,11.48,0,0,0,6.87-9.16l2.19-17.28A38.18,38.18,0,0,0,670,838a12,12,0,0,0,2.26-1c8-3.5,10-14.32,3.66-20.73L652.38,792.8l70.75-43.37a129.66,129.66,0,0,0,86.2-.83l.67-.24c1.63-.62,3.26-1.24,4.88-1.92.84-.34,1.66-.72,2.49-1.08,1.09-.48,2.18-1,3.26-1.47,1.78-.83,3.53-1.71,5.27-2.63l.57-.3c2.29-1.22,4.57-2.5,6.82-3.87,3-1.81,5.8-3.72,8.56-5.73s5.58-4.22,8.2-6.49l25.4,11.58a40.27,40.27,0,0,0,37.85-2.32,38.26,38.26,0,0,0,4.21-3A40.81,40.81,0,0,0,921,728a40.31,40.31,0,0,0-3.46-59.52v0a29,29,0,0,0-3.09-2.24l6.56-1.33,13.71-2.76a40.39,40.39,0,0,0,13.11-5.14c.45-.28.89-.55,1.31-.83l0,0a40.33,40.33,0,0,0-9.77-71.82l113-38.57A40.32,40.32,0,0,0,1077.58,494.51Z" style="fill:#070300;opacity:0.15"/><rect x="489.91" y="507.8" width="156.84" height="284.9" transform="translate(825.75 -174.1) rotate(58.5)" style="fill:#f4b586"/><polygon points="608.34 741.35 602.03 745.22 593.9 750.19 568.4 765.83 329.9 912 329.89 912 311.61 923.21 295.63 933 287.09 938.23 205.38 988.31 177.31 1005.51 58.65 1078.24 55.78 1080 0 1080 0 884 17.57 873.23 26.18 867.95 31.77 864.53 45.85 855.9 263.14 722.72 275.72 715.01 292.77 704.56 310.17 693.9 471.38 595.09 484.79 586.87 486.42 585.88 492.41 582.21 500.2 577.43 505.79 574 509.37 579.85 513.05 585.85 515.86 590.43 527.66 609.7 527.96 610.19 538.72 627.74 540.8 631.13 543.47 635.5 554.87 654.1 559.38 661.46 566.3 672.75 569.71 678.3 570.36 679.38 573.2 684 587.13 706.74 594.7 719.1 596.56 722.12 596.56 722.13 597.77 724.1 597.8 724.15 603.49 733.43 608.34 741.35" style="fill:#fade7e;fill-rule:evenodd"/><path d="M485.62,570.86a30.25,30.25,0,0,1,31.25-20.63,6.14,6.14,0,0,1,5.32,8l-14.75,44.51a6.14,6.14,0,0,1-9.07,3.28A30.27,30.27,0,0,1,485.62,570.86Z" style="fill:#fade7e;fill-rule:evenodd"/><path d="M483.71,574.49a23.57,23.57,0,0,1,12.07,26.57,4.79,4.79,0,0,1-6.84,3.11l-32.47-16.78a4.79,4.79,0,0,1-1.42-7.38A23.57,23.57,0,0,1,483.71,574.49Z" style="fill:#fade7e;fill-rule:evenodd"/><path d="M508.72,611.48a30.25,30.25,0,0,1-22.52-29.91,6.13,6.13,0,0,1,7.7-5.8l45.33,12a6.15,6.15,0,0,1,3.84,8.85A30.26,30.26,0,0,1,508.72,611.48Z" style="fill:#fade7e;fill-rule:evenodd"/><path d="M533.78,639.87a30.27,30.27,0,0,1-34.19-15.26,6.14,6.14,0,0,1,3.93-8.81L549,604.31a6.15,6.15,0,0,1,7.64,5.89A30.26,30.26,0,0,1,533.78,639.87Z" style="fill:#fade7e;fill-rule:evenodd"/><path d="M275.7,706.55a32,32,0,0,1,28.35-27.67,6.5,6.5,0,0,1,7.13,7.3l-6.44,49.18a6.49,6.49,0,0,1-8.77,5.22A32,32,0,0,1,275.7,706.55Z" style="fill:#fade7e;fill-rule:evenodd"/><path d="M33.24,871.38a4,4,0,0,1-4.49,3.3l-11.18-1.45L0,871V857.86a19.87,19.87,0,0,1,26-1,20,20,0,0,1,7.29,13.34A4.25,4.25,0,0,1,33.24,871.38Z" style="fill:#fade7e;fill-rule:evenodd"/><path d="M46.09,852.45A19.86,19.86,0,0,1,31.23,872a4,4,0,0,1-5.05-3.83l-.54-30.77a4,4,0,0,1,4.91-4A19.85,19.85,0,0,1,46.09,852.45Z" style="fill:#fade7e;fill-rule:evenodd"/><path d="M61.41,1074l-2.76,4.28L57.51,1080h-30a25,25,0,0,1,31.29-13.61A5.09,5.09,0,0,1,61.41,1074Z" style="fill:#fade7e;fill-rule:evenodd"/><path d="M203.47,1012.05a25.08,25.08,0,0,1-29.39,10,5.09,5.09,0,0,1-2.59-7.57l21.16-32.64a5.09,5.09,0,0,1,8-.74A25.09,25.09,0,0,1,203.47,1012.05Z" style="fill:#fade7e;fill-rule:evenodd"/><path d="M566.18,644.05a38.13,38.13,0,0,1,2.51,39.07c-4.38,8.53-16.44,9.08-21.88,1.18l-25.14-36.52c-5.44-7.9-.63-19,8.91-20A38.13,38.13,0,0,1,566.18,644.05Z" style="fill:#fade7e;fill-rule:evenodd"/><path d="M559.55,697.41a38.14,38.14,0,0,1,26.38-28.93c9.18-2.77,17.94,5.53,16,14.93l-8.83,43.44c-1.91,9.41-13.22,13.63-20.59,7.49A38.11,38.11,0,0,1,559.55,697.41Z" style="fill:#fade7e;fill-rule:evenodd"/><rect x="707.94" y="341.22" width="266.74" height="77.7" rx="38.85" transform="translate(1603.74 -140.47) rotate(121.37)" style="fill:#f4b586"/><rect x="771.39" y="420.07" width="275.16" height="80.66" rx="40.33" transform="translate(1917.92 602.57) rotate(161.16)" style="fill:#f4b586"/><path d="M593.6,749.91a38.11,38.11,0,0,1-9.55-38c2.76-9.19,14.52-11.91,21.3-5.13l31.34,31.35c6.79,6.79,4.06,18.55-5.13,21.3A38.12,38.12,0,0,1,593.6,749.91Z" style="fill:#fade7e;fill-rule:evenodd"/><path d="M313.11,912.12c9.12-3,18.55-1,24.8,4.36,4.41,3.8,2.29,10.87-3.74,12.85l-27.83,9.13c-6,2-11.92-2.45-10.62-8.13C297.55,922.28,304,915.12,313.11,912.12Z" style="fill:#fade7e;fill-rule:evenodd"/><path d="M285.81,929.62a25.2,25.2,0,0,1,13.85-21.85,8.46,8.46,0,0,1,12.15,7.88L311,944.93a8.46,8.46,0,0,1-12.54,7.23A25.21,25.21,0,0,1,285.81,929.62Z" style="fill:#fade7e;fill-rule:evenodd"/><path d="M277.48,728.7c10.14,1.5,17.86-3.19,20.73-11.34,2-5.76-3.8-14-10.49-15l-30.93-4.58c-6.7-1-9.77,5.89-5.46,12.59C257.43,719.9,267.34,727.2,277.48,728.7Z" style="fill:#fade7e;fill-rule:evenodd"/><path d="M566.49,749.54a34.14,34.14,0,0,1,21.6-27.6c8-3.09,16.4,3.73,15.32,12.25l-5,39.38c-1.07,8.53-10.88,13.06-17.88,8.07A34.13,34.13,0,0,1,566.49,749.54Z" style="fill:#fade7e;fill-rule:evenodd"/><path d="M794.88,658.54A129.71,129.71,0,1,1,700.22,421c3.47-.73,7-1.33,10.46-1.77a129.83,129.83,0,0,1,140.59,91.1.22.22,0,0,1,0,.17,128.93,128.93,0,0,1,2.25,66.28c-.47,2.19-1,4.39-1.69,6.54-.92,3.33-2,6.59-3.17,9.83-.39,1-.79,2.08-1.22,3.11a129,129,0,0,1-35.83,50.06q-3.93,3.4-8.21,6.49C800.68,654.82,797.84,656.73,794.88,658.54Z" style="fill:#f4b586;fill-rule:evenodd"/><path d="M803.3,653l-.33.24c-2.75,2-5.59,3.91-8.55,5.72a129.43,129.43,0,0,1-109.81,12.12L487.39,791.94l-24.58-40.09L718.73,595a40.28,40.28,0,0,0,23,29.9Z" style="fill:#070300;fill-rule:evenodd;opacity:0.03"/><g style="opacity:0.03"><path d="M874.89,655.59A40.32,40.32,0,0,1,837,657.91l-25.4-11.58q-3.93,3.4-8.21,6.49L741.8,624.69a40.35,40.35,0,0,1-20-53.45l1.11-2.4a40.21,40.21,0,0,1,29-22.85,39.71,39.71,0,0,1,4.91-.66h0a38.18,38.18,0,0,1,5.13,0,40.41,40.41,0,0,1,14.36,3.58l75.49,34.44,12.89,5.88,1,.48c1.29.64,2.56,1.36,3.78,2.11a40.35,40.35,0,0,1,15.15,50.83l-1.1,2.42a38.8,38.8,0,0,1-4.51,7.54A38.35,38.35,0,0,1,874.89,655.59Z" style="fill:#070300;fill-rule:evenodd"/><path d="M896.35,583.53l-20.28,4.09a32.1,32.1,0,0,1,3.09,2.24l-9.59,2v0l-22.09,4.47-51.2,10.34a40.31,40.31,0,0,1-47.49-31.55l-.55-2.59a40.36,40.36,0,0,1,2.67-24.42l0,0c.31-.69.65-1.38,1-2a40.21,40.21,0,0,1,27.86-21.06l7.4-1.48a.43.43,0,0,1,.17,0l63.94-12.9L875,505.72a40.32,40.32,0,0,1,47.52,31.53l.52,2.61a40.27,40.27,0,0,1-12.26,37.68l0,0c-.42.29-.86.56-1.3.83A40.2,40.2,0,0,1,896.35,583.53Z" style="fill:#070300;fill-rule:evenodd"/></g><g style="opacity:0.03"><path d="M641.29,548a40.29,40.29,0,0,1-34-45.8l.91-6.2a130,130,0,0,1,92-75,40.63,40.63,0,0,1-.43,7.51L687.1,514.05c-.09.63-.2,1.23-.35,1.87A40.28,40.28,0,0,1,641.29,548Z" style="fill:#070300;fill-rule:evenodd"/><path d="M750.16,528.45a40.34,40.34,0,0,0,4.78-56.84L713.84,423c-5,9.17-20,11.48-24,.69a130.7,130.7,0,0,0-54,32l50.9,60.21,6.58,7.77a40.32,40.32,0,0,0,51.84,8.36A39.3,39.3,0,0,0,750.16,528.45Z" style="fill:#070300;fill-rule:evenodd"/></g><rect x="579.48" y="410.38" width="167.14" height="80.66" rx="40.33" transform="translate(1206.19 -139.02) rotate(98.44)" style="fill:#f2c4a5"/><rect x="612.35" y="407.38" width="179.96" height="80.66" rx="40.33" transform="translate(590.87 -377.69) rotate(49.79)" style="fill:#f2c4a5"/><path d="M874.89,655.59A40.32,40.32,0,0,1,837,657.91l-25.4-11.58-57.83-26.39a40.34,40.34,0,0,1-4.35-71.07,13.68,13.68,0,0,1,1.44-.82l0,0a36.2,36.2,0,0,1,5.92-2.7h0a35.73,35.73,0,0,1,6-1.69,40.27,40.27,0,0,1,24.44,2.91l66.26,30.23,17,7.74a39.4,39.4,0,0,1,5.56,3.09,32.1,32.1,0,0,1,3.09,2.24v0a40.34,40.34,0,0,1,11.32,48.06,39.75,39.75,0,0,1-11.39,14.65A38.35,38.35,0,0,1,874.89,655.59Z" style="fill:#f2a191;fill-rule:evenodd"/><path d="M909.46,578.39a40.2,40.2,0,0,1-13.11,5.14l-20.28,4.09-10.27,2.09,0,0-17.09,3.47-42,8.48A40.35,40.35,0,0,1,762,545.31c.26-.57.53-1.12.84-1.66a40.28,40.28,0,0,1,14.76-15.95,38.83,38.83,0,0,1,9.58-4.25.43.43,0,0,1,.17,0,28.93,28.93,0,0,1,3.33-.83l60.58-12.24,29.11-5.88a40.35,40.35,0,0,1,30.41,73.08l0,0C910.34,577.85,909.9,578.12,909.46,578.39Z" style="fill:#f29288;fill-rule:evenodd"/><path d="M634.05,758.42l-.18.09a10.69,10.69,0,0,1-1.53.56,38.14,38.14,0,0,1-30.82-4l-.1.82-2.19,17.27a11.52,11.52,0,0,1-6.59,9l-.06,0a11.07,11.07,0,0,1-11.23-1,34.36,34.36,0,0,1-12.17-15.81l-.75.47L330.67,911.62a22.92,22.92,0,0,1,8,4.48c4.2,3.62,2.47,10.21-2.95,12.54h0c-.25.11-.5.21-.76.3L312,936.47v.13l-.21,7.93a8.51,8.51,0,0,1-5.05,7.57l-.09,0h0a8.11,8.11,0,0,1-7.39-.38,25.26,25.26,0,0,1-11.37-13.94l-.8.5-81,49.61a25.06,25.06,0,0,1-11.94,32.62l-.29.15a25.12,25.12,0,0,1-19.05,1,5.1,5.1,0,0,1-2.61-7.57l5.83-9-.88.54h0L59.44,1077.85,58.06,1080H0v-60.17L456.34,740.15,547,684.57l19.28-11.82,6.48-4,.78-.47a38.72,38.72,0,0,1-1.45,7.73h0c0,.14-.08.27-.12.41a38.63,38.63,0,0,1,8.57-5.89l.05,0,.12-.06a4.39,4.39,0,0,1,.44-.21,36.86,36.86,0,0,1,5.56-2.18,12.21,12.21,0,0,1,10.2,1.38A13,13,0,0,1,602.75,683l-4,19.71a13,13,0,0,1,7.41,3.68l7.78,7.78,0,0,23.53,23.52C643.81,744.12,641.85,754.81,634.05,758.42Z" style="fill:#efc46f;fill-rule:evenodd"/></g></g></svg>