<svg width="267" height="174" viewBox="0 0 267 174" fill="none" xmlns="http://www.w3.org/2000/svg">
<path d="M8.08 12.12C8.26667 12.04 8.46667 12 8.68 12H14.36C14.4933 12 14.6 12.0533 14.68 12.16C14.76 12.24 14.7867 12.3467 14.76 12.48L11.44 39.52C11.4133 39.6533 11.3467 39.7733 11.24 39.88C11.16 39.96 11.0533 40 10.92 40H5.4C5.26667 40 5.16 39.96 5.08 39.88C5 39.7733 4.97333 39.6533 5 39.52L7.6 18.36C7.6 18.3067 7.57333 18.2533 7.52 18.2C7.46667 18.1467 7.41333 18.1333 7.36 18.16L3.48 19.08L3.32 19.12C3.05333 19.12 2.94667 18.9733 3 18.68L3.44 14.48C3.49333 14.2133 3.64 14.0267 3.88 13.92L8.08 12.12Z" fill="#E7E4E4"/>
<path d="M29 30C29 26.6863 31.6863 24 35 24H261C264.314 24 267 26.6863 267 30V30C267 33.3137 264.314 36 261 36H35C31.6863 36 29 33.3137 29 30V30Z" fill="#EEEEEE"/>
<path d="M29 30C29 26.6863 31.7091 24 35.0508 24H260.949C264.291 24 267 26.6863 267 30C267 33.3137 264.291 36 260.949 36H35.0508C31.7091 36 29 33.3137 29 30Z" fill="#EEEEEE"/>
<path d="M36.538 13.156C35.8533 13.156 35.2163 13.0303 34.627 12.779C34.0463 12.5277 33.535 12.181 33.093 11.739C32.6597 11.2883 32.3217 10.7597 32.079 10.153C31.8363 9.54633 31.715 8.879 31.715 8.151C31.715 7.43167 31.832 6.76867 32.066 6.162C32.3087 5.54667 32.6467 5.018 33.08 4.576C33.5133 4.12533 34.0203 3.77867 34.601 3.536C35.1817 3.28467 35.8187 3.159 36.512 3.159C37.1967 3.159 37.8077 3.276 38.345 3.51C38.891 3.744 39.3503 4.05167 39.723 4.433C40.0957 4.80567 40.3643 5.213 40.529 5.655L39.164 6.318C38.9647 5.78933 38.6353 5.36467 38.176 5.044C37.7167 4.71467 37.162 4.55 36.512 4.55C35.8707 4.55 35.303 4.70167 34.809 5.005C34.315 5.30833 33.9293 5.72867 33.652 6.266C33.3833 6.80333 33.249 7.43167 33.249 8.151C33.249 8.87033 33.3877 9.503 33.665 10.049C33.951 10.5863 34.341 11.0067 34.835 11.31C35.329 11.6047 35.8967 11.752 36.538 11.752C37.0753 11.752 37.565 11.6437 38.007 11.427C38.4577 11.2017 38.8173 10.8897 39.086 10.491C39.3547 10.0837 39.489 9.61133 39.489 9.074V8.411L40.178 9.035H36.512V7.735H41.01V8.645C41.01 9.35567 40.8887 9.99267 40.646 10.556C40.4033 11.1107 40.074 11.583 39.658 11.973C39.242 12.363 38.7653 12.6577 38.228 12.857C37.6907 13.0563 37.1273 13.156 36.538 13.156ZM45.8262 13.156C45.1502 13.156 44.5305 12.9957 43.9672 12.675C43.4125 12.3543 42.9705 11.9167 42.6412 11.362C42.3119 10.8073 42.1472 10.179 42.1472 9.477C42.1472 8.76633 42.3119 8.138 42.6412 7.592C42.9705 7.03733 43.4125 6.604 43.9672 6.292C44.5219 5.97133 45.1415 5.811 45.8262 5.811C46.5195 5.811 47.1392 5.97133 47.6852 6.292C48.2399 6.604 48.6775 7.03733 48.9982 7.592C49.3275 8.138 49.4922 8.76633 49.4922 9.477C49.4922 10.1877 49.3275 10.8203 48.9982 11.375C48.6689 11.9297 48.2269 12.3673 47.6722 12.688C47.1175 13 46.5022 13.156 45.8262 13.156ZM45.8262 11.791C46.2422 11.791 46.6105 11.6913 46.9312 11.492C47.2519 11.2927 47.5032 11.0197 47.6852 10.673C47.8759 10.3177 47.9712 9.919 47.9712 9.477C47.9712 9.035 47.8759 8.64067 47.6852 8.294C47.5032 7.94733 47.2519 7.67433 46.9312 7.475C46.6105 7.27567 46.2422 7.176 45.8262 7.176C45.4189 7.176 45.0505 7.27567 44.7212 7.475C44.4005 7.67433 44.1449 7.94733 43.9542 8.294C43.7722 8.64067 43.6812 9.035 43.6812 9.477C43.6812 9.919 43.7722 10.3177 43.9542 10.673C44.1449 11.0197 44.4005 11.2927 44.7212 11.492C45.0505 11.6913 45.4189 11.791 45.8262 11.791ZM53.0324 13.156C52.5557 13.156 52.1354 13.0737 51.7714 12.909C51.416 12.7357 51.1387 12.5017 50.9394 12.207C50.74 11.9037 50.6404 11.5483 50.6404 11.141C50.6404 10.7597 50.7227 10.4173 50.8874 10.114C51.0607 9.81067 51.325 9.555 51.6804 9.347C52.0357 9.139 52.482 8.99167 53.0194 8.905L55.4634 8.502V9.659L53.3054 10.036C52.9154 10.1053 52.6294 10.231 52.4474 10.413C52.2654 10.5863 52.1744 10.8117 52.1744 11.089C52.1744 11.3577 52.274 11.5787 52.4734 11.752C52.6814 11.9167 52.9457 11.999 53.2664 11.999C53.665 11.999 54.0117 11.9123 54.3064 11.739C54.6097 11.5657 54.8437 11.336 55.0084 11.05C55.173 10.7553 55.2554 10.4303 55.2554 10.075V8.268C55.2554 7.92133 55.1254 7.63967 54.8654 7.423C54.614 7.19767 54.276 7.085 53.8514 7.085C53.4614 7.085 53.119 7.189 52.8244 7.397C52.5384 7.59633 52.326 7.85633 52.1874 8.177L50.9654 7.566C51.0954 7.21933 51.3077 6.916 51.6024 6.656C51.897 6.38733 52.2394 6.17933 52.6294 6.032C53.028 5.88467 53.4484 5.811 53.8904 5.811C54.445 5.811 54.9347 5.915 55.3594 6.123C55.7927 6.331 56.1264 6.62133 56.3604 6.994C56.603 7.358 56.7244 7.78267 56.7244 8.268V13H55.3204V11.726L55.6194 11.765C55.4547 12.051 55.2424 12.298 54.9824 12.506C54.731 12.714 54.4407 12.8743 54.1114 12.987C53.7907 13.0997 53.431 13.156 53.0324 13.156ZM58.442 13V3.159H59.911V13H58.442ZM65.331 13V4.615H63.472V3.315H66.852V13H65.331Z" fill="#B4AAAD"/>
<rect x="29" y="24" width="177" height="12" rx="6" fill="#E7E4E4"/>
<path d="M36.538 76.156C35.8533 76.156 35.2163 76.0303 34.627 75.779C34.0463 75.5277 33.535 75.181 33.093 74.739C32.6597 74.2883 32.3217 73.7597 32.079 73.153C31.8363 72.5463 31.715 71.879 31.715 71.151C31.715 70.4317 31.832 69.7687 32.066 69.162C32.3087 68.5467 32.6467 68.018 33.08 67.576C33.5133 67.1253 34.0203 66.7787 34.601 66.536C35.1817 66.2847 35.8187 66.159 36.512 66.159C37.1967 66.159 37.8077 66.276 38.345 66.51C38.891 66.744 39.3503 67.0517 39.723 67.433C40.0957 67.8057 40.3643 68.213 40.529 68.655L39.164 69.318C38.9647 68.7893 38.6353 68.3647 38.176 68.044C37.7167 67.7147 37.162 67.55 36.512 67.55C35.8707 67.55 35.303 67.7017 34.809 68.005C34.315 68.3083 33.9293 68.7287 33.652 69.266C33.3833 69.8033 33.249 70.4317 33.249 71.151C33.249 71.8703 33.3877 72.503 33.665 73.049C33.951 73.5863 34.341 74.0067 34.835 74.31C35.329 74.6047 35.8967 74.752 36.538 74.752C37.0753 74.752 37.565 74.6437 38.007 74.427C38.4577 74.2017 38.8173 73.8897 39.086 73.491C39.3547 73.0837 39.489 72.6113 39.489 72.074V71.411L40.178 72.035H36.512V70.735H41.01V71.645C41.01 72.3557 40.8887 72.9927 40.646 73.556C40.4033 74.1107 40.074 74.583 39.658 74.973C39.242 75.363 38.7653 75.6577 38.228 75.857C37.6907 76.0563 37.1273 76.156 36.538 76.156ZM45.8262 76.156C45.1502 76.156 44.5305 75.9957 43.9672 75.675C43.4125 75.3543 42.9705 74.9167 42.6412 74.362C42.3119 73.8073 42.1472 73.179 42.1472 72.477C42.1472 71.7663 42.3119 71.138 42.6412 70.592C42.9705 70.0373 43.4125 69.604 43.9672 69.292C44.5219 68.9713 45.1415 68.811 45.8262 68.811C46.5195 68.811 47.1392 68.9713 47.6852 69.292C48.2399 69.604 48.6775 70.0373 48.9982 70.592C49.3275 71.138 49.4922 71.7663 49.4922 72.477C49.4922 73.1877 49.3275 73.8203 48.9982 74.375C48.6689 74.9297 48.2269 75.3673 47.6722 75.688C47.1175 76 46.5022 76.156 45.8262 76.156ZM45.8262 74.791C46.2422 74.791 46.6105 74.6913 46.9312 74.492C47.2519 74.2927 47.5032 74.0197 47.6852 73.673C47.8759 73.3177 47.9712 72.919 47.9712 72.477C47.9712 72.035 47.8759 71.6407 47.6852 71.294C47.5032 70.9473 47.2519 70.6743 46.9312 70.475C46.6105 70.2757 46.2422 70.176 45.8262 70.176C45.4189 70.176 45.0505 70.2757 44.7212 70.475C44.4005 70.6743 44.1449 70.9473 43.9542 71.294C43.7722 71.6407 43.6812 72.035 43.6812 72.477C43.6812 72.919 43.7722 73.3177 43.9542 73.673C44.1449 74.0197 44.4005 74.2927 44.7212 74.492C45.0505 74.6913 45.4189 74.791 45.8262 74.791ZM53.0324 76.156C52.5557 76.156 52.1354 76.0737 51.7714 75.909C51.416 75.7357 51.1387 75.5017 50.9394 75.207C50.74 74.9037 50.6404 74.5483 50.6404 74.141C50.6404 73.7597 50.7227 73.4173 50.8874 73.114C51.0607 72.8107 51.325 72.555 51.6804 72.347C52.0357 72.139 52.482 71.9917 53.0194 71.905L55.4634 71.502V72.659L53.3054 73.036C52.9154 73.1053 52.6294 73.231 52.4474 73.413C52.2654 73.5863 52.1744 73.8117 52.1744 74.089C52.1744 74.3577 52.274 74.5787 52.4734 74.752C52.6814 74.9167 52.9457 74.999 53.2664 74.999C53.665 74.999 54.0117 74.9123 54.3064 74.739C54.6097 74.5657 54.8437 74.336 55.0084 74.05C55.173 73.7553 55.2554 73.4303 55.2554 73.075V71.268C55.2554 70.9213 55.1254 70.6397 54.8654 70.423C54.614 70.1977 54.276 70.085 53.8514 70.085C53.4614 70.085 53.119 70.189 52.8244 70.397C52.5384 70.5963 52.326 70.8563 52.1874 71.177L50.9654 70.566C51.0954 70.2193 51.3077 69.916 51.6024 69.656C51.897 69.3873 52.2394 69.1793 52.6294 69.032C53.028 68.8847 53.4484 68.811 53.8904 68.811C54.445 68.811 54.9347 68.915 55.3594 69.123C55.7927 69.331 56.1264 69.6213 56.3604 69.994C56.603 70.358 56.7244 70.7827 56.7244 71.268V76H55.3204V74.726L55.6194 74.765C55.4547 75.051 55.2424 75.298 54.9824 75.506C54.731 75.714 54.4407 75.8743 54.1114 75.987C53.7907 76.0997 53.431 76.156 53.0324 76.156ZM58.442 76V66.159H59.911V76H58.442ZM63.693 76V74.895L66.345 72.061C66.865 71.5063 67.2723 71.06 67.567 70.722C67.8703 70.3753 68.087 70.072 68.217 69.812C68.3556 69.552 68.425 69.279 68.425 68.993C68.425 68.525 68.282 68.1653 67.996 67.914C67.71 67.654 67.3416 67.524 66.891 67.524C66.423 67.524 66.02 67.6583 65.682 67.927C65.344 68.187 65.11 68.5683 64.98 69.071L63.628 68.681C63.732 68.1697 63.94 67.7277 64.252 67.355C64.564 66.9737 64.9453 66.679 65.396 66.471C65.8553 66.263 66.3493 66.159 66.878 66.159C67.4933 66.159 68.0306 66.276 68.49 66.51C68.9493 66.7353 69.3046 67.0517 69.556 67.459C69.816 67.8663 69.946 68.3387 69.946 68.876C69.946 69.2313 69.8766 69.578 69.738 69.916C69.608 70.2453 69.4043 70.5963 69.127 70.969C68.8496 71.333 68.4943 71.7447 68.061 72.204L65.721 74.7H70.128V76H63.693Z" fill="#B4AAAD"/>
<path d="M10.16 97.08C10.1067 97.1333 10.08 97.1867 10.08 97.24C10.1067 97.2933 10.16 97.32 10.24 97.32H20.12C20.4133 97.32 20.56 97.48 20.56 97.8L19.96 102.52C19.9333 102.653 19.8667 102.773 19.76 102.88C19.68 102.96 19.5733 103 19.44 103H1.24C1.10667 103 1 102.96 0.92 102.88C0.84 102.773 0.813333 102.653 0.84 102.52L1.4 98.08C1.4 97.84 1.50667 97.64 1.72 97.48C3.58667 95.88 5.90667 93.72 8.68 91C8.62667 91.0533 9.49333 90.2267 11.28 88.52C13.9467 85.9867 15.3467 84.16 15.48 83.04C15.5867 82.2667 15.3867 81.6267 14.88 81.12C14.4 80.6133 13.72 80.36 12.84 80.36C11.9333 80.36 11.1867 80.6133 10.6 81.12C10.0133 81.6267 9.66667 82.2933 9.56 83.12L9.44 84.08C9.41333 84.2133 9.34667 84.3333 9.24 84.44C9.13333 84.52 9.01333 84.56 8.88 84.56H3.32C3.18667 84.56 3.08 84.52 3 84.44C2.92 84.3333 2.89333 84.2133 2.92 84.08L3.16 82.08C3.45333 80.5867 4.09333 79.28 5.08 78.16C6.06667 77.04 7.29333 76.1867 8.76 75.6C10.2267 74.9867 11.8133 74.68 13.52 74.68C15.3067 74.68 16.84 75 18.12 75.64C19.4 76.28 20.3733 77.16 21.04 78.28C21.7067 79.3733 22.04 80.6 22.04 81.96C22.04 83.24 21.7067 84.52 21.04 85.8C20.3733 87.0533 19.3733 88.3867 18.04 89.8C16.8133 91.1067 14.5867 93.1733 11.36 96L10.16 97.08Z" fill="#E7E4E4"/>
<path d="M29 93C29 89.6863 31.6863 87 35 87H261C264.314 87 267 89.6863 267 93V93C267 96.3137 264.314 99 261 99H35C31.6863 99 29 96.3137 29 93V93Z" fill="#EEEEEE"/>
<path d="M29 93C29 89.6863 31.7091 87 35.0508 87H260.949C264.291 87 267 89.6863 267 93C267 96.3137 264.291 99 260.949 99H35.0508C31.7091 99 29 96.3137 29 93Z" fill="#EEEEEE"/>
<rect x="29" y="87" width="151" height="12" rx="6" fill="#E7E4E4"/>
<path d="M36.538 139.156C35.8533 139.156 35.2163 139.03 34.627 138.779C34.0463 138.528 33.535 138.181 33.093 137.739C32.6597 137.288 32.3217 136.76 32.079 136.153C31.8363 135.546 31.715 134.879 31.715 134.151C31.715 133.432 31.832 132.769 32.066 132.162C32.3087 131.547 32.6467 131.018 33.08 130.576C33.5133 130.125 34.0203 129.779 34.601 129.536C35.1817 129.285 35.8187 129.159 36.512 129.159C37.1967 129.159 37.8077 129.276 38.345 129.51C38.891 129.744 39.3503 130.052 39.723 130.433C40.0957 130.806 40.3643 131.213 40.529 131.655L39.164 132.318C38.9647 131.789 38.6353 131.365 38.176 131.044C37.7167 130.715 37.162 130.55 36.512 130.55C35.8707 130.55 35.303 130.702 34.809 131.005C34.315 131.308 33.9293 131.729 33.652 132.266C33.3833 132.803 33.249 133.432 33.249 134.151C33.249 134.87 33.3877 135.503 33.665 136.049C33.951 136.586 34.341 137.007 34.835 137.31C35.329 137.605 35.8967 137.752 36.538 137.752C37.0753 137.752 37.565 137.644 38.007 137.427C38.4577 137.202 38.8173 136.89 39.086 136.491C39.3547 136.084 39.489 135.611 39.489 135.074V134.411L40.178 135.035H36.512V133.735H41.01V134.645C41.01 135.356 40.8887 135.993 40.646 136.556C40.4033 137.111 40.074 137.583 39.658 137.973C39.242 138.363 38.7653 138.658 38.228 138.857C37.6907 139.056 37.1273 139.156 36.538 139.156ZM45.8262 139.156C45.1502 139.156 44.5305 138.996 43.9672 138.675C43.4125 138.354 42.9705 137.917 42.6412 137.362C42.3119 136.807 42.1472 136.179 42.1472 135.477C42.1472 134.766 42.3119 134.138 42.6412 133.592C42.9705 133.037 43.4125 132.604 43.9672 132.292C44.5219 131.971 45.1415 131.811 45.8262 131.811C46.5195 131.811 47.1392 131.971 47.6852 132.292C48.2399 132.604 48.6775 133.037 48.9982 133.592C49.3275 134.138 49.4922 134.766 49.4922 135.477C49.4922 136.188 49.3275 136.82 48.9982 137.375C48.6689 137.93 48.2269 138.367 47.6722 138.688C47.1175 139 46.5022 139.156 45.8262 139.156ZM45.8262 137.791C46.2422 137.791 46.6105 137.691 46.9312 137.492C47.2519 137.293 47.5032 137.02 47.6852 136.673C47.8759 136.318 47.9712 135.919 47.9712 135.477C47.9712 135.035 47.8759 134.641 47.6852 134.294C47.5032 133.947 47.2519 133.674 46.9312 133.475C46.6105 133.276 46.2422 133.176 45.8262 133.176C45.4189 133.176 45.0505 133.276 44.7212 133.475C44.4005 133.674 44.1449 133.947 43.9542 134.294C43.7722 134.641 43.6812 135.035 43.6812 135.477C43.6812 135.919 43.7722 136.318 43.9542 136.673C44.1449 137.02 44.4005 137.293 44.7212 137.492C45.0505 137.691 45.4189 137.791 45.8262 137.791ZM53.0324 139.156C52.5557 139.156 52.1354 139.074 51.7714 138.909C51.416 138.736 51.1387 138.502 50.9394 138.207C50.74 137.904 50.6404 137.548 50.6404 137.141C50.6404 136.76 50.7227 136.417 50.8874 136.114C51.0607 135.811 51.325 135.555 51.6804 135.347C52.0357 135.139 52.482 134.992 53.0194 134.905L55.4634 134.502V135.659L53.3054 136.036C52.9154 136.105 52.6294 136.231 52.4474 136.413C52.2654 136.586 52.1744 136.812 52.1744 137.089C52.1744 137.358 52.274 137.579 52.4734 137.752C52.6814 137.917 52.9457 137.999 53.2664 137.999C53.665 137.999 54.0117 137.912 54.3064 137.739C54.6097 137.566 54.8437 137.336 55.0084 137.05C55.173 136.755 55.2554 136.43 55.2554 136.075V134.268C55.2554 133.921 55.1254 133.64 54.8654 133.423C54.614 133.198 54.276 133.085 53.8514 133.085C53.4614 133.085 53.119 133.189 52.8244 133.397C52.5384 133.596 52.326 133.856 52.1874 134.177L50.9654 133.566C51.0954 133.219 51.3077 132.916 51.6024 132.656C51.897 132.387 52.2394 132.179 52.6294 132.032C53.028 131.885 53.4484 131.811 53.8904 131.811C54.445 131.811 54.9347 131.915 55.3594 132.123C55.7927 132.331 56.1264 132.621 56.3604 132.994C56.603 133.358 56.7244 133.783 56.7244 134.268V139H55.3204V137.726L55.6194 137.765C55.4547 138.051 55.2424 138.298 54.9824 138.506C54.731 138.714 54.4407 138.874 54.1114 138.987C53.7907 139.1 53.431 139.156 53.0324 139.156ZM58.442 139V129.159H59.911V139H58.442ZM66.852 139.156C66.332 139.156 65.8423 139.061 65.383 138.87C64.9323 138.679 64.5423 138.411 64.213 138.064C63.8923 137.717 63.6626 137.31 63.524 136.842L64.824 136.348C64.9973 136.807 65.2616 137.163 65.617 137.414C65.9723 137.665 66.384 137.791 66.852 137.791C67.2333 137.791 67.5626 137.717 67.84 137.57C68.126 137.423 68.347 137.215 68.503 136.946C68.6676 136.677 68.75 136.352 68.75 135.971C68.75 135.598 68.6676 135.278 68.503 135.009C68.347 134.74 68.126 134.537 67.84 134.398C67.5626 134.259 67.2333 134.19 66.852 134.19C66.696 134.19 66.5356 134.203 66.371 134.229C66.215 134.255 66.0763 134.29 65.955 134.333L65.617 133.618L68.165 130.615H64.044V129.315H69.881V130.55L67.385 133.54L67.346 133.046C67.9266 133.055 68.438 133.185 68.88 133.436C69.322 133.679 69.6643 134.017 69.907 134.45C70.1583 134.875 70.284 135.369 70.284 135.932C70.284 136.539 70.1366 137.089 69.842 137.583C69.5473 138.068 69.14 138.454 68.62 138.74C68.1086 139.017 67.5193 139.156 66.852 139.156Z" fill="#B4AAAD"/>
<path d="M20.04 152.56C20.28 153.387 20.4 154.28 20.4 155.24C20.4 155.56 20.3733 156.04 20.32 156.68C20.1333 158.093 19.7067 159.44 19.04 160.72C18.16 162.453 16.8933 163.827 15.24 164.84C13.5867 165.827 11.7333 166.32 9.68 166.32C7.65333 166.32 5.92 165.813 4.48 164.8C3.06667 163.76 2.12 162.36 1.64 160.6C1.4 159.747 1.28 158.853 1.28 157.92L1.32 157.08C1.34667 156.92 1.4 156.8 1.48 156.72C1.58667 156.64 1.70667 156.6 1.84 156.6H7.44C7.73333 156.6 7.88 156.76 7.88 157.08C7.82667 157.827 7.90667 158.467 8.12 159C8.25333 159.533 8.50667 159.947 8.88 160.24C9.28 160.507 9.76 160.64 10.32 160.64C11.4133 160.64 12.2933 160.133 12.96 159.12C13.44 158.427 13.72 157.547 13.8 156.48C13.8533 156 13.88 155.653 13.88 155.44C13.88 154.72 13.7867 154.133 13.6 153.68C13.2267 152.693 12.4667 152.2 11.32 152.2C11.0267 152.2 10.6933 152.307 10.32 152.52C9.94667 152.707 9.46667 153 8.88 153.4C8.77333 153.48 8.66667 153.52 8.56 153.52C8.42667 153.52 8.32 153.44 8.24 153.28L5.96 149.28C5.90667 149.173 5.88 149.08 5.88 149C5.88 148.84 5.96 148.707 6.12 148.6L12.68 143.92C12.7333 143.867 12.76 143.813 12.76 143.76C12.76 143.707 12.72 143.68 12.64 143.68H4.12C3.98667 143.68 3.88 143.64 3.8 143.56C3.72 143.453 3.69333 143.333 3.72 143.2L4.32 138.48C4.34667 138.347 4.4 138.24 4.48 138.16C4.58667 138.053 4.70667 138 4.84 138H21.76C21.8933 138 22 138.053 22.08 138.16C22.16 138.24 22.1867 138.347 22.16 138.48L21.52 143.8C21.4933 144.04 21.3733 144.24 21.16 144.4L16 148.2C15.8667 148.333 15.88 148.427 16.04 148.48C18.0667 149.04 19.4 150.4 20.04 152.56Z" fill="#E7E4E4"/>
<path d="M29 156C29 152.686 31.6863 150 35 150H261C264.314 150 267 152.686 267 156V156C267 159.314 264.314 162 261 162H35C31.6863 162 29 159.314 29 156V156Z" fill="#EEEEEE"/>
<path d="M29 156C29 152.686 31.7091 150 35.0508 150H260.949C264.291 150 267 152.686 267 156C267 159.314 264.291 162 260.949 162H35.0508C31.7091 162 29 159.314 29 156Z" fill="#EEEEEE"/>
<rect x="29" y="150" width="82" height="12" rx="6" fill="#E7E4E4"/>
</svg>
