<svg width="3455" height="3456" viewBox="0 0 3455 3456" fill="none" xmlns="http://www.w3.org/2000/svg">
<path d="M3451.84 2090.39C3306.78 2033.7 3281.56 2026.84 3135.27 1904.06C2881.6 1688.23 3069.38 1761.18 2688.55 1491.06C2552.83 1394.36 2537.22 1360.35 2502.45 1323.6C2459.09 1276.57 2317.1 1171.58 2269.91 1121.57C2202.95 1049.11 2145.73 1006.13 1911.01 907.631C1874.06 891.611 1862.92 906.702 1793.81 860.264C1913.63 861.162 1888.64 861.625 1957.11 880.494C2032.96 903.006 2088.81 905.754 2138.73 920.613C2170.86 929.465 2186.8 939.968 2251.36 959.812C2543.34 1048.23 2498.47 1025.09 2659.66 1144.56C2757.35 1219.51 2777.35 1215.15 2819.37 1241.96C3006.27 1356.11 3180.76 1683.31 3308.79 1831.17C3348 1876.54 3396.55 1915.16 3453.01 1936.44C3455.06 1923.71 3454.28 1812.63 3454.27 1810.8C3456.33 1789.44 3328.56 1723.08 3281.63 1691.24C3223.92 1650.48 3172.22 1576.23 3147.47 1531C3090.66 1429.87 3119.88 1388.87 3000.97 1246.72C2873.54 1096.23 2715.84 1043.66 2713.06 1042.39C2759.26 1045.26 2802.08 1043.83 2831.7 1070.11C2842.15 1078.97 2849.94 1097.37 2883.95 1107.43C2971.05 1132.27 3091.61 1184.06 3156.16 1255.66C3234.25 1342.89 3227.78 1517.37 3337.56 1536.12C3374.44 1542.12 3375.61 1555.76 3452.86 1614.5C3455.12 1602.14 3455.75 1393.1 3451.84 1376.2C3429.03 1285.16 3334.35 1196.53 3254.99 1147.21C3113.1 1060.5 3051.42 1065.75 2964.36 993.188C2829.98 878.83 2928.31 959.583 2806.63 869.207C2745.92 823.906 2730.35 788.504 2717.86 772.597C2610.32 629.369 2385.56 654.024 2255.89 571.535C2167.25 516.874 2166.93 468.288 2126.94 427.864C2141.32 431.741 2181.69 496.117 2349.22 513.872C2420.06 522.02 2507.82 515.825 2614.09 530.406C2777.36 554.926 2774.62 592.68 2885.85 639.547C3019.12 694.556 3022.63 562.337 3292.44 771.335C3380.01 840.082 3378.86 828.681 3452.72 927.627C3455.59 911.506 3454.66 792.221 3453.44 781.324C3453.67 777.772 3449.82 776.492 3447.74 774.455C3419.88 753.25 3396.64 725.807 3365.28 709.417C3321.85 686.038 3305.5 666.729 3287.78 655.649C3241.05 625.029 3217.85 637.158 3165.21 612.357C3122.98 591.646 3031.17 563.343 2956.54 532.299C2893.61 506.257 2839.91 477.826 2752.66 476.62C2611.31 479.191 2556.53 480.731 2476.72 452.873C2476.72 452.873 2500.35 452.989 2581.52 443.01C2668.68 430.998 2802.45 458.241 3042.71 337.025C3195.06 260.161 3194.95 258.491 3214.25 238.882C3235.58 220.617 3264.65 217.876 3289.83 207.671C3335.76 189.775 3351.86 168.351 3387.42 150.188C3408.07 139.262 3430.87 133.51 3452.72 125.504C3455.09 114.927 3454.11 11.8985 3453.76 0.928471C3448.4 0.874378 3233.88 0.369512 3233.88 0.369512C3220.69 0.740949 3130.37 77.4481 3044.55 144.941C2864.76 286.48 2859.24 325.393 2687.72 323.357C2666.96 322.452 2294.95 298.116 2182.24 267.642C1951.01 206.712 1897.11 127.671 1802.19 134.916C1864.83 114.695 1921.59 154.55 1981.37 157.689C2023.73 158.879 2063.48 176.982 2105.83 178.028C2191.01 181.313 2280.61 162.958 2385.47 171.501C2467.83 178.18 2596.62 230.101 2766.83 199.413C2851.71 181.016 2858.36 80.4592 2911.55 1.21697C2903.41 0.715706 2585.7 0.998791 2583.88 1.00059C2614.9 47.661 2671.51 71.3987 2676.81 115.839C2614.2 96.2976 2595.47 103.119 2529.12 101.469L2321.82 92.9402C2180.17 91.6636 2122.32 96.4923 2044.35 85.8C1988.52 77.3904 1868.39 46.2672 1808.46 10.8455C1784.9 -2.11875 1817.42 -0.371558 1641.29 0.802254C1644.56 81.7268 1697.99 81.8656 1707.89 127.722C1643.18 119.579 1563.37 56.0922 1517.76 9.61937C1514.23 5.94106 1510.68 1.45137 1505.31 0.676038C1503.5 0.416392 1367.96 0.277554 1363.24 1.45137C1458.42 134.395 1570.51 185.987 2001.51 415.207C1979.02 419.383 1901.12 418.113 1829.5 397.609C1664.06 350.593 1674.41 327.42 1554.25 270.617C1491.72 241.367 1414.56 206.223 1376.85 172.276C1370.95 167.343 1347.8 139.684 1323.35 142.255C1279.86 146.759 1204.15 49.2351 1184.62 7.38354C1180.39 -0.492365 1190.2 -0.357133 1106.97 0.856347C1113.66 65.4701 1137.27 106.234 1147.95 117.823C1148.35 118.742 1149.16 120.6 1149.58 121.519C1147.97 119.914 1146.57 118.111 1145.23 116.326L1144.76 116.831C1144.76 116.831 1097.04 68.9699 1053.99 8.80798C1046.67 -0.503183 1046.12 -0.43647 1024.02 0.585883C995.321 1.03666 966.572 0.225265 937.877 0.982563C964.617 71.3987 1028.94 80.4502 1050.89 127.343C1000.16 115.048 961.487 61.9379 901.377 65.2628C865.076 69.4351 854.308 66.0778 832.866 48.9448C763.32 -7.96979 785.604 1.07632 746.492 0.549821C624.086 1.75429 624.774 -2.29546 631.315 5.1477C683.709 61.0886 683.603 44.648 781.045 133.42C850.24 195.917 938.045 137.574 1060.3 145.302C1097.48 146.744 1133.08 158.897 1168.23 170.095C1201.11 180.408 1228.42 202.099 1257.38 219.932C1309.44 252.121 1325.08 274.187 1355.58 310.032C1424.9 386.06 1681.72 458.412 1715.87 478.766C1808.37 533.3 1852.64 526.51 1917.01 572.941C1969.71 612.196 1981.9 614.614 2020.7 624.942C2262.74 686.75 2272.52 627.122 2368.52 658.949C2436.52 681.857 2469.32 741.197 2513.48 791.314C2575.82 864.631 2615.79 873.425 2694.14 906.82C2702.82 909.939 2710.65 915.186 2719.48 917.836L2718.78 919.802C2719.8 919.513 2721.86 918.918 2722.89 918.63L2722.99 921.154C2723.89 921.028 2725.7 920.776 2726.6 920.631L2726.96 922.975C2727.77 922.831 2729.43 922.543 2730.24 922.398L2730.29 923.931C2735.34 925.932 2740.6 928.042 2744.52 932.009C2739.77 929.791 2735.25 927.086 2730.19 925.752L2729.86 924.219C2729 924.364 2727.25 924.67 2726.38 924.832L2726.47 922.38C2725.55 922.579 2723.73 922.993 2722.81 923.192L2722.69 920.902C2721.37 920.902 2718.76 920.92 2717.44 920.92L2717.77 918.468C2716.78 918.774 2714.79 919.405 2713.8 919.712L2714.61 917.674C2706.36 917.187 2698.91 913.166 2691.05 911.021C2645.52 896.416 2598.1 889.33 2551.06 881.522C2406.09 857.078 2463.45 857.785 2320.23 823.282C2229.54 801.373 2200.29 783.906 2112.9 752.259C1944.61 690.496 1910.67 721.958 1782.9 702.475C1694.95 687.868 1721.48 672.89 1692.21 637.528C1670.76 608.491 1638.36 608.612 1620.77 564.575C1608.43 533.654 1570.45 512.372 1536.6 495.408C1438.42 448.806 1433.01 437.064 1401.38 418.29C1306.94 361.682 1312.1 377.228 1270.38 363.873C1193.93 341.397 1175.37 294.96 1121.13 286.34C1036.92 275.617 859.452 381.781 729.315 335.24C664.497 312.575 623.866 239.495 563.327 187.296C479.334 116.325 381.279 17.232 373.907 6.91473C371.401 3.02006 367.346 0.207234 362.587 0.351482C339.263 1.10878 315.922 0.369512 292.58 0.838316C304.799 42.0912 375.448 61.2743 409.667 137.26C269.845 48.8835 216.015 81.6294 125.654 6.60821C121.833 3.29052 117.417 -0.0451987 112.064 0.279358C94.9224 1.28909 77.727 0.153141 60.5856 0.982563C64.7313 6.57215 70.9678 10.0521 75.8164 14.9565C101.934 39.2983 118.913 71.3933 143.805 96.871C204.55 164.795 221.181 75.7333 378.269 202.532C489.085 292.003 541.622 289.529 657.415 356.696C837.642 462.444 885.382 419.096 1052.96 416.271C1182.69 412.904 1190.14 383.173 1285.52 414.017C1375.74 443.539 1432.19 505.944 1443.27 539.494C1378.73 513.362 1327.78 442.798 1180.65 473.807C940.487 525.004 716.624 481.593 643.77 475.105C562.184 467.042 543.262 381.904 484.451 360.212C453.359 349.214 419.292 356.75 387.858 347.465C357.881 338.628 293.692 279.109 264.173 252.532C160.195 156.546 83.6156 191.302 0.924311 152.334C-0.665456 163.841 0.158267 290.512 0.726041 302.423C39.596 304.407 63.1072 303.109 156.747 343.408C270.094 391.667 280.24 436.802 349.952 467.118C379.748 479.335 392.773 477.523 465.309 477.161C522.732 476.703 490.756 491.995 688.868 528.243C826.974 554.849 928.647 555.451 959.182 553.36C1073.32 548.062 1222.36 458.209 1505.02 613.871C1613.49 675.29 1641.5 751.602 1751.94 805.324C1731.62 818.475 1700.82 813.142 1677.64 805.63C1588.66 776.512 1545.7 721.161 1405.99 669.893C1145.22 571.881 956.57 672.324 744.51 625.862C584.277 589.616 550.3 561.722 504.711 565.567C491.102 566.594 481.261 580.893 482.865 593.947C490.102 633.956 623.662 658.292 663.471 661.383C753.596 667.879 796.301 636.652 932.001 667.171C1044.74 692.25 1026.34 688.936 1188.33 702.133C1432.72 723.55 1505.86 826.732 1692.93 919.477C2041.4 1080.95 1979.31 1063.24 2135.75 1190.61C2181.18 1227.7 2180.09 1245.42 2275.62 1324.78C2307.55 1351.54 2485.18 1483.67 2486.98 1484.89C2537.91 1520.19 2559.75 1521.55 2621.05 1530.76C2683.32 1540.64 2702.49 1567.09 2727.43 1583.79C2938.39 1730.87 2914.37 1910.35 3205.17 2070.03C3318.24 2132.37 3435.46 2153.74 3453.15 2154.67C3454.72 2136.24 3454.09 2117.74 3454.47 2099.29C3453.85 2096.37 3455.51 2091.56 3451.84 2090.39ZM2459.8 450.295C2446.26 450.818 2432.78 447.572 2420.2 442.83C2433.68 442.271 2447.24 445.499 2459.8 450.295Z" fill="black" fill-opacity="0.3"/>
<path d="M2911.63 3267.74C2858.26 3225.49 2805.64 3192.02 2748.41 3121.41C2596.62 2935.12 2391.87 2812.97 2337.46 2767.79C2217.77 2666.86 2264.51 2576.57 2210.37 2500.01C2159.12 2430.82 2116.86 2409.09 2069.19 2360.36C1986.29 2274.2 1999.4 2244.12 1831.73 2082.81C1944.89 2120.8 1931.34 2112.94 2035.69 2175.06C2125.02 2229.51 2139.8 2227.17 2279.42 2339.41C2524.08 2534.07 2426.88 2479.71 2646.01 2562.03C2691.88 2579.27 2801.42 2638.31 2889.42 2725.91C2968 2805.3 3009.08 2833.65 3063.09 2862.77C3171.66 2920.67 3369.04 2986.22 3454.67 3002.63C3454.61 2939.97 3454.65 2877.32 3454.67 2814.65C3416.06 2783.87 3361.45 2755.4 3306.28 2753.15C3265.32 2751.86 3244.04 2741.89 3202.41 2710.88C3081.8 2619.5 3070.52 2508.63 3015.25 2453.68C2954.14 2396.1 2875.94 2313.78 2795.84 2286.66C2790.64 2284.93 2785.38 2283.47 2780.41 2281.25C2843.91 2275.22 2948.69 2345.19 2999.37 2383.37C3076.83 2441.05 3124.13 2478.3 3235.66 2497.51C3339.69 2515.59 3409.89 2499.45 3454.65 2497.24C3454.61 2478.11 3454.61 2458.98 3454.67 2439.85C3439.69 2435.24 3423.81 2434.78 3408.63 2431.02C3372.11 2422.19 3284.72 2395.01 3135.1 2374.68C3065.66 2364.71 2977.63 2364.21 2923.87 2307.79C2888.98 2271 2864.79 2209.98 2820.17 2166.37C2773.08 2118.79 2725.18 2094.82 2649.15 2050.68C2607.31 2027 2594.94 1994.91 2579.39 1960.14C2505.44 1799.44 2396.13 1783.32 2363.7 1692.44C2352.97 1661.3 2334.77 1593.7 2300.51 1499.64C2314.59 1512.26 2517.32 1736.74 2551.63 1766.03C2590.56 1799.79 2706.92 1859.87 2796.34 1930.02C2921.42 2031.14 2913.29 2151.49 3165.74 2269.26C3202.05 2286.25 3304.75 2329.21 3342.5 2316.3C3298.98 2269.53 3228.17 2243.28 3191.03 2227.8C3118.17 2195.9 3058.92 2143.44 2973.85 2041.42C2789.11 1819.95 2832.09 1888.53 2761.06 1812.44C2669.62 1715.79 2591.84 1586.42 2473.04 1516.26C2416.47 1482.54 2368.74 1479.4 2312.32 1424.77C2280.75 1395.79 2241.27 1352.15 2160.76 1325.7C2073.05 1296.27 1969.48 1290.6 1839.7 1190.5C1753.9 1125.8 1656.81 1001.76 1529.44 934.982C1492.55 915.37 1450.17 904.447 1347.4 852.284C1235.01 796.354 1139.65 788.93 1013.58 778.079C1013.57 778.079 597.075 741.318 597.075 741.318C520.862 736.834 444.74 776.894 373.529 719.287C304.805 664.612 301.209 592.497 193.387 526.363C75.3525 451.125 -2.00534 474.126 0.0513064 495.678C1.51133 516.952 -1.30057 538.334 1.11478 559.571C11.5693 557.101 21.9697 553.784 32.8027 553.676C108.497 551.029 186.637 631.92 231.727 677.118C310.025 757.436 364.828 782.002 377.999 791.456C350.619 788.896 326.268 774.797 301.393 764.215C246.803 739.815 177.587 742.542 134.608 729.455C89.6607 716.024 40.9284 683.767 0.844406 680.886C0.334299 685.467 -0.456998 776.582 1.11478 799.767C7.35143 802.111 14.0928 802.67 20.4556 804.653C51.8407 813.855 129.568 852.564 170.694 904.063C220.731 962.908 267.019 1024.84 310.604 1088.57C334.271 1123.4 351.971 1162.07 363.579 1202.53C229.118 970.797 145.039 972.761 1.04268 984.543C-0.831918 998.19 1.31306 1011.93 0.267606 1025.63C-0.374083 1074.02 -1.28254 1062.12 16.2197 1074.56C183.135 1182.39 389.804 1314.14 362.552 1530.49C361.47 1538.96 360.443 1547.54 357.811 1555.73C352.923 1497.74 335.188 1445.68 285.387 1389.45C162.711 1249.37 44.7316 1284.08 0.970581 1212.28C-0.758016 1246.27 0.846208 1381.96 0.159456 1453.02C0.664156 1456.71 -0.958093 1462.9 4.26915 1463.51C66.8519 1476.53 122.874 1508.65 178.697 1538.42C244.306 1574.27 276.155 1582.71 372.556 1635.52C511.125 1707.8 567.465 1697.41 647.725 1711.53C733.946 1726.74 849.216 1763.67 913.215 1823.58C1007.94 1915.83 1005.98 1865.15 1216.81 1903.79C1302.7 1921.53 1365.44 1922.54 1418.76 1936.09C1633.83 1993.56 1765.97 2108.34 1779.66 2135.02C1694.99 2082.39 1657.16 2076.35 1588.58 2051.62C1503.78 2022.96 1487.33 2011.64 1361.62 1986.34C1309.98 1975.22 1199.09 1949.02 1141.18 1978.61C1160.48 2009.17 1208.5 1998.44 1251.54 2008.55C1313.23 2022.53 1389.82 2057.3 1458.45 2086.4C1539.04 2121.14 1602 2166.52 1654.22 2198.75C1963.93 2393.53 2018.62 2374.24 2081.36 2484.89C2022.89 2447.69 1780.66 2349.38 1728.77 2337.21C1642.28 2310.52 1661.24 2304.34 1635.33 2273.25C1589.83 2216.5 1519.31 2198.15 1474.78 2184.66C1266.59 2124.3 1156.15 2138.32 1038.6 2138.18C826.83 2142.71 780.416 2186.61 597.814 2098.14C498.473 2054.14 427.344 2124.16 312.154 1986.65C269.031 1934.86 233.053 1856.34 174.623 1803.31C96.3264 1735.05 61.0172 1747.97 0.862431 1746.09C-0.00997845 1763.66 -0.0712636 1918.67 1.04268 1926.45C15.2824 1927.39 29.7385 1925.91 43.798 1929.06C137.915 1949.61 312.001 2012.08 353.071 2099.61C294.048 2057.66 308.846 2060.02 180.572 2025.03C117.237 2008.38 101.552 2023.31 32.7486 2024.27C21.8615 2024.65 11.0826 2022.6 0.213532 2022.81C0.325286 2059.85 -1.2519 2065.95 4.2331 2066.8C79.3144 2084.78 139.013 2145.02 202.093 2183.21C517.455 2371.29 569.931 2424.78 567.604 2466.08C532.938 2414.6 423.458 2391.9 316.138 2321.24C247.466 2277.64 3.03084 2170.69 1.22293 2170.02C0.808356 2203.6 1.02466 2237.21 1.11478 2270.81C120.215 2257.57 148.938 2418.46 227.491 2534.72C266.111 2592.66 340.626 2673.97 365.814 2760.02C261.81 2731.43 246.17 2603.8 142.917 2558.23C137.041 2555.36 130.12 2554.75 124.748 2550.91C118.063 2544.12 114.337 2485.36 64.4185 2447.51C46.2674 2434.01 22.6366 2434.05 1.04268 2433.43C-0.940068 2462.93 0.898481 2492.53 0.123406 2522.06C0.447856 2526.71 -0.633643 2532.99 4.19705 2535.74C111.509 2604.62 95.371 2708.71 155.607 2768.96C198.141 2812.33 271.937 2827.52 349.051 2854.44C505.398 2911.11 501.108 3038.42 724.223 3105.49C796.826 3127.35 858.513 3135.28 952.456 3166.69C1126.76 3226.31 1138.94 3219.87 1178.72 3230.35C1152.12 3239.78 1100.79 3222.95 1058.75 3215.44C907.155 3193.97 852.586 3236.18 586.08 3126.67C488.826 3086.88 332.001 3024.84 248.796 3096.09C267.068 3099.44 303.884 3094.67 341.859 3144.82C386.922 3202.95 377.913 3234.97 463.744 3303.96C567.507 3385.79 639.895 3386.55 655.8 3389.82C621.31 3405.96 559.734 3399.47 521.082 3395.33C362.373 3377.13 394.193 3322.42 262.153 3232.19C261.437 3231.69 137.712 3155.87 88.7523 3124.13C33.7148 3087.01 34.5007 3092.22 0.718231 3051.67C-0.256921 3085.16 0.327089 3221.03 0.610081 3223.45C0.664156 3226.87 4.28718 3228.15 6.63043 3229.96C35.7047 3247.39 57.4969 3273.86 80.9475 3297.82C161.872 3384.68 182.76 3363.44 275.455 3392.34C322.958 3406.75 339.253 3428.1 349.448 3455.93H841.205C831.014 3394.34 743.485 3354.58 687.38 3330.99C613.344 3301.09 432.759 3216.44 417.438 3139.02C708.318 3370.1 1050.65 3206.04 1190.08 3338.83C1225.65 3371.86 1264.19 3410.7 1284.71 3454.74C1312.53 3456.44 1201.2 3455.93 1909.42 3455.93C1907.44 3453.51 1905.4 3450.97 1902.43 3449.87C1712.9 3362.86 1654.16 3460.71 1512.87 3441.18C1460.13 3434.25 1435.26 3404.73 1418.38 3360.68C1406.71 3331.13 1402.77 3292.79 1344.7 3249.03C1315.03 3225.23 1281.47 3206.93 1251.47 3183.57C1124.41 3086.85 996.655 3128.83 987.136 3069.92C1038.95 3059.02 1151.99 3066.57 1270.52 3119.17C1482.33 3212.77 1357.49 3280.98 1705.5 3303.78C1766.94 3308.39 1846.33 3307.2 1918.52 3344.08C1987.86 3378.73 2003.99 3417.01 2066.44 3455.93H2292.45C2292.7 3453.6 2292.54 3451.37 2290.45 3450.05C1980.98 3172.63 1814.34 3269.77 1523.83 3148.81C1511.09 3143.18 1497.77 3138.57 1485.78 3131.39C1510.77 3132.04 1574.36 3152.06 1598.42 3159.48C1813.72 3225.2 2043.82 3128.95 2399.72 3278.45C2500.95 3320.84 2596.03 3379.65 2675.25 3455.93H2897.23C2891.88 3445.62 2656.58 3331.66 2625.14 3317.05C2527.12 3271.26 2464.88 3246.83 2269.34 3180.4C1874.57 3048.76 1830.36 3089.63 1673.22 3064.11C1569.21 3048.16 1534.19 3014.1 1492.56 2991.47C1389.02 2933.16 1358.41 2942.07 1317.5 2908.34C1250.64 2852.69 1307.73 2738.7 1037.89 2576.76C899.405 2494.21 759.588 2489.52 638.839 2399.41C527.645 2317.21 513.075 2332.86 417.222 2205.77C411.327 2197.71 405.415 2189.47 401.954 2180.04C413.937 2177.84 898.994 2238.3 900.796 2238.52C1001.51 2251.88 1034.75 2275.09 1089.21 2280.75C1239.88 2297.81 1415.2 2307.59 1579.54 2363.41C1865.35 2460.3 1922.85 2681.61 2116.78 2792.09C2213.72 2847.66 2279.5 2852.74 2392.62 2939.93C2553.31 3061.02 2902.65 3347.27 2948.76 3406.02C2961.45 3421.89 2972.97 3438.64 2985.01 3455.01C3039.64 3454.83 3094.28 3455.3 3148.89 3454.77C3144.42 3448.8 2913.43 3269.14 2911.63 3267.74ZM623.986 761.907C625.969 771.462 627.159 781.161 628.24 790.861C621.805 782.712 620.345 771.588 623.986 761.907ZM528.111 957.409C617.059 1029.49 639.286 1067.09 778.316 1140.11C998.369 1256.62 1246.3 1264.57 1308.95 1252.21C1282.59 1174.08 1192.88 1150.34 1126.74 1121.42C1076.29 1098.37 1020.99 1106.98 982.792 1101.21C973.828 1100.04 860.631 1078.25 817.304 1057.88C756.537 1029.17 650.939 899.051 631.431 799.46C648.253 813.153 636.973 816.398 725.827 871.773C877.692 963.323 933.755 959.656 1023.28 986.508C1306.44 1068.13 1320.51 1099.26 1425.7 1215.76C1521.52 1318.22 1552.11 1359.47 1588.18 1395.7C1639.74 1446.69 1672.39 1468.44 1750.58 1539.68C1895.34 1667.26 1895.08 1677.46 1930.51 1725.65C1925.37 1724.2 1921.52 1720.38 1917.26 1717.46C1773.43 1615.51 1542.48 1532.33 1433.31 1465.56C1250.74 1356.15 1009.95 1407.47 847.55 1330.76C670.431 1248.9 495.711 996.05 419.655 925.282C395.988 901.07 364.733 886.845 336.217 869.43C335.442 868.636 333.892 867.05 333.117 866.257C403.449 864.09 475.325 914.705 528.111 957.409ZM679.539 1330.75C991.644 1512.11 990.074 1378.28 1134.35 1468.31C1158.91 1483.14 1198.56 1515.81 1267.33 1525.85C1328.01 1533.32 1463.93 1566.41 1553.23 1623.5C1607.6 1659.03 1650.34 1692.88 1715.15 1711.48C1658.53 1716.63 1591.5 1667.72 1505.21 1644.73C1369.77 1609.11 1283.33 1622.37 1256.63 1619.85C1151.06 1615.09 1108.34 1514.47 968.408 1521.33C906.173 1523.2 851.564 1541.11 775.27 1494.66C735.429 1470.57 686.935 1426.02 668.905 1386.35C655.44 1357.05 647.869 1325.46 634.387 1296.17C632.26 1294.15 632.17 1291.1 631.683 1288.43C633.125 1290.31 633.738 1293.03 636.171 1293.99L635.775 1294.56C649.275 1307.83 662.974 1321.26 679.539 1330.75ZM1182.08 1738C1148.81 1734.83 960.053 1732.03 959.467 1731.94C850.039 1720.88 817.627 1595.8 573.426 1562.34C533.539 1558.3 477.239 1573.86 451.073 1555.35C448.495 1554.54 450.55 1551.89 451.415 1550.64C481.832 1507.25 475.927 1415.14 482.003 1339.45C481.749 1269.12 441.016 1194.32 408.984 1132.25C374.01 1062.57 322.102 1018.34 283.26 980.702C159.403 862.755 178.551 835.433 113.573 813.415C245.317 810.402 324.011 917.256 394.907 1002.46C417.366 1029.31 436.779 1058.53 454.714 1088.55C476.127 1123.25 505.598 1151.67 532.275 1182.14C642.857 1302.96 535.035 1466.85 789.906 1560.9C971.975 1628.09 1275.67 1607.21 1432.62 1790.6C1452.79 1814.87 1469.68 1843.86 1472.57 1875.84C1420.2 1864.87 1352.3 1750.37 1182.08 1738ZM1449.82 1680.3C1464.35 1681.01 1475.88 1691.57 1485.49 1701.52C1472.8 1695.86 1461.28 1688.04 1449.82 1680.3ZM1588.43 1802.77C1531.67 1760.39 1568.11 1795.13 1494.76 1708.72C1651.26 1785.23 1706.76 1729.71 1791.9 1783.23C1870.55 1831.02 1848.57 1885.25 2114.78 1960.23C2244.53 1995.9 2253.02 2010.63 2285.76 2027.08C2280.41 2015.89 2272.44 2006.19 2266.32 1995.43C2221.41 1923.67 2230.76 1917.89 2139.19 1797.35C2103.89 1750.61 1932.43 1539.08 1885.88 1496.23C1767.57 1384.98 1701.45 1423.79 1615.22 1242.57C1599.81 1212.51 1586.82 1173.58 1537.13 1123.98C1239.93 845.902 971.423 889.51 886.574 834.166C910.65 830.749 1072.47 823.148 1221.1 870.241C1413.92 929.894 1578.06 1093.33 1727.75 1200.06C1823.05 1270.11 1854.45 1340.33 1959.46 1393.43C2004.84 1418.13 2089.94 1441.74 2144.56 1500.65C2217.63 1575.18 2254.67 1780.57 2313.32 1845.75C2327.81 1863.17 2354.81 1877.75 2385.55 1922.66C2456.63 2033.07 2571.38 2032.22 2657.17 2156.49C2705.45 2224.81 2720.63 2313.1 2800.22 2438.26C2823.83 2474.99 2866.57 2533.82 2902.25 2558.7C2900.49 2558.24 2898.69 2557.34 2897.24 2556.46C2775.41 2482.25 2728.65 2445.73 2616.87 2389.35C2350.7 2258.6 2134.91 2037.6 1967.14 2009.22C1936.18 2003.06 1876.57 2010.36 1800.13 1962.65C1754.4 1933.85 1651.93 1848.41 1588.43 1802.77ZM1038 2685.26C1179.67 2781.98 1141.1 2916.71 1263.71 2989.04C1306.1 3013.86 1418.41 3060.4 1420.67 3115.47C1413.08 3115.47 1401.75 3118.47 1398.39 3109.16C1324.06 2927.38 925.362 3021.32 836.933 3025.98C525.543 3052.55 431.225 2806.38 362.714 2648.5C333.46 2583.07 283.747 2530.41 242.812 2472.48C216.784 2435.9 206.564 2390.56 179.166 2354.83C218.496 2361.25 254.15 2380.1 288.523 2399.36C452.129 2497.45 789.717 2508.98 1038 2685.26ZM2093.55 2498.12C2099.51 2501.4 2104.05 2506.74 2107.68 2512.43C2101.67 2509.12 2096.74 2504.18 2093.55 2498.12Z" fill="black" fill-opacity="0.3"/>
</svg>
