<svg width="22" height="22" viewBox="0 0 22 22" fill="none" xmlns="http://www.w3.org/2000/svg">
<mask id="mask0_29_178" style="mask-type:luminance" maskUnits="userSpaceOnUse" x="0" y="0" width="21" height="22">
<path d="M20.3958 9.16663H11V13.0625H16.4083C15.9042 15.5375 13.7958 16.9583 11 16.9583C7.70001 16.9583 5.04167 14.3 5.04167 11C5.04167 7.69996 7.70001 5.04163 11 5.04163C12.4208 5.04163 13.7042 5.54579 14.7125 6.37079L17.6458 3.43746C15.8583 1.87913 13.5667 0.916626 11 0.916626C5.40834 0.916626 0.916672 5.40829 0.916672 11C0.916672 16.5916 5.40834 21.0833 11 21.0833C16.0417 21.0833 20.625 17.4166 20.625 11C20.625 10.4041 20.5333 9.76246 20.3958 9.16663Z" fill="white"/>
</mask>
<g mask="url(#mask0_29_178)">
<path d="M0 16.9583V5.04163L7.79167 11L0 16.9583Z" fill="#FBBC05"/>
</g>
<mask id="mask1_29_178" style="mask-type:luminance" maskUnits="userSpaceOnUse" x="0" y="0" width="21" height="22">
<path d="M20.3958 9.16663H11V13.0625H16.4083C15.9042 15.5375 13.7958 16.9583 11 16.9583C7.70001 16.9583 5.04167 14.3 5.04167 11C5.04167 7.69996 7.70001 5.04163 11 5.04163C12.4208 5.04163 13.7042 5.54579 14.7125 6.37079L17.6458 3.43746C15.8583 1.87913 13.5667 0.916626 11 0.916626C5.40834 0.916626 0.916672 5.40829 0.916672 11C0.916672 16.5916 5.40834 21.0833 11 21.0833C16.0417 21.0833 20.625 17.4166 20.625 11C20.625 10.4041 20.5333 9.76246 20.3958 9.16663Z" fill="white"/>
</mask>
<g mask="url(#mask1_29_178)">
<path d="M0 5.04167L7.79167 11L11 8.20417L22 6.41667V0H0V5.04167Z" fill="#EA4335"/>
</g>
<mask id="mask2_29_178" style="mask-type:luminance" maskUnits="userSpaceOnUse" x="0" y="0" width="21" height="22">
<path d="M20.3958 9.16663H11V13.0625H16.4083C15.9042 15.5375 13.7958 16.9583 11 16.9583C7.70001 16.9583 5.04167 14.3 5.04167 11C5.04167 7.69996 7.70001 5.04163 11 5.04163C12.4208 5.04163 13.7042 5.54579 14.7125 6.37079L17.6458 3.43746C15.8583 1.87913 13.5667 0.916626 11 0.916626C5.40834 0.916626 0.916672 5.40829 0.916672 11C0.916672 16.5916 5.40834 21.0833 11 21.0833C16.0417 21.0833 20.625 17.4166 20.625 11C20.625 10.4041 20.5333 9.76246 20.3958 9.16663Z" fill="white"/>
</mask>
<g mask="url(#mask2_29_178)">
<path d="M0 16.9583L13.75 6.41667L17.3708 6.875L22 0V22H0V16.9583Z" fill="#34A853"/>
</g>
<mask id="mask3_29_178" style="mask-type:luminance" maskUnits="userSpaceOnUse" x="0" y="0" width="21" height="22">
<path d="M20.3958 9.16663H11V13.0625H16.4083C15.9042 15.5375 13.7958 16.9583 11 16.9583C7.70001 16.9583 5.04167 14.3 5.04167 11C5.04167 7.69996 7.70001 5.04163 11 5.04163C12.4208 5.04163 13.7042 5.54579 14.7125 6.37079L17.6458 3.43746C15.8583 1.87913 13.5667 0.916626 11 0.916626C5.40834 0.916626 0.916672 5.40829 0.916672 11C0.916672 16.5916 5.40834 21.0833 11 21.0833C16.0417 21.0833 20.625 17.4166 20.625 11C20.625 10.4041 20.5333 9.76246 20.3958 9.16663Z" fill="white"/>
</mask>
<g mask="url(#mask3_29_178)">
<path d="M22 22L7.79168 11L5.95834 9.62496L22 5.04163V22Z" fill="#4285F4"/>
</g>
</svg>
