<svg width="1076" height="232" viewBox="0 0 1076 232" fill="none" xmlns="http://www.w3.org/2000/svg">
<path d="M242.777 131.522L218.157 223.392C217.375 226.252 215.493 228.686 212.922 230.162C210.351 231.639 207.301 232.038 204.437 231.272L138.897 213.712C136.023 212.941 133.574 211.061 132.087 208.484C130.6 205.908 130.197 202.846 130.967 199.972L135.697 182.302L148.697 185.782C150.475 186.261 152.331 186.385 154.158 186.145C155.984 185.905 157.746 185.308 159.341 184.386C160.936 183.465 162.333 182.237 163.453 180.775C164.573 179.312 165.393 177.643 165.867 175.862L185.017 104.382L234.837 117.732C236.266 118.113 237.605 118.772 238.779 119.672C239.952 120.572 240.936 121.695 241.674 122.976C242.412 124.258 242.889 125.673 243.079 127.139C243.268 128.606 243.165 130.095 242.777 131.522Z" fill="#302d27"/>
<path d="M77.0044 16.6657L26.1944 206.326C25.7413 208.016 24.9598 209.6 23.8945 210.988C22.8291 212.376 21.5008 213.541 19.9853 214.416C18.4699 215.29 16.797 215.858 15.0621 216.086C13.3273 216.314 11.5645 216.199 9.87439 215.746C8.18428 215.293 6.59995 214.511 5.21187 213.446C3.82379 212.38 2.65914 211.052 1.78441 209.537C0.909681 208.021 0.342009 206.348 0.113804 204.613C-0.1144 202.879 0.00133124 201.116 0.454392 199.426L51.2744 9.76567C52.2121 6.37912 54.45 3.5003 57.5006 1.7563C60.5513 0.0122983 64.1675 -0.45557 67.5615 0.454609C70.9556 1.36479 73.8525 3.57927 75.6211 6.61566C77.3898 9.65206 77.887 13.2644 77.0044 16.6657Z" fill="#302d27"/>
<path d="M176.729 59.1779L169.019 87.9479L149.859 159.428C149.67 160.142 149.343 160.811 148.896 161.399C148.449 161.986 147.89 162.48 147.252 162.851C146.614 163.223 145.91 163.465 145.178 163.564C144.446 163.663 143.702 163.617 142.989 163.428L129.989 159.948L71.1888 144.158C70.4742 143.971 69.8037 143.644 69.2156 143.198C68.6276 142.751 68.1335 142.192 67.7619 141.554C67.3903 140.915 67.1483 140.21 67.05 139.478C66.9516 138.746 66.9988 138.002 67.1888 137.288L96.9888 26.1979C97.1711 25.4806 97.4945 24.8068 97.9402 24.2159C98.3859 23.625 98.9449 23.1289 99.5845 22.7565C100.224 22.3841 100.932 22.1429 101.665 22.047C102.399 21.9511 103.145 22.0024 103.859 22.1979L164.859 38.5279C169.17 39.6941 172.842 42.5241 175.068 46.3962C177.293 50.2683 177.891 54.8656 176.729 59.1779Z" fill="#302d27"/>
<path d="M388.967 188.416C380.589 188.416 373.155 186.764 366.665 183.46C360.293 180.156 355.337 175.436 351.797 169.3C348.375 163.164 346.664 156.084 346.664 148.06V101.686C346.664 93.662 348.375 86.641 351.797 80.623C355.337 74.605 360.293 69.944 366.665 66.64C373.155 63.336 380.589 61.684 388.967 61.684C397.345 61.684 404.72 63.277 411.092 66.463C417.582 69.649 422.538 74.192 425.96 80.092C429.5 85.992 431.27 92.836 431.27 100.624V101.332C431.27 101.922 431.034 102.453 430.562 102.925C430.208 103.397 429.736 103.633 429.146 103.633L404.012 104.695C402.596 104.695 401.888 104.046 401.888 102.748V100.27C401.888 96.258 400.708 93.013 398.348 90.535C395.988 88.057 392.861 86.818 388.967 86.818C385.073 86.818 381.946 88.057 379.586 90.535C377.226 93.013 376.046 96.258 376.046 100.27V149.83C376.046 153.842 377.226 157.087 379.586 159.565C381.946 162.043 385.073 163.282 388.967 163.282C392.861 163.282 395.988 162.043 398.348 159.565C400.708 157.087 401.888 153.842 401.888 149.83V147.352C401.888 146.054 402.596 145.405 404.012 145.405L429.146 146.467C429.736 146.467 430.208 146.703 430.562 147.175C431.034 147.647 431.27 148.178 431.27 148.768V149.122C431.27 156.91 429.5 163.813 425.96 169.831C422.538 175.731 417.582 180.333 411.092 183.637C404.72 186.823 397.345 188.416 388.967 188.416ZM497.833 65.224C497.833 64.634 498.01 64.162 498.364 63.808C498.836 63.336 499.367 63.1 499.957 63.1H525.091C525.681 63.1 526.153 63.336 526.507 63.808C526.979 64.162 527.215 64.634 527.215 65.224V184.876C527.215 185.466 526.979 185.997 526.507 186.469C526.153 186.823 525.681 187 525.091 187H499.957C499.367 187 498.836 186.823 498.364 186.469C498.01 185.997 497.833 185.466 497.833 184.876V138.148C497.833 137.558 497.538 137.263 496.948 137.263H474.115C473.525 137.263 473.23 137.558 473.23 138.148V184.876C473.23 185.466 472.994 185.997 472.522 186.469C472.168 186.823 471.696 187 471.106 187H445.972C445.382 187 444.851 186.823 444.379 186.469C444.025 185.997 443.848 185.466 443.848 184.876V65.224C443.848 64.634 444.025 64.162 444.379 63.808C444.851 63.336 445.382 63.1 445.972 63.1H471.106C471.696 63.1 472.168 63.336 472.522 63.808C472.994 64.162 473.23 64.634 473.23 65.224V111.244C473.23 111.834 473.525 112.129 474.115 112.129H496.948C497.538 112.129 497.833 111.834 497.833 111.244V65.224ZM543.46 187C542.87 187 542.339 186.823 541.867 186.469C541.513 185.997 541.336 185.466 541.336 184.876V65.224C541.336 64.634 541.513 64.162 541.867 63.808C542.339 63.336 542.87 63.1 543.46 63.1H568.594C569.184 63.1 569.656 63.336 570.01 63.808C570.482 64.162 570.718 64.634 570.718 65.224V184.876C570.718 185.466 570.482 185.997 570.01 186.469C569.656 186.823 569.184 187 568.594 187H543.46ZM654.085 64.516C654.557 63.572 655.383 63.1 656.563 63.1H681.52C682.11 63.1 682.582 63.336 682.936 63.808C683.408 64.162 683.644 64.634 683.644 65.224V184.876C683.644 185.466 683.408 185.997 682.936 186.469C682.582 186.823 682.11 187 681.52 187H656.386C655.796 187 655.265 186.823 654.793 186.469C654.439 185.997 654.262 185.466 654.262 184.876V111.421C654.262 110.949 654.144 110.713 653.908 110.713C653.672 110.595 653.436 110.713 653.2 111.067L639.394 134.077C638.922 135.021 638.096 135.493 636.916 135.493H631.96C630.78 135.493 629.954 135.021 629.482 134.077L615.676 111.067C615.44 110.713 615.204 110.595 614.968 110.713C614.732 110.713 614.614 110.949 614.614 111.421V184.876C614.614 185.466 614.378 185.997 613.906 186.469C613.552 186.823 613.08 187 612.49 187H587.356C586.766 187 586.235 186.823 585.763 186.469C585.409 185.997 585.232 185.466 585.232 184.876V65.224C585.232 64.634 585.409 64.162 585.763 63.808C586.235 63.336 586.766 63.1 587.356 63.1H612.313C613.493 63.1 614.319 63.572 614.791 64.516L633.907 96.73C634.261 97.438 634.615 97.438 634.969 96.73L654.085 64.516ZM744.487 63.1C751.921 63.1 758.47 64.752 764.134 68.056C769.916 71.242 774.341 75.844 777.409 81.862C780.595 87.762 782.188 94.547 782.188 102.217C782.188 109.769 780.595 116.436 777.409 122.218C774.341 128 769.916 132.484 764.134 135.67C758.47 138.738 751.921 140.272 744.487 140.272H727.849C727.259 140.272 726.964 140.567 726.964 141.157V184.876C726.964 185.466 726.728 185.997 726.256 186.469C725.902 186.823 725.43 187 724.84 187H699.706C699.116 187 698.585 186.823 698.113 186.469C697.759 185.997 697.582 185.466 697.582 184.876V65.224C697.582 64.634 697.759 64.162 698.113 63.808C698.585 63.336 699.116 63.1 699.706 63.1H744.487ZM739.531 117.085C743.543 117.085 746.788 115.846 749.266 113.368C751.744 110.772 752.983 107.291 752.983 102.925C752.983 98.441 751.744 94.901 749.266 92.305C746.788 89.591 743.543 88.234 739.531 88.234H727.849C727.259 88.234 726.964 88.529 726.964 89.119V116.2C726.964 116.79 727.259 117.085 727.849 117.085H739.531ZM874.782 63.1C875.372 63.1 875.844 63.336 876.198 63.808C876.67 64.162 876.906 64.634 876.906 65.224V86.287C876.906 86.877 876.67 87.408 876.198 87.88C875.844 88.234 875.372 88.411 874.782 88.411H848.232C847.642 88.411 847.347 88.706 847.347 89.296V184.876C847.347 185.466 847.111 185.997 846.639 186.469C846.285 186.823 845.813 187 845.223 187H820.089C819.499 187 818.968 186.823 818.496 186.469C818.142 185.997 817.965 185.466 817.965 184.876V89.296C817.965 88.706 817.67 88.411 817.08 88.411H791.592C791.002 88.411 790.471 88.234 789.999 87.88C789.645 87.408 789.468 86.877 789.468 86.287V65.224C789.468 64.634 789.645 64.162 789.999 63.808C790.471 63.336 791.002 63.1 791.592 63.1H874.782ZM926.206 188.77C917.71 188.77 910.217 187.059 903.727 183.637C897.237 180.215 892.163 175.377 888.505 169.123C884.965 162.869 883.195 155.612 883.195 147.352V102.748C883.195 94.606 884.965 87.467 888.505 81.331C892.163 75.077 897.237 70.239 903.727 66.817C910.217 63.395 917.71 61.684 926.206 61.684C934.702 61.684 942.195 63.395 948.685 66.817C955.175 70.239 960.19 75.077 963.73 81.331C967.388 87.467 969.217 94.606 969.217 102.748V147.352C969.217 155.612 967.388 162.869 963.73 169.123C960.19 175.377 955.175 180.215 948.685 183.637C942.195 187.059 934.702 188.77 926.206 188.77ZM926.206 163.459C930.336 163.459 933.64 162.102 936.118 159.388C938.596 156.556 939.835 152.898 939.835 148.414V102.04C939.835 97.556 938.537 93.898 935.941 91.066C933.463 88.234 930.218 86.818 926.206 86.818C922.076 86.818 918.772 88.234 916.294 91.066C913.816 93.78 912.577 97.438 912.577 102.04V148.414C912.577 152.898 913.816 156.556 916.294 159.388C918.772 162.102 922.076 163.459 926.206 163.459ZM984.405 187C983.815 187 983.284 186.823 982.812 186.469C982.458 185.997 982.281 185.466 982.281 184.876V65.224C982.281 64.634 982.458 64.162 982.812 63.808C983.284 63.336 983.815 63.1 984.405 63.1H1009.54C1010.13 63.1 1010.6 63.336 1010.95 63.808C1011.43 64.162 1011.66 64.634 1011.66 65.224V108.235C1011.66 108.707 1011.78 109.002 1012.02 109.12C1012.25 109.12 1012.49 108.943 1012.72 108.589L1039.81 64.516C1040.28 63.572 1041.1 63.1 1042.28 63.1H1069.9C1070.72 63.1 1071.25 63.336 1071.49 63.808C1071.84 64.162 1071.78 64.752 1071.31 65.578L1039.45 117.262C1039.33 117.616 1039.33 118.029 1039.45 118.501L1072.9 184.522C1073.14 184.994 1073.26 185.348 1073.26 185.584C1073.26 186.528 1072.61 187 1071.31 187H1043.88C1042.81 187 1041.99 186.469 1041.4 185.407L1019.27 141.157C1018.8 140.449 1018.39 140.449 1018.03 141.157L1012.02 150.715C1011.78 151.187 1011.66 151.541 1011.66 151.777V184.876C1011.66 185.466 1011.43 185.997 1010.95 186.469C1010.6 186.823 1010.13 187 1009.54 187H984.405Z" fill="#302d27"/>
</svg>
