<svg width="133" height="89" viewBox="0 0 133 89" fill="none" xmlns="http://www.w3.org/2000/svg">
<path d="M92.1852 22.8861L87.6074 39.9684C87.462 40.5001 87.112 40.9527 86.634 41.2272C86.156 41.5017 85.5888 41.5759 85.0563 41.4336L72.8698 38.1685C72.3355 38.0251 71.8801 37.6755 71.6036 37.1964C71.3271 36.7173 71.2521 36.148 71.3953 35.6137L72.2748 32.3281L74.692 32.9752C75.0227 33.0643 75.3678 33.0872 75.7074 33.0426C76.0471 32.9981 76.3745 32.8869 76.6711 32.7156C76.9677 32.5442 77.2276 32.316 77.4358 32.0441C77.644 31.7721 77.7965 31.4617 77.8846 31.1307L81.4453 17.8397L90.7088 20.322C90.9745 20.3927 91.2237 20.5153 91.4418 20.6826C91.66 20.85 91.843 21.0588 91.9802 21.2971C92.1174 21.5354 92.2061 21.7984 92.2413 22.0711C92.2765 22.3438 92.2574 22.6208 92.1852 22.8861Z" fill="#0C0C0C"/>
<path d="M60.3182 3.09881L50.8706 38.3641C50.7863 38.6784 50.641 38.973 50.4429 39.231C50.2448 39.4891 49.9978 39.7057 49.7161 39.8684C49.4343 40.031 49.1232 40.1366 48.8006 40.179C48.4781 40.2214 48.1503 40.1999 47.836 40.1157C47.5218 40.0314 47.2272 39.8861 46.9691 39.688C46.711 39.4899 46.4944 39.2429 46.3318 38.9611C46.1691 38.6794 46.0636 38.3683 46.0212 38.0457C45.9787 37.7232 46.0002 37.3954 46.0845 37.0811L55.5339 1.81582C55.7083 1.18613 56.1244 0.650843 56.6916 0.326565C57.2589 0.00228675 57.9313 -0.0847085 58.5624 0.0845298C59.1934 0.253768 59.7321 0.665527 60.061 1.23011C60.3898 1.7947 60.4823 2.46637 60.3182 3.09881Z" fill="#0C0C0C"/>
<path d="M79.4029 9.91285L77.9693 15.2623L74.4067 28.5533C74.3717 28.686 74.3109 28.8105 74.2277 28.9198C74.1446 29.029 74.0407 29.1207 73.9221 29.1898C73.8035 29.2589 73.6724 29.3039 73.5364 29.3223C73.4004 29.3407 73.262 29.3321 73.1293 29.297L70.7121 28.65L59.7789 25.714C59.646 25.6792 59.5213 25.6185 59.412 25.5354C59.3026 25.4523 59.2108 25.3485 59.1417 25.2298C59.0726 25.1111 59.0276 24.9799 59.0093 24.8438C58.991 24.7077 58.9998 24.5693 59.0351 24.4366L64.5761 3.78056C64.61 3.64718 64.6701 3.5219 64.753 3.41203C64.8359 3.30216 64.9398 3.2099 65.0587 3.14066C65.1777 3.07141 65.3092 3.02656 65.4457 3.00873C65.5821 2.9909 65.7208 3.00044 65.8535 3.0368L77.1958 6.0732C77.9975 6.29003 78.6802 6.81624 79.0941 7.53621C79.5079 8.25619 79.619 9.11101 79.4029 9.91285Z" fill="#0C0C0C"/>
<path d="M8.672 83.256C7.15733 83.256 5.81333 82.9573 4.64 82.36C3.488 81.7627 2.592 80.9093 1.952 79.8C1.33333 78.6907 1.024 77.4107 1.024 75.96V67.576C1.024 66.1253 1.33333 64.856 1.952 63.768C2.592 62.68 3.488 61.8373 4.64 61.24C5.81333 60.6427 7.15733 60.344 8.672 60.344C10.1867 60.344 11.52 60.632 12.672 61.208C13.8453 61.784 14.7413 62.6053 15.36 63.672C16 64.7387 16.32 65.976 16.32 67.384V67.512C16.32 67.6187 16.2773 67.7147 16.192 67.8C16.128 67.8853 16.0427 67.928 15.936 67.928L11.392 68.12C11.136 68.12 11.008 68.0027 11.008 67.768V67.32C11.008 66.5947 10.7947 66.008 10.368 65.56C9.94133 65.112 9.376 64.888 8.672 64.888C7.968 64.888 7.40267 65.112 6.976 65.56C6.54933 66.008 6.336 66.5947 6.336 67.32V76.28C6.336 77.0053 6.54933 77.592 6.976 78.04C7.40267 78.488 7.968 78.712 8.672 78.712C9.376 78.712 9.94133 78.488 10.368 78.04C10.7947 77.592 11.008 77.0053 11.008 76.28V75.832C11.008 75.5973 11.136 75.48 11.392 75.48L15.936 75.672C16.0427 75.672 16.128 75.7147 16.192 75.8C16.2773 75.8853 16.32 75.9813 16.32 76.088V76.152C16.32 77.56 16 78.808 15.36 79.896C14.7413 80.9627 13.8453 81.7947 12.672 82.392C11.52 82.968 10.1867 83.256 8.672 83.256ZM28.354 60.984C28.354 60.8773 28.386 60.792 28.45 60.728C28.5353 60.6427 28.6313 60.6 28.738 60.6H33.282C33.3887 60.6 33.474 60.6427 33.538 60.728C33.6233 60.792 33.666 60.8773 33.666 60.984V82.616C33.666 82.7227 33.6233 82.8187 33.538 82.904C33.474 82.968 33.3887 83 33.282 83H28.738C28.6313 83 28.5353 82.968 28.45 82.904C28.386 82.8187 28.354 82.7227 28.354 82.616V74.168C28.354 74.0613 28.3007 74.008 28.194 74.008H24.066C23.9593 74.008 23.906 74.0613 23.906 74.168V82.616C23.906 82.7227 23.8633 82.8187 23.778 82.904C23.714 82.968 23.6287 83 23.522 83H18.978C18.8713 83 18.7753 82.968 18.69 82.904C18.626 82.8187 18.594 82.7227 18.594 82.616V60.984C18.594 60.8773 18.626 60.792 18.69 60.728C18.7753 60.6427 18.8713 60.6 18.978 60.6H23.522C23.6287 60.6 23.714 60.6427 23.778 60.728C23.8633 60.792 23.906 60.8773 23.906 60.984V69.304C23.906 69.4107 23.9593 69.464 24.066 69.464H28.194C28.3007 69.464 28.354 69.4107 28.354 69.304V60.984ZM36.603 83C36.4963 83 36.4003 82.968 36.315 82.904C36.251 82.8187 36.219 82.7227 36.219 82.616V60.984C36.219 60.8773 36.251 60.792 36.315 60.728C36.4003 60.6427 36.4963 60.6 36.603 60.6H41.147C41.2537 60.6 41.339 60.6427 41.403 60.728C41.4883 60.792 41.531 60.8773 41.531 60.984V82.616C41.531 82.7227 41.4883 82.8187 41.403 82.904C41.339 82.968 41.2537 83 41.147 83H36.603ZM56.603 60.856C56.6883 60.6853 56.8377 60.6 57.051 60.6H61.563C61.6697 60.6 61.755 60.6427 61.819 60.728C61.9043 60.792 61.947 60.8773 61.947 60.984V82.616C61.947 82.7227 61.9043 82.8187 61.819 82.904C61.755 82.968 61.6697 83 61.563 83H57.019C56.9123 83 56.8163 82.968 56.731 82.904C56.667 82.8187 56.635 82.7227 56.635 82.616V69.336C56.635 69.2507 56.6137 69.208 56.571 69.208C56.5283 69.1867 56.4857 69.208 56.443 69.272L53.947 73.432C53.8617 73.6027 53.7123 73.688 53.499 73.688H52.603C52.3897 73.688 52.2403 73.6027 52.155 73.432L49.659 69.272C49.6163 69.208 49.5737 69.1867 49.531 69.208C49.4883 69.208 49.467 69.2507 49.467 69.336V82.616C49.467 82.7227 49.4243 82.8187 49.339 82.904C49.275 82.968 49.1897 83 49.083 83H44.539C44.4323 83 44.3363 82.968 44.251 82.904C44.187 82.8187 44.155 82.7227 44.155 82.616V60.984C44.155 60.8773 44.187 60.792 44.251 60.728C44.3363 60.6427 44.4323 60.6 44.539 60.6H49.051C49.2643 60.6 49.4137 60.6853 49.499 60.856L52.955 66.68C53.019 66.808 53.083 66.808 53.147 66.68L56.603 60.856ZM72.9467 60.6C74.2907 60.6 75.4747 60.8987 76.4987 61.496C77.5441 62.072 78.3441 62.904 78.8987 63.992C79.4747 65.0587 79.7627 66.2853 79.7627 67.672C79.7627 69.0373 79.4747 70.2427 78.8987 71.288C78.3441 72.3333 77.5441 73.144 76.4987 73.72C75.4747 74.2747 74.2907 74.552 72.9467 74.552H69.9387C69.8321 74.552 69.7787 74.6053 69.7787 74.712V82.616C69.7787 82.7227 69.7361 82.8187 69.6507 82.904C69.5867 82.968 69.5014 83 69.3947 83H64.8507C64.7441 83 64.6481 82.968 64.5627 82.904C64.4987 82.8187 64.4667 82.7227 64.4667 82.616V60.984C64.4667 60.8773 64.4987 60.792 64.5627 60.728C64.6481 60.6427 64.7441 60.6 64.8507 60.6H72.9467ZM72.0507 70.36C72.7761 70.36 73.3627 70.136 73.8107 69.688C74.2587 69.2187 74.4827 68.5893 74.4827 67.8C74.4827 66.9893 74.2587 66.3493 73.8107 65.88C73.3627 65.3893 72.7761 65.144 72.0507 65.144H69.9387C69.8321 65.144 69.7787 65.1973 69.7787 65.304V70.2C69.7787 70.3067 69.8321 70.36 69.9387 70.36H72.0507ZM96.503 60.6C96.6097 60.6 96.695 60.6427 96.759 60.728C96.8443 60.792 96.887 60.8773 96.887 60.984V64.792C96.887 64.8987 96.8443 64.9947 96.759 65.08C96.695 65.144 96.6097 65.176 96.503 65.176H91.703C91.5963 65.176 91.543 65.2293 91.543 65.336V82.616C91.543 82.7227 91.5003 82.8187 91.415 82.904C91.351 82.968 91.2657 83 91.159 83H86.615C86.5083 83 86.4123 82.968 86.327 82.904C86.263 82.8187 86.231 82.7227 86.231 82.616V65.336C86.231 65.2293 86.1777 65.176 86.071 65.176H81.463C81.3563 65.176 81.2603 65.144 81.175 65.08C81.111 64.9947 81.079 64.8987 81.079 64.792V60.984C81.079 60.8773 81.111 60.792 81.175 60.728C81.2603 60.6427 81.3563 60.6 81.463 60.6H96.503ZM105.8 83.32C104.264 83.32 102.909 83.0107 101.736 82.392C100.563 81.7733 99.6453 80.8987 98.984 79.768C98.344 78.6373 98.024 77.3253 98.024 75.832V67.768C98.024 66.296 98.344 65.0053 98.984 63.896C99.6453 62.7653 100.563 61.8907 101.736 61.272C102.909 60.6533 104.264 60.344 105.8 60.344C107.336 60.344 108.691 60.6533 109.864 61.272C111.037 61.8907 111.944 62.7653 112.584 63.896C113.245 65.0053 113.576 66.296 113.576 67.768V75.832C113.576 77.3253 113.245 78.6373 112.584 79.768C111.944 80.8987 111.037 81.7733 109.864 82.392C108.691 83.0107 107.336 83.32 105.8 83.32ZM105.8 78.744C106.547 78.744 107.144 78.4987 107.592 78.008C108.04 77.496 108.264 76.8347 108.264 76.024V67.64C108.264 66.8293 108.029 66.168 107.56 65.656C107.112 65.144 106.525 64.888 105.8 64.888C105.053 64.888 104.456 65.144 104.008 65.656C103.56 66.1467 103.336 66.808 103.336 67.64V76.024C103.336 76.8347 103.56 77.496 104.008 78.008C104.456 78.4987 105.053 78.744 105.8 78.744ZM116.322 83C116.215 83 116.119 82.968 116.034 82.904C115.97 82.8187 115.938 82.7227 115.938 82.616V60.984C115.938 60.8773 115.97 60.792 116.034 60.728C116.119 60.6427 116.215 60.6 116.322 60.6H120.866C120.972 60.6 121.058 60.6427 121.122 60.728C121.207 60.792 121.25 60.8773 121.25 60.984V68.76C121.25 68.8453 121.271 68.8987 121.314 68.92C121.356 68.92 121.399 68.888 121.442 68.824L126.338 60.856C126.423 60.6853 126.572 60.6 126.786 60.6H131.778C131.927 60.6 132.023 60.6427 132.066 60.728C132.13 60.792 132.119 60.8987 132.034 61.048L126.274 70.392C126.252 70.456 126.252 70.5307 126.274 70.616L132.322 82.552C132.364 82.6373 132.386 82.7013 132.386 82.744C132.386 82.9147 132.268 83 132.034 83H127.074C126.882 83 126.732 82.904 126.626 82.712L122.626 74.712C122.54 74.584 122.466 74.584 122.402 74.712L121.314 76.44C121.271 76.5253 121.25 76.5893 121.25 76.632V82.616C121.25 82.7227 121.207 82.8187 121.122 82.904C121.058 82.968 120.972 83 120.866 83H116.322Z" fill="#0C0C0C"/>
</svg>
