<svg width="2499" height="2677" viewBox="0 0 2499 2677" fill="none" xmlns="http://www.w3.org/2000/svg">
<g clip-path="url(#clip0_874_2247)">
<path opacity="0.15" fill-rule="evenodd" clip-rule="evenodd" d="M2009.15 1053.77C2016.71 1043.84 2021.82 1032.26 2024.06 1019.98C2027.29 1002.49 2024.61 984.418 2016.45 968.612C2008.3 952.805 1995.12 940.157 1978.99 932.654C1976.7 931.562 1974.34 930.616 1971.93 929.82L2009.11 912.121C2017.62 908.09 2025.35 902.584 2031.95 895.859C2032.67 895.126 2033.38 894.394 2034.1 893.661C2044.23 882.517 2051.02 868.748 2053.69 853.928C2056.36 839.108 2054.81 823.836 2049.21 809.856C2043.62 795.876 2034.2 783.753 2022.04 774.872C2009.88 765.991 1995.46 760.711 1980.44 759.636L2180.07 630.523C2197.94 618.959 2210.49 600.77 2214.95 579.957C2219.41 559.143 2215.42 537.41 2203.86 519.539C2192.29 501.667 2174.11 489.121 2153.29 484.66C2132.48 480.2 2110.75 484.19 2092.87 495.753L1852.67 651.115L1934.3 389.25C1940.41 369.668 1938.48 348.462 1928.95 330.298C1919.42 312.134 1903.07 298.5 1883.49 292.395C1863.9 286.29 1842.7 288.214 1824.53 297.744C1806.37 307.274 1792.74 323.629 1786.63 343.212L1685.56 667.707C1660.8 665.77 1635.89 667.401 1611.59 672.55L1532.83 615.875C1520.33 606.905 1505.52 601.718 1490.17 600.933C1474.81 600.148 1459.55 603.799 1446.21 611.449C1432.86 619.099 1422.01 630.426 1414.93 644.079C1407.85 657.731 1404.84 673.132 1406.28 688.444L1406.37 690.352L1421.2 841.062C1416.58 854.444 1413.08 868.184 1410.72 882.143C1405.7 912.18 1406 942.865 1411.6 972.799L1294.36 1092.33L1270.95 1092.06L1274.53 1044.06C1274.67 1042.22 1274.39 1040.37 1273.71 1038.65C1273.03 1036.93 1271.97 1035.39 1270.61 1034.14C1269.25 1032.89 1267.62 1031.97 1265.85 1031.44C1264.08 1030.92 1262.21 1030.8 1260.39 1031.09C1247.01 1033.27 1234.76 1039.89 1225.61 1049.9C1216.47 1059.91 1210.97 1072.71 1210.02 1086.23C1209.83 1089.06 1209.83 1091.89 1210.02 1094.71L1208.07 1094.16C1197.81 1091.77 1187.05 1092.89 1177.51 1097.34C1167.97 1101.8 1160.2 1109.33 1155.45 1118.73C1154.78 1120.01 1154.41 1121.43 1154.37 1122.87C1154.33 1124.32 1154.62 1125.75 1155.22 1127.07C1155.82 1128.39 1156.71 1129.55 1157.83 1130.47C1158.94 1131.39 1160.25 1132.04 1161.66 1132.38L1194.16 1140.05L930.8 1408.56L929.009 1393.19C928.795 1391.25 928.14 1389.38 927.096 1387.73C926.051 1386.08 924.644 1384.69 922.98 1383.66C921.317 1382.63 919.442 1382 917.497 1381.81C915.553 1381.62 913.59 1381.87 911.758 1382.55C900.211 1386.78 890.136 1394.26 882.75 1404.09C875.363 1413.92 870.981 1425.68 870.133 1437.95L829.651 1441.97C816.259 1443.28 813.73 1458.2 825.177 1468.9C833.518 1476.7 843.291 1482.82 853.957 1486.91L498.745 1849.09C498.574 1846.86 498.207 1844.65 497.649 1842.49C495.364 1833.88 490.237 1826.3 483.099 1820.98C475.962 1815.65 467.235 1812.9 458.334 1813.16C457.121 1813.19 455.93 1813.49 454.852 1814.04C453.773 1814.6 452.835 1815.39 452.109 1816.36C451.382 1817.33 450.886 1818.46 450.658 1819.65C450.43 1820.84 450.477 1822.07 450.793 1823.24L460.897 1860.83C454.265 1857.64 446.865 1856.39 439.551 1857.22C430.738 1858.26 422.527 1862.22 416.236 1868.48C409.946 1874.74 405.941 1882.93 404.865 1891.74C404.734 1892.95 404.879 1894.17 405.289 1895.32C405.698 1896.46 406.362 1897.5 407.231 1898.35C408.099 1899.2 409.149 1899.85 410.302 1900.24C411.455 1900.62 412.681 1900.74 413.888 1900.59L452.378 1896.05L231.037 2121.73L509.965 2395.3L511.175 2394.06L523.768 2381.22C532.809 2389.55 544.602 2394.25 556.892 2394.43C569.182 2394.61 581.105 2390.25 590.382 2382.18C593.849 2379.46 596.95 2376.29 599.609 2372.77C600.503 2371.53 601.105 2370.1 601.37 2368.6C601.634 2367.09 601.554 2365.54 601.136 2364.07C600.717 2362.59 599.972 2361.24 598.954 2360.09C597.936 2358.95 596.673 2358.05 595.26 2357.46L561.096 2343.47L578.491 2325.74C582.433 2332 587.715 2337.31 593.957 2341.28C595.948 2342.52 598.305 2343.04 600.633 2342.75C602.96 2342.45 605.115 2341.37 606.735 2339.67C608.376 2338.45 609.622 2336.78 610.317 2334.86L632.002 2271.18L824.602 2074.8L817.806 2094.61C817.315 2096.07 817.16 2097.61 817.352 2099.13C817.543 2100.65 818.077 2102.11 818.913 2103.4C819.748 2104.68 820.864 2105.76 822.176 2106.55C823.489 2107.35 824.963 2107.83 826.49 2107.97C836.336 2108.93 846.245 2106.99 855.007 2102.4C863.768 2097.81 871.002 2090.76 875.821 2082.12C880.641 2073.48 882.838 2063.63 882.143 2053.76C881.449 2043.89 877.893 2034.44 871.911 2026.57L1004.27 1891.61C1010.85 1901.99 1021.02 1909.58 1032.85 1912.91C1035.7 1913.73 1038.72 1913.75 1041.59 1912.97C1044.45 1912.19 1047.04 1910.63 1049.08 1908.48C1051.54 1906.5 1053.4 1903.87 1054.45 1900.89C1055.5 1897.92 1055.7 1894.7 1055.03 1891.62L1051.59 1876.22L1090.92 1851.55C1091.88 1850.92 1092.78 1850.21 1093.61 1849.42C1102.9 1842.27 1103.22 1828.59 1093.25 1823.8C1087.74 1821.06 1081.74 1819.44 1075.59 1819.05L1464.2 1422.83C1471.86 1433.91 1482.66 1442.45 1495.22 1447.35C1499.08 1448.87 1503.29 1449.27 1507.37 1448.51C1511.45 1447.75 1515.23 1445.85 1518.28 1443.04C1521.46 1440.61 1523.95 1437.4 1525.51 1433.71C1527.07 1430.03 1527.64 1426 1527.17 1422.02L1523.01 1387.69C1533 1390.57 1543.47 1391.37 1553.78 1390.04C1564.08 1388.71 1574.01 1385.29 1582.94 1379.97C1584.34 1379.12 1585.66 1378.14 1586.88 1377.03C1590.08 1374.44 1592.6 1371.12 1594.24 1367.35C1595.88 1363.58 1596.59 1359.46 1596.3 1355.36C1596 1351.26 1594.73 1347.29 1592.57 1343.78C1590.42 1340.28 1587.45 1337.35 1583.92 1335.24L1527.14 1301.19L1642.86 1183.2C1701.51 1188.12 1760.08 1172.87 1808.87 1139.96C1809.18 1139.61 1809.51 1139.28 1809.86 1138.96C1812.7 1136.99 1815.55 1135.01 1818.35 1132.92C1819.79 1131.84 1821.2 1130.72 1822.68 1129.59C1824.15 1128.47 1826.43 1126.69 1828.25 1125.15C1831.28 1122.67 1834.23 1120.12 1837.15 1117.54C1837.43 1117.21 1837.73 1116.9 1838.06 1116.61C1841.65 1112.95 1845.66 1109.55 1849.33 1105.81C1854.17 1100.87 1858.74 1095.83 1863.09 1090.63C1867.43 1085.43 1871.84 1079.77 1875.8 1074.12L1930.43 1084.21C1943.37 1086.61 1956.71 1085.79 1969.26 1081.82C1981.81 1077.84 1993.19 1070.85 2002.39 1061.44C2004.82 1059.04 2007.08 1056.48 2009.15 1053.77Z" fill="#070300" fill-opacity="0.15"/>
<path d="M1677.91 1043.42L1455.05 824.84L1057.97 1229.7L1280.84 1448.28L1677.91 1043.42Z" fill="#F4B586"/>
<path d="M1489.23 1293.11L1210.34 1019.58L191.142 2058.75L470.03 2332.28L1489.23 1293.11Z" fill="#FADE7E"/>
<path fill-rule="evenodd" clip-rule="evenodd" d="M1169.85 1023.22C1170.87 1009.73 1176.4 996.98 1185.54 987.014C1194.69 977.047 1206.92 970.445 1220.27 968.271C1222.09 967.984 1223.95 968.111 1225.72 968.643C1227.48 969.175 1229.1 970.098 1230.46 971.343C1231.82 972.589 1232.88 974.125 1233.57 975.838C1234.25 977.55 1234.54 979.394 1234.41 981.234L1227.45 1074.33C1227.31 1076.18 1226.75 1077.96 1225.82 1079.56C1224.89 1081.16 1223.61 1082.52 1222.08 1083.55C1220.54 1084.58 1218.79 1085.25 1216.96 1085.51C1215.13 1085.76 1213.27 1085.6 1211.51 1085.03C1198.65 1080.88 1187.55 1072.54 1179.99 1061.33C1172.44 1050.12 1168.87 1036.7 1169.85 1023.22Z" fill="#FADE7E"/>
<path fill-rule="evenodd" clip-rule="evenodd" d="M1167.95 1031.18C1178.2 1033.6 1187.33 1039.4 1193.89 1047.64C1200.45 1055.88 1204.04 1066.09 1204.1 1076.62C1204.11 1078.06 1203.79 1079.49 1203.17 1080.79C1202.55 1082.09 1201.64 1083.24 1200.51 1084.13C1199.38 1085.03 1198.06 1085.66 1196.65 1085.97C1195.25 1086.29 1193.79 1086.28 1192.38 1085.94L1121.46 1069.33C1120.05 1068.99 1118.74 1068.34 1117.62 1067.42C1116.51 1066.5 1115.62 1065.34 1115.02 1064.02C1114.42 1062.7 1114.13 1061.27 1114.17 1059.82C1114.21 1058.38 1114.58 1056.96 1115.25 1055.68C1120 1046.26 1127.78 1038.73 1137.35 1034.28C1146.91 1029.84 1157.69 1028.74 1167.95 1031.18Z" fill="#FADE7E"/>
<path fill-rule="evenodd" clip-rule="evenodd" d="M1234.13 1090.5C1220.62 1090.3 1207.56 1085.56 1197.06 1077.05C1186.56 1068.53 1179.23 1056.74 1176.24 1043.55C1175.82 1041.75 1175.83 1039.88 1176.24 1038.07C1176.66 1036.27 1177.48 1034.59 1178.64 1033.15C1179.81 1031.71 1181.28 1030.55 1182.96 1029.77C1184.63 1028.98 1186.46 1028.59 1188.31 1028.62L1281.63 1029.81C1283.44 1029.86 1285.22 1030.32 1286.84 1031.14C1288.46 1031.96 1289.87 1033.13 1290.98 1034.57C1292.09 1036.01 1292.87 1037.67 1293.26 1039.44C1293.65 1041.22 1293.64 1043.05 1293.23 1044.82C1289.97 1057.98 1282.35 1069.65 1271.63 1077.94C1260.9 1086.23 1247.69 1090.66 1234.13 1090.5Z" fill="#FADE7E"/>
<path fill-rule="evenodd" clip-rule="evenodd" d="M1296.23 1133.17C1284.32 1139.58 1270.6 1141.79 1257.28 1139.45C1243.96 1137.1 1231.82 1130.34 1222.81 1120.25C1221.6 1118.86 1220.71 1117.22 1220.22 1115.45C1219.72 1113.68 1219.64 1111.82 1219.96 1110.01C1220.28 1108.19 1221.01 1106.48 1222.09 1104.99C1223.16 1103.49 1224.56 1102.26 1226.18 1101.39L1308.44 1057.24C1310.06 1056.37 1311.87 1055.89 1313.71 1055.81C1315.56 1055.74 1317.39 1056.08 1319.09 1056.82C1320.78 1057.56 1322.28 1058.67 1323.49 1060.06C1324.69 1061.46 1325.56 1063.12 1326.04 1064.9C1329.46 1077.97 1328.38 1091.82 1322.97 1104.2C1317.56 1116.59 1308.14 1126.79 1296.23 1133.17Z" fill="#FADE7E"/>
<path fill-rule="evenodd" clip-rule="evenodd" d="M830.121 1386.66C828.494 1372.46 831.688 1358.12 839.189 1345.96C846.69 1333.79 858.063 1324.5 871.48 1319.57C873.317 1318.9 875.283 1318.65 877.229 1318.85C879.175 1319.04 881.052 1319.68 882.719 1320.7C884.386 1321.72 885.8 1323.11 886.854 1324.76C887.909 1326.41 888.577 1328.27 888.808 1330.21L900.109 1428.29C900.365 1430.23 900.177 1432.2 899.559 1434.05C898.942 1435.9 897.91 1437.59 896.543 1438.98C895.177 1440.37 893.51 1441.44 891.671 1442.09C889.832 1442.75 887.868 1442.97 885.928 1442.75C871.666 1441.06 858.394 1434.6 848.264 1424.42C838.135 1414.23 831.742 1400.93 830.121 1386.66Z" fill="#FADE7E"/>
<path fill-rule="evenodd" clip-rule="evenodd" d="M399.199 1794.4C408.008 1793.41 416.893 1795.41 424.435 1800.06C431.978 1804.72 437.743 1811.77 440.809 1820.08C441.216 1821.22 441.362 1822.44 441.235 1823.65C441.109 1824.85 440.714 1826.01 440.079 1827.05C439.444 1828.08 438.585 1828.96 437.566 1829.61C436.548 1830.27 435.395 1830.69 434.192 1830.84L373.878 1837.65C372.676 1837.81 371.454 1837.69 370.304 1837.31C369.154 1836.92 368.107 1836.28 367.241 1835.43C366.376 1834.58 365.715 1833.55 365.308 1832.41C364.901 1831.26 364.76 1830.04 364.894 1828.84C365.961 1820.1 369.914 1811.96 376.129 1805.73C382.343 1799.49 390.463 1795.5 399.199 1794.4Z" fill="#FADE7E"/>
<path fill-rule="evenodd" clip-rule="evenodd" d="M457.294 1779.36C459.577 1787.93 458.915 1797.02 455.413 1805.16C451.911 1813.3 445.773 1820.04 437.985 1824.27C436.915 1824.84 435.731 1825.17 434.519 1825.22C433.307 1825.27 432.099 1825.05 430.984 1824.58C429.869 1824.1 428.875 1823.38 428.075 1822.47C427.276 1821.55 426.692 1820.47 426.365 1819.31L410.592 1760.19C410.275 1759.02 410.229 1757.79 410.456 1756.6C410.684 1755.41 411.18 1754.28 411.907 1753.31C412.634 1752.34 413.572 1751.55 414.65 1750.99C415.729 1750.44 416.919 1750.13 418.132 1750.11C426.997 1749.88 435.681 1752.64 442.786 1757.95C449.89 1763.25 455.001 1770.8 457.294 1779.36Z" fill="#FADE7E"/>
<path fill-rule="evenodd" clip-rule="evenodd" d="M498.859 2327.8C488.465 2323.57 479.805 2315.95 474.282 2306.18C468.759 2296.42 466.698 2285.07 468.434 2273.98C468.66 2272.47 469.228 2271.02 470.095 2269.76C470.961 2268.5 472.104 2267.45 473.436 2266.69C474.768 2265.93 476.254 2265.49 477.783 2265.39C479.312 2265.3 480.842 2265.55 482.259 2266.13L553.923 2295.49C555.337 2296.08 556.599 2296.98 557.617 2298.12C558.635 2299.26 559.38 2300.62 559.799 2302.1C560.217 2303.57 560.297 2305.12 560.033 2306.62C559.768 2308.13 559.166 2309.56 558.272 2310.8C551.711 2319.89 542.285 2326.51 531.51 2329.59C520.734 2332.67 509.234 2332.04 498.859 2327.8Z" fill="#FADE7E"/>
<path fill-rule="evenodd" clip-rule="evenodd" d="M533.406 2219.92C537.035 2209.31 544.122 2200.23 553.531 2194.14C562.939 2188.04 574.123 2185.28 585.287 2186.31C586.809 2186.46 588.278 2186.95 589.585 2187.74C590.892 2188.54 592.003 2189.62 592.837 2190.9C593.671 2192.18 594.206 2193.64 594.402 2195.15C594.598 2196.67 594.451 2198.21 593.971 2199.66L568.98 2272.97C568.488 2274.42 567.672 2275.73 566.595 2276.82C565.518 2277.91 564.207 2278.74 562.763 2279.25C561.318 2279.75 559.777 2279.92 558.256 2279.75C556.736 2279.57 555.275 2279.05 553.984 2278.23C544.506 2272.23 537.323 2263.22 533.59 2252.64C529.857 2242.06 529.793 2230.54 533.406 2219.92Z" fill="#FADE7E"/>
<path fill-rule="evenodd" clip-rule="evenodd" d="M838.323 2011.46C834.686 2022.06 827.59 2031.14 818.174 2037.23C808.759 2043.32 797.57 2046.07 786.404 2045.03C784.876 2044.89 783.401 2044.4 782.09 2043.6C780.778 2042.81 779.665 2041.72 778.832 2040.43C778 2039.14 777.471 2037.68 777.285 2036.16C777.099 2034.63 777.26 2033.09 777.758 2031.64L802.826 1958.41C803.321 1956.96 804.14 1955.64 805.219 1954.55C806.298 1953.46 807.611 1952.63 809.058 1952.12C810.505 1951.61 812.048 1951.43 813.573 1951.6C815.097 1951.77 816.563 1952.29 817.86 1953.11C827.318 1959.13 834.478 1968.16 838.189 1978.74C841.901 1989.32 841.948 2000.84 838.323 2011.46Z" fill="#FADE7E"/>
<path fill-rule="evenodd" clip-rule="evenodd" d="M1360.81 1125.63C1371.11 1134.69 1378.75 1146.38 1382.93 1159.45C1387.12 1172.52 1387.68 1186.47 1384.56 1199.83C1383.49 1204.09 1381.34 1207.99 1378.32 1211.17C1375.31 1214.36 1371.52 1216.7 1367.32 1217.99C1363.13 1219.28 1358.68 1219.47 1354.39 1218.53C1350.11 1217.59 1346.14 1215.57 1342.86 1212.65L1276.65 1154.29C1273.38 1151.41 1270.9 1147.74 1269.45 1143.63C1268.01 1139.52 1267.64 1135.1 1268.38 1130.81C1269.12 1126.52 1270.96 1122.48 1273.7 1119.1C1276.45 1115.72 1280.01 1113.09 1284.06 1111.48C1296.94 1106.67 1310.88 1105.44 1324.39 1107.93C1337.91 1110.42 1350.5 1116.54 1360.81 1125.63Z" fill="#FADE7E"/>
<path fill-rule="evenodd" clip-rule="evenodd" d="M1373.79 1231.86C1373.16 1218.15 1376.26 1204.53 1382.78 1192.45C1389.29 1180.37 1398.98 1170.29 1410.79 1163.3C1414.58 1161.11 1418.89 1159.93 1423.27 1159.89C1427.66 1159.85 1431.98 1160.94 1435.82 1163.05C1439.66 1165.17 1442.89 1168.24 1445.2 1171.97C1447.51 1175.71 1448.81 1179.97 1448.99 1184.35L1453.09 1272.72C1453.29 1277.11 1452.34 1281.48 1450.35 1285.4C1448.35 1289.31 1445.38 1292.65 1441.72 1295.08C1438.06 1297.51 1433.83 1298.95 1429.45 1299.26C1425.06 1299.58 1420.67 1298.75 1416.7 1296.87C1404.35 1290.92 1393.83 1281.73 1386.28 1270.29C1378.72 1258.84 1374.41 1245.56 1373.79 1231.86Z" fill="#FADE7E"/>
<path d="M1782.3 685.524L1894.28 326.303C1906.99 285.526 1884.24 242.164 1843.46 229.452C1802.69 216.741 1759.32 239.493 1746.61 280.27L1634.63 639.491C1621.92 680.268 1644.67 723.63 1685.45 736.342C1726.23 749.054 1769.59 726.302 1782.3 685.524Z" fill="#F4B586"/>
<path d="M1814.99 777.873L2140.09 567.59C2177.3 543.517 2187.96 493.832 2163.89 456.615L2163.86 456.57C2139.78 419.353 2090.1 408.698 2052.88 432.771L1727.78 643.054C1690.57 667.127 1679.91 716.812 1703.98 754.029L1704.01 754.074C1728.09 791.291 1777.77 801.946 1814.99 777.873Z" fill="#F4B586"/>
<path fill-rule="evenodd" clip-rule="evenodd" d="M1465.09 1316.95C1453.33 1309.89 1443.69 1299.77 1437.21 1287.68C1430.73 1275.58 1427.65 1261.96 1428.3 1248.25C1428.58 1243.88 1429.98 1239.65 1432.36 1235.97C1434.75 1232.3 1438.05 1229.3 1441.93 1227.27C1445.82 1225.24 1450.16 1224.25 1454.54 1224.38C1458.92 1224.52 1463.19 1225.79 1466.94 1228.06L1542.62 1273.46C1546.39 1275.69 1549.52 1278.86 1551.71 1282.66C1553.9 1286.46 1555.08 1290.76 1555.12 1295.14C1555.16 1299.53 1554.07 1303.85 1551.96 1307.69C1549.84 1311.53 1546.77 1314.76 1543.04 1317.07C1531.25 1324.09 1517.78 1327.79 1504.05 1327.77C1490.33 1327.75 1476.86 1324.01 1465.09 1316.95Z" fill="#FADE7E"/>
<path fill-rule="evenodd" clip-rule="evenodd" d="M1001.69 1765.53C1009.02 1760.65 1017.5 1757.74 1026.29 1757.08C1035.08 1756.43 1043.89 1758.05 1051.87 1761.79C1062.04 1766.85 1061.53 1781.71 1050.87 1788.42L1001.52 1819.53C990.855 1826.24 977.318 1820.53 977.091 1808.96C977.15 1800.22 979.44 1791.65 983.744 1784.05C988.048 1776.44 994.224 1770.07 1001.69 1765.53Z" fill="#FADE7E"/>
<path fill-rule="evenodd" clip-rule="evenodd" d="M957.534 1812.47C955.555 1803.62 956.015 1794.4 958.864 1785.79C961.712 1777.18 966.844 1769.51 973.711 1763.58C975.933 1761.73 978.595 1760.48 981.44 1759.96C984.284 1759.43 987.217 1759.65 989.954 1760.58C992.691 1761.52 995.141 1763.15 997.067 1765.3C998.994 1767.46 1000.33 1770.08 1000.95 1772.9L1013.65 1829.84C1014.28 1832.67 1014.17 1835.61 1013.34 1838.38C1012.5 1841.15 1010.97 1843.67 1008.88 1845.68C1006.8 1847.69 1004.23 1849.13 1001.43 1849.86C998.625 1850.59 995.682 1850.59 992.88 1849.86C984.153 1847.42 976.255 1842.65 970.03 1836.06C963.804 1829.47 959.485 1821.32 957.534 1812.47Z" fill="#FADE7E"/>
<path fill-rule="evenodd" clip-rule="evenodd" d="M844.277 1428.61C864.575 1426.58 877.245 1413.81 878.836 1396.69C879.979 1384.57 864.767 1371.54 851.337 1372.89L789.412 1378.96C776.02 1380.27 773.491 1395.19 784.937 1405.89C801.318 1421.27 824.056 1430.64 844.277 1428.61Z" fill="#FADE7E"/>
<path fill-rule="evenodd" clip-rule="evenodd" d="M1412.36 1329.14C1410.88 1316.91 1412.75 1304.51 1417.78 1293.26C1422.8 1282.02 1430.78 1272.34 1440.88 1265.28C1444.12 1263.07 1447.88 1261.73 1451.8 1261.4C1455.71 1261.07 1459.64 1261.76 1463.21 1263.39C1466.78 1265.03 1469.87 1267.56 1472.17 1270.74C1474.48 1273.92 1475.92 1277.65 1476.36 1281.55L1485.83 1359.98C1486.32 1363.87 1485.8 1367.83 1484.32 1371.47C1482.83 1375.1 1480.43 1378.29 1477.35 1380.73C1474.27 1383.16 1470.61 1384.76 1466.73 1385.36C1462.85 1385.97 1458.88 1385.56 1455.21 1384.18C1443.75 1379.75 1433.71 1372.29 1426.17 1362.59C1418.62 1352.9 1413.85 1341.34 1412.36 1329.14Z" fill="#FADE7E"/>
<path fill-rule="evenodd" clip-rule="evenodd" d="M1809.36 1043.06C1783.02 1069.9 1751.12 1090.66 1715.92 1103.89C1680.71 1117.12 1643.04 1122.5 1605.54 1119.65C1568.03 1116.81 1531.6 1105.8 1498.8 1087.4C1465.99 1069.01 1437.6 1043.67 1415.61 1013.16C1393.62 982.646 1378.56 947.698 1371.49 910.759C1364.41 873.82 1365.49 835.781 1374.65 799.303C1383.81 762.824 1400.83 728.787 1424.52 699.572C1448.2 670.357 1477.99 646.669 1511.78 630.165C1518.13 627.086 1524.63 624.235 1531.14 621.69C1588 599.538 1650.88 598.225 1708.62 617.985C1766.36 637.745 1815.24 677.301 1846.61 729.649C1846.66 729.667 1846.71 729.697 1846.75 729.737C1846.79 729.776 1846.82 729.823 1846.84 729.876C1869.82 768.281 1882.36 812.028 1883.21 856.775C1883.37 861.242 1883.34 865.749 1883.11 870.219C1882.95 877.095 1882.48 883.898 1881.74 890.741C1881.5 892.92 1881.21 895.138 1880.82 897.395C1875.24 938.463 1859.81 977.57 1835.83 1011.37C1831.87 1017.03 1827.61 1022.53 1823.12 1027.88C1818.62 1033.23 1814.2 1038.13 1809.36 1043.06Z" fill="#F4B586"/>
<g opacity="0.3">
<path fill-rule="evenodd" clip-rule="evenodd" d="M1962.42 998.687C1953.22 1008.1 1941.84 1015.1 1929.29 1019.07C1916.74 1023.04 1903.4 1023.86 1890.46 1021.46L1835.83 1011.37C1831.87 1017.03 1827.61 1022.53 1823.12 1027.88L1690.55 1003.31C1669.61 999.458 1651.05 987.447 1638.96 969.918C1626.88 952.389 1622.25 930.777 1626.09 909.835L1627.07 904.67C1629.38 892.097 1634.66 880.258 1642.47 870.143C1650.29 860.029 1660.41 851.931 1671.99 846.527C1674.98 845.119 1678.06 843.891 1681.2 842.848C1693.95 838.705 1707.53 837.851 1720.7 840.364L1883.11 870.372L1910.85 875.488L1913.07 875.924C1915.86 876.547 1918.66 877.321 1921.38 878.173C1939.81 884.231 1955.42 896.754 1965.34 913.429C1975.25 930.105 1978.79 949.804 1975.31 968.888L1974.36 974.091C1973.31 979.845 1971.61 985.46 1969.29 990.83C1967.19 993.61 1964.9 996.236 1962.42 998.687Z" fill="#070300" fill-opacity="0.15"/>
<path fill-rule="evenodd" clip-rule="evenodd" d="M1969.14 849.296L1931.96 866.995C1934.37 867.791 1936.73 868.737 1939.02 869.829L1921.46 878.249L1880.97 897.546L1787.15 942.3C1767.93 951.45 1745.87 952.591 1725.81 945.473C1705.75 938.355 1689.34 923.561 1680.19 904.345L1677.89 899.594C1670.68 884.534 1668.36 867.601 1671.23 851.156C1671.49 849.664 1671.82 848.171 1672.18 846.716C1674.92 834.998 1680.27 824.047 1687.82 814.677C1695.37 805.308 1704.94 797.761 1715.81 792.597L1729.53 786.315C1729.59 786.222 1729.67 786.143 1729.76 786.083L1847 730.256L1890.45 709.555C1899.97 705.018 1910.28 702.399 1920.81 701.849C1931.34 701.299 1941.87 702.828 1951.8 706.349C1961.74 709.87 1970.88 715.314 1978.72 722.37C1986.55 729.426 1992.91 737.955 1997.45 747.472L1999.71 752.262C2005.67 764.734 2008.29 778.536 2007.34 792.325C2006.38 806.114 2001.87 819.42 1994.25 830.95C1993.53 831.682 1992.81 832.415 1992.09 833.148C1985.46 839.843 1977.69 845.311 1969.14 849.296Z" fill="#070300" fill-opacity="0.15"/>
</g>
<g opacity="0.3">
<path fill-rule="evenodd" clip-rule="evenodd" d="M1459.41 903.929C1448.91 904.974 1438.31 903.94 1428.22 900.885C1418.13 897.83 1408.74 892.815 1400.58 886.125C1392.43 879.436 1385.68 871.205 1380.71 861.902C1375.74 852.599 1372.66 842.408 1371.63 831.912L1370.44 819.55C1377.28 779.03 1393.67 740.721 1418.25 707.795C1442.84 674.868 1474.91 648.27 1511.82 630.203C1513.21 635.01 1514.15 639.936 1514.64 644.917L1531.46 816.193C1531.59 817.452 1531.68 818.673 1531.69 819.971C1532.75 840.577 1525.84 860.8 1512.37 876.436C1498.91 892.073 1479.94 901.919 1459.41 903.929Z" fill="#070300" fill-opacity="0.15"/>
<path fill-rule="evenodd" clip-rule="evenodd" d="M1660.14 813.493C1672.57 796.211 1677.64 774.699 1674.22 753.685C1670.8 732.67 1659.18 713.873 1641.9 701.427L1539.1 627.379C1533.83 647.557 1506.07 659.207 1493.05 640.314C1456.75 661.991 1426.28 692.187 1404.27 728.289L1531.65 819.933L1548.11 831.766C1563.67 842.962 1582.73 848.219 1601.83 846.583C1620.93 844.948 1638.81 836.529 1652.25 822.85C1655.12 819.941 1657.76 816.813 1660.14 813.493Z" fill="#070300" fill-opacity="0.15"/>
</g>
<path d="M1542.72 783.332L1525.87 611.983C1521.53 567.872 1482.26 535.629 1438.15 539.966L1438.09 539.972C1393.98 544.309 1361.74 583.585 1366.08 627.695L1382.93 799.045C1387.27 843.156 1426.54 875.399 1470.65 871.061L1470.71 871.056C1514.82 866.718 1547.06 827.443 1542.72 783.332Z" fill="#F2C4A5"/>
<path d="M1653.08 668.516L1492.65 553.046C1456.68 527.153 1406.52 535.327 1380.63 571.301L1380.6 571.345C1354.71 607.32 1362.88 657.473 1398.86 683.365L1559.29 798.835C1595.26 824.728 1645.42 816.554 1671.31 780.58L1671.34 780.536C1697.23 744.561 1689.06 694.408 1653.08 668.516Z" fill="#F2C4A5"/>
<path fill-rule="evenodd" clip-rule="evenodd" d="M1962.42 998.687C1953.22 1008.1 1941.84 1015.1 1929.29 1019.07C1916.74 1023.04 1903.4 1023.86 1890.46 1021.46L1835.83 1011.37L1711.56 988.519C1697.21 985.903 1683.84 979.426 1672.89 969.783C1661.94 960.141 1653.82 947.697 1649.41 933.789C1645 919.881 1644.46 905.034 1647.85 890.844C1651.24 876.653 1658.44 863.654 1668.66 853.243C1669.41 852.472 1670.21 851.662 1670.96 850.891C1674.13 847.909 1677.55 845.218 1681.2 842.848C1684.58 840.494 1688.17 838.44 1691.91 836.71C1707.06 829.626 1724.06 827.458 1740.5 830.51L1883.06 856.853L1919.56 863.602C1923.65 864.329 1927.69 865.375 1931.62 866.731C1934.03 867.527 1936.38 868.473 1938.67 869.565C1954.8 877.068 1967.98 889.716 1976.14 905.523C1984.3 921.329 1986.97 939.398 1983.75 956.891C1981.5 969.171 1976.4 980.749 1968.84 990.681C1966.89 993.498 1964.74 996.173 1962.42 998.687Z" fill="#F2A191"/>
<path fill-rule="evenodd" clip-rule="evenodd" d="M1991.86 832.921C1985.27 839.646 1977.54 845.151 1969.03 849.182L1931.85 866.882L1912.92 875.773L1881.74 890.588L1804.69 927.274C1791.32 933.628 1776.45 936.164 1761.73 934.6C1747.01 933.036 1733.01 927.433 1721.27 918.411C1709.53 909.389 1700.52 897.298 1695.22 883.475C1689.92 869.651 1688.55 854.632 1691.25 840.077C1691.47 838.853 1691.73 837.666 1692.06 836.479C1695.38 822.169 1702.58 809.047 1712.85 798.545C1717.73 793.546 1723.26 789.228 1729.3 785.706C1729.36 785.613 1729.43 785.534 1729.53 785.475C1731.46 784.412 1733.45 783.461 1735.49 782.629L1846.54 729.726L1899.91 704.308C1916.7 696.326 1935.73 694.415 1953.77 698.9C1971.81 703.386 1987.74 713.991 1998.83 728.906C2009.93 743.821 2015.5 762.123 2014.61 780.69C2013.72 799.258 2006.41 816.941 1993.94 830.724C1993.41 831.34 1992.58 832.188 1991.86 832.921Z" fill="#F29288"/>
<path opacity="0.15" fill-rule="evenodd" clip-rule="evenodd" d="M1808.79 1043.64C1782.2 1070.8 1749.92 1091.75 1714.27 1104.97C1678.63 1118.19 1640.5 1123.36 1602.62 1120.11L1280.23 1448.82L1213.37 1383.24L1650.08 937.978C1654.88 951.072 1663.02 962.685 1673.69 971.665C1684.36 980.645 1697.2 986.681 1710.92 989.174L1835.34 1012.18C1831.38 1017.83 1827.12 1023.33 1822.63 1028.69C1818.13 1034.04 1813.56 1038.78 1808.79 1043.64Z" fill="#070300" fill-opacity="0.15"/>
<path fill-rule="evenodd" clip-rule="evenodd" d="M1482.72 1322.96L1487.04 1358.97C1487.54 1362.87 1487.01 1366.83 1485.53 1370.46C1484.04 1374.1 1481.65 1377.29 1478.56 1379.72C1475.48 1382.16 1471.83 1383.75 1467.95 1384.36C1464.07 1384.96 1460.09 1384.56 1456.42 1383.18C1443.82 1378.24 1432.99 1369.66 1425.28 1358.54L1035.39 1756.07C1041.61 1756.5 1047.68 1758.18 1053.24 1761.02C1063.41 1766.07 1062.9 1780.86 1052.24 1787.64L1011.62 1813.24L1015.09 1828.91C1015.75 1831.73 1015.66 1834.68 1014.84 1837.46C1014.02 1840.24 1012.49 1842.76 1010.41 1844.77C1008.33 1846.79 1005.76 1848.23 1002.95 1848.96C1000.15 1849.69 997.199 1849.68 994.398 1848.93C982.529 1845.55 972.314 1837.93 965.7 1827.52L832.056 1963.78C838.027 1971.47 841.617 1980.74 842.385 1990.45C843.152 2000.15 841.064 2009.87 836.377 2018.4C831.69 2026.94 824.609 2033.91 816.006 2038.47C807.403 2043.03 797.654 2044.98 787.961 2044.06C786.434 2043.92 784.959 2043.44 783.647 2042.64C782.335 2041.85 781.219 2040.77 780.383 2039.49C779.548 2038.2 779.014 2036.74 778.822 2035.22C778.631 2033.7 778.786 2032.16 779.276 2030.7L786.184 2010.55L592.222 2208.31L570.537 2272C570.033 2273.44 569.21 2274.75 568.129 2275.84C567.048 2276.92 565.738 2277.75 564.294 2278.26C562.85 2278.77 561.311 2278.95 559.789 2278.78C558.267 2278.61 556.802 2278.11 555.503 2277.3C549.198 2273.31 543.882 2267.94 539.96 2261.6L521.316 2280.61L555.48 2294.6C556.894 2295.19 558.157 2296.08 559.174 2297.23C560.192 2298.37 560.938 2299.73 561.356 2301.2C561.774 2302.67 561.854 2304.22 561.59 2305.73C561.326 2307.24 560.724 2308.67 559.829 2309.91C555.689 2315.71 550.356 2320.55 544.189 2324.12C538.022 2327.68 531.163 2329.89 524.074 2330.59C516.984 2331.29 509.826 2330.46 503.082 2328.17C496.338 2325.87 490.163 2322.16 484.971 2317.28L471.167 2331.35L356.728 2219.11L1386.78 1168.88C1387.68 1174.32 1387.99 1179.85 1387.7 1185.37C1394 1175.89 1402.34 1167.94 1412.11 1162.1C1415.91 1159.92 1420.21 1158.75 1424.6 1158.71C1428.98 1158.68 1433.3 1159.77 1437.14 1161.89C1440.97 1164.01 1444.2 1167.09 1446.5 1170.82C1448.8 1174.55 1450.1 1178.81 1450.28 1183.19L1452 1223.24C1457.6 1222.62 1463.25 1223.85 1468.08 1226.75L1543.75 1272.15C1547.52 1274.39 1550.65 1277.56 1552.83 1281.37C1555.01 1285.17 1556.18 1289.47 1556.21 1293.86C1556.25 1298.24 1555.15 1302.56 1553.03 1306.4C1550.91 1310.23 1547.83 1313.46 1544.1 1315.76C1534.94 1321.19 1524.75 1324.64 1514.18 1325.88C1503.6 1327.12 1492.88 1326.13 1482.72 1322.96Z" fill="#FAD77E"/>
</g>
<defs>
<clipPath id="clip0_874_2247">
<rect width="888.747" height="2543.64" fill="white" transform="translate(1822.74 119.285) rotate(44.444)"/>
</clipPath>
</defs>
</svg>
