<svg width="295" height="302" viewBox="0 0 295 302" fill="none" xmlns="http://www.w3.org/2000/svg">
<g clip-path="url(#clip0_1006_723)">
<path d="M95.6117 24.258C108.119 37.3574 110.687 56.2367 103.374 71.5664C97.0591 71.1041 90.7803 69.0611 85.163 65.7683C85.0086 65.6065 80.0162 62.6444 75.8471 58.278C62.5603 44.6861 62.5941 22.7039 62.4616 21.5938C62.542 18.1164 62.8133 13.22 64.3711 7.4044C69.8706 8.95489 77.8771 11.5122 86.2885 17.0838C89.0971 18.7303 92.369 20.8619 95.6117 24.258Z" fill="#DEDFE2"/>
<path d="M160.079 108.936C161.632 123.838 152.459 137.543 138.072 144.169C133.727 140.589 130.19 136.238 128.094 131.128C127.939 130.967 126.145 126.497 125.468 121.579C123.775 105.883 136.448 91.3093 137.094 90.6917C139.204 88.3682 142.277 85.4343 146.776 82.3753C150.011 86.0876 154.467 91.7259 157.291 99.5406C158.659 101.944 159.696 104.973 160.079 108.936Z" fill="#DEDFE2"/>
<path d="M211.5 176.39C221.479 189.43 222.665 206.538 215.417 219.023C209.911 217.788 204.588 215.451 199.926 211.864C199.772 211.702 195.573 208.6 192.352 204.256C181.602 190.406 182.835 171.299 182.857 170.35C183.084 167.351 183.657 163.094 185.354 158.072C190.214 159.924 196.942 163.085 203.927 168.781C206.096 170.729 208.736 172.846 211.5 176.39Z" fill="#DEDFE2"/>
<path d="M158.046 190.02C176.948 193.304 191.367 205.815 195.464 220.143C189.869 222.703 183.503 224.453 176.695 224.77C176.379 224.763 170.519 225.102 164.219 224.007C143.898 220.533 129.552 204.86 128.78 204.052C126.464 201.626 123.544 197.921 121.125 193.121C126.543 191.348 134.814 189.325 145.253 189.25C149.209 189.183 152.848 189.109 158.046 190.02Z" fill="#DEDFE2"/>
<path d="M90.8911 112.239C107.25 116.097 118.963 129.336 121.141 144.569C116.017 147.297 110.129 148.9 103.953 149.232C103.637 149.225 98.4098 149.578 93.0648 148.19C75.7579 144.31 64.441 127.601 63.8307 126.638C61.9924 124.065 59.7127 120.058 58.0946 114.802C63.1966 113.022 70.5188 110.977 79.8483 111.035C83.1641 111.27 86.6415 111.35 90.8911 112.239Z" fill="#DEDFE2"/>
<path d="M101.021 63.9211C110.275 101.459 124.828 128.681 135.513 145.375C151.838 171.215 187.539 227.709 248.819 238.141C263.31 240.69 275.822 239.872 283.593 238.945" stroke="#DEDFE2" stroke-width="8" stroke-miterlimit="10" stroke-linecap="round"/>
</g>
<defs>
<clipPath id="clip0_1006_723">
<rect width="100.172" height="321.759" fill="white" transform="translate(0 69.1768) rotate(-43.6757)"/>
</clipPath>
</defs>
</svg>
