<svg width="171" height="194" viewBox="0 0 171 194" fill="none" xmlns="http://www.w3.org/2000/svg">
<path d="M168.5 47.5002C156.5 39.5002 121.7 31.0002 78.5 61.0002C35.3 91.0002 10.1667 160.167 3 191" stroke="#E9EBEC" stroke-width="5" stroke-linecap="round"/>
<g clip-path="url(#clip0_1016_766)">
<path d="M65.8529 67.9347C57.4963 62.5528 52.5488 54.6058 52.3098 46.0909C52.0545 36.9954 57.067 28.4299 66.07 22.5123C74.4267 27.8943 79.3741 35.8413 79.6131 44.3562C79.8684 53.4517 74.8566 62.0413 65.8529 67.9347Z" fill="#E9EBEC"/>
<path d="M66.0747 22.6816C74.3375 28.042 79.2208 35.9181 79.4578 44.3605C79.711 53.3834 74.7593 61.8987 65.8481 67.7653C57.5853 62.4049 52.702 54.5287 52.465 46.0864C52.2118 37.0635 57.1635 28.5482 66.0747 22.6816ZM66.0659 22.3671C57.3356 28.0349 51.889 36.6368 52.1545 46.0951C52.405 55.0213 57.692 62.8861 65.8569 68.0798C74.5872 62.4119 80.0338 53.8101 79.7683 44.3518C79.5178 35.4256 74.2314 27.585 66.0659 22.3671Z" fill="#E9EBEC"/>
</g>
<g clip-path="url(#clip1_1016_766)">
<path d="M82.5842 58.5628C91.4333 54.0358 100.79 53.7449 108.275 57.8116C116.27 62.1555 121.163 70.7897 121.763 81.5467C112.914 86.0737 103.557 86.3646 96.0725 82.298C88.0773 77.954 83.163 69.3082 82.5842 58.5628Z" fill="#E9EBEC"/>
</g>
<g clip-path="url(#clip2_1016_766)">
<path d="M133.209 7.14687C137.693 16.0181 137.937 25.3761 133.834 32.8409C129.451 40.8145 120.792 45.6649 110.033 46.2119C105.549 37.3407 105.304 27.9827 109.408 20.518C113.791 12.5443 122.461 7.67266 133.209 7.14687Z" fill="#E9EBEC"/>
</g>
<g clip-path="url(#clip3_1016_766)">
<path d="M98.7983 100.411C90.9918 105.766 81.48 107.418 72.6687 104.905C63.2567 102.222 55.8252 95.2497 52.2016 85.7457C60.0081 80.3913 69.5198 78.7391 78.3311 81.2517C87.7432 83.9356 95.1997 90.9146 98.7983 100.411Z" fill="#E9EBEC"/>
</g>
<g clip-path="url(#clip4_1016_766)">
<path d="M38.1299 102.518C28.4185 98.2905 21.35 90.3503 18.7559 80.6797C15.9849 70.3498 18.5425 59.4151 25.7593 50.5879C35.4706 54.8152 42.5391 62.7555 45.1332 72.426C47.9042 82.756 45.354 93.7182 38.1299 102.518Z" fill="#E9EBEC"/>
</g>
<defs>
<clipPath id="clip0_1016_766">
<rect width="27.6519" height="45.6889" fill="white" transform="translate(51.5 22.7759) rotate(-1.6076)"/>
</clipPath>
<clipPath id="clip1_1016_766">
<rect width="27.6519" height="45.6889" fill="white" transform="translate(128.847 68.8123) rotate(118.516)"/>
</clipPath>
<clipPath id="clip2_1016_766">
<rect width="27.6519" height="45.6889" fill="white" transform="translate(122.732 53.3589) rotate(-151.201)"/>
</clipPath>
<clipPath id="clip3_1016_766">
<rect width="24.5759" height="49.1446" fill="white" transform="translate(48.5 98.157) rotate(-74.084)"/>
</clipPath>
<clipPath id="clip4_1016_766">
<rect width="27.9288" height="53.7032" fill="white" transform="translate(11.5 54.2361) rotate(-15.016)"/>
</clipPath>
</defs>
</svg>
